<ttFont>
    <TTGlyph name="A" xMin="-373" yMin="-249" xMax="799" yMax="1554">
      <contour>
        <pt x="39" y="334" on="1"/>
        <pt x="666" y="1536" on="1"/>
        <pt x="669" y="1542" on="0"/>
        <pt x="677" y="1549" on="0"/>
        <pt x="682" y="1552" on="1"/>
        <pt x="688" y="1554" on="0"/>
        <pt x="698" y="1552" on="0"/>
        <pt x="705" y="1550" on="1"/>
        <pt x="799" y="1526" on="1"/>
        <pt x="580" y="-125" on="1"/>
        <pt x="622" y="-120" on="0"/>
        <pt x="691" y="-117" on="0"/>
        <pt x="711" y="-117" on="1"/>
        <pt x="741" y="-117" on="0"/>
        <pt x="770" y="-124" on="0"/>
        <pt x="777" y="-136" on="0"/>
        <pt x="768" y="-153" on="0"/>
        <pt x="760" y="-164" on="1"/>
        <pt x="751" y="-174" on="0"/>
        <pt x="742" y="-190" on="0"/>
        <pt x="726" y="-203" on="0"/>
        <pt x="697" y="-213" on="0"/>
        <pt x="668" y="-217" on="1"/>
        <pt x="648" y="-220" on="0"/>
        <pt x="570" y="-225" on="0"/>
        <pt x="473" y="-232" on="0"/>
        <pt x="367" y="-237" on="0"/>
        <pt x="274" y="-242" on="0"/>
        <pt x="203" y="-246" on="0"/>
        <pt x="190" y="-246" on="1"/>
        <pt x="148" y="-249" on="0"/>
        <pt x="142" y="-226" on="0"/>
        <pt x="168" y="-197" on="1"/>
        <pt x="189" y="-169" on="0"/>
        <pt x="264" y="-160" on="1"/>
        <pt x="275" y="-158" on="0"/>
        <pt x="329" y="-151" on="0"/>
        <pt x="367" y="-147" on="1"/>
        <pt x="434" y="295" on="1"/>
        <pt x="76" y="262" on="1"/>
        <pt x="-90" y="-57" on="1"/>
        <pt x="-28" y="-49" on="0"/>
        <pt x="28" y="-52" on="0"/>
        <pt x="23" y="-66" on="1"/>
        <pt x="16" y="-81" on="0"/>
        <pt x="-11" y="-121" on="0"/>
        <pt x="-37" y="-135" on="1"/>
        <pt x="-46" y="-139" on="0"/>
        <pt x="-94" y="-147" on="0"/>
        <pt x="-158" y="-154" on="0"/>
        <pt x="-229" y="-159" on="0"/>
        <pt x="-292" y="-164" on="0"/>
        <pt x="-340" y="-167" on="0"/>
        <pt x="-348" y="-168" on="1"/>
        <pt x="-373" y="-170" on="0"/>
        <pt x="-363" y="-137" on="0"/>
        <pt x="-332" y="-113" on="1"/>
        <pt x="-327" y="-109" on="0"/>
        <pt x="-312" y="-99" on="0"/>
        <pt x="-278" y="-87" on="0"/>
        <pt x="-220" y="-75" on="0"/>
        <pt x="-172" y="-68" on="1"/>
        <pt x="-2" y="256" on="1"/>
        <pt x="-117" y="246" on="1"/>
        <pt x="-124" y="246" on="0"/>
        <pt x="-127" y="252" on="1"/>
        <pt x="-131" y="260" on="0"/>
        <pt x="-125" y="266" on="1"/>
        <pt x="-117" y="281" on="1"/>
        <pt x="-95" y="316" on="0"/>
        <pt x="-55" y="324" on="1"/>
      </contour>
      <contour>
        <pt x="446" y="385" on="1"/>
        <pt x="571" y="1223" on="1"/>
        <pt x="119" y="344" on="1"/>
      </contour>
    </TTGlyph>
    <TTGlyph name="AE" xMin="-373" yMin="-231" xMax="1608" yMax="1581">
      <contour>
        <pt x="39" y="334" on="1"/>
        <pt x="666" y="1536" on="1"/>
        <pt x="669" y="1542" on="0"/>
        <pt x="677" y="1549" on="0"/>
        <pt x="682" y="1552" on="1"/>
        <pt x="688" y="1554" on="0"/>
        <pt x="698" y="1552" on="0"/>
        <pt x="705" y="1550" on="1"/>
        <pt x="799" y="1526" on="1"/>
        <pt x="668" y="530" on="1"/>
        <pt x="773" y="615" on="0"/>
        <pt x="899" y="657" on="1"/>
        <pt x="867" y="670" on="0"/>
        <pt x="811" y="714" on="0"/>
        <pt x="771" y="773" on="0"/>
        <pt x="748" y="847" on="0"/>
        <pt x="748" y="891" on="1"/>
        <pt x="748" y="972" on="0"/>
        <pt x="796" y="1138" on="0"/>
        <pt x="882" y="1291" on="0"/>
        <pt x="1000" y="1425" on="0"/>
        <pt x="1139" y="1524" on="0"/>
        <pt x="1293" y="1581" on="0"/>
        <pt x="1372" y="1581" on="1"/>
        <pt x="1416" y="1581" on="0"/>
        <pt x="1501" y="1562" on="0"/>
        <pt x="1567" y="1513" on="0"/>
        <pt x="1608" y="1428" on="0"/>
        <pt x="1608" y="1362" on="1"/>
        <pt x="1608" y="1311" on="0"/>
        <pt x="1564" y="1217" on="0"/>
        <pt x="1495" y="1144" on="0"/>
        <pt x="1411" y="1100" on="0"/>
        <pt x="1372" y="1100" on="1"/>
        <pt x="1366" y="1100" on="0"/>
        <pt x="1354" y="1111" on="0"/>
        <pt x="1354" y="1120" on="1"/>
        <pt x="1354" y="1137" on="0"/>
        <pt x="1374" y="1186" on="0"/>
        <pt x="1399" y="1247" on="0"/>
        <pt x="1419" y="1317" on="0"/>
        <pt x="1419" y="1354" on="1"/>
        <pt x="1419" y="1419" on="0"/>
        <pt x="1360" y="1497" on="0"/>
        <pt x="1305" y="1497" on="1"/>
        <pt x="1249" y="1497" on="0"/>
        <pt x="1156" y="1437" on="0"/>
        <pt x="1080" y="1340" on="0"/>
        <pt x="1022" y="1220" on="0"/>
        <pt x="983" y="1099" on="0"/>
        <pt x="963" y="989" on="0"/>
        <pt x="963" y="952" on="1"/>
        <pt x="963" y="892" on="0"/>
        <pt x="983" y="809" on="0"/>
        <pt x="1012" y="754" on="0"/>
        <pt x="1047" y="720" on="0"/>
        <pt x="1076" y="699" on="0"/>
        <pt x="1096" y="686" on="0"/>
        <pt x="1096" y="678" on="1"/>
        <pt x="1096" y="658" on="0"/>
        <pt x="1072" y="626" on="0"/>
        <pt x="1049" y="623" on="1"/>
        <pt x="957" y="597" on="0"/>
        <pt x="804" y="485" on="0"/>
        <pt x="695" y="333" on="0"/>
        <pt x="635" y="154" on="0"/>
        <pt x="635" y="63" on="1"/>
        <pt x="635" y="21" on="0"/>
        <pt x="658" y="-37" on="0"/>
        <pt x="696" y="-72" on="0"/>
        <pt x="747" y="-88" on="0"/>
        <pt x="776" y="-88" on="1"/>
        <pt x="837" y="-88" on="0"/>
        <pt x="931" y="-40" on="0"/>
        <pt x="1002" y="31" on="0"/>
        <pt x="1054" y="114" on="0"/>
        <pt x="1093" y="185" on="0"/>
        <pt x="1121" y="233" on="0"/>
        <pt x="1133" y="233" on="1"/>
        <pt x="1142" y="233" on="0"/>
        <pt x="1167" y="220" on="0"/>
        <pt x="1167" y="205" on="1"/>
        <pt x="1167" y="202" on="0"/>
        <pt x="1165" y="193" on="0"/>
        <pt x="1163" y="188" on="1"/>
        <pt x="1125" y="107" on="0"/>
        <pt x="1031" y="-44" on="0"/>
        <pt x="913" y="-161" on="0"/>
        <pt x="765" y="-231" on="0"/>
        <pt x="672" y="-231" on="1"/>
        <pt x="613" y="-231" on="0"/>
        <pt x="513" y="-194" on="0"/>
        <pt x="441" y="-123" on="0"/>
        <pt x="401" y="-22" on="0"/>
        <pt x="401" y="43" on="1"/>
        <pt x="401" y="52" on="0"/>
        <pt x="402" y="74" on="0"/>
        <pt x="408" y="126" on="0"/>
        <pt x="420" y="217" on="0"/>
        <pt x="432" y="295" on="1"/>
        <pt x="76" y="262" on="1"/>
        <pt x="-90" y="-57" on="1"/>
        <pt x="-28" y="-49" on="0"/>
        <pt x="28" y="-52" on="0"/>
        <pt x="23" y="-66" on="1"/>
        <pt x="16" y="-81" on="0"/>
        <pt x="-11" y="-121" on="0"/>
        <pt x="-37" y="-135" on="1"/>
        <pt x="-46" y="-139" on="0"/>
        <pt x="-94" y="-147" on="0"/>
        <pt x="-158" y="-154" on="0"/>
        <pt x="-229" y="-159" on="0"/>
        <pt x="-292" y="-164" on="0"/>
        <pt x="-340" y="-167" on="0"/>
        <pt x="-348" y="-168" on="1"/>
        <pt x="-373" y="-170" on="0"/>
        <pt x="-363" y="-137" on="0"/>
        <pt x="-332" y="-113" on="1"/>
        <pt x="-327" y="-109" on="0"/>
        <pt x="-312" y="-99" on="0"/>
        <pt x="-278" y="-87" on="0"/>
        <pt x="-220" y="-75" on="0"/>
        <pt x="-172" y="-68" on="1"/>
        <pt x="-2" y="256" on="1"/>
        <pt x="-117" y="246" on="1"/>
        <pt x="-124" y="246" on="0"/>
        <pt x="-127" y="252" on="1"/>
        <pt x="-131" y="260" on="0"/>
        <pt x="-125" y="266" on="1"/>
        <pt x="-117" y="281" on="1"/>
        <pt x="-95" y="316" on="0"/>
        <pt x="-55" y="324" on="1"/>
      </contour>
      <contour>
        <pt x="446" y="385" on="1"/>
        <pt x="571" y="1223" on="1"/>
        <pt x="119" y="344" on="1"/>
      </contour>
    </TTGlyph>
    <TTGlyph name="AEacute" xMin="-373" yMin="-231" xMax="1608" yMax="1934">
      <component glyphName="AE" x="0" y="0" flags="0x204"/>
      <component glyphName="acute" x="608" y="758" flags="0x4"/>
    </TTGlyph>
    <TTGlyph name="Aacute" xMin="-373" yMin="-249" xMax="1073" yMax="1946">
      <component glyphName="A" x="0" y="0" flags="0x204"/>
      <component glyphName="acute" x="352" y="770" flags="0x4"/>
    </TTGlyph>
    <TTGlyph name="Abreve" xMin="-373" yMin="-249" xMax="1120" yMax="1933">
      <component glyphName="A" x="0" y="0" flags="0x204"/>
      <component glyphName="breve" x="317" y="770" flags="0x4"/>
    </TTGlyph>
    <TTGlyph name="Acircumflex" xMin="-373" yMin="-249" xMax="1048" yMax="1944">
      <component glyphName="A" x="0" y="0" flags="0x204"/>
      <component glyphName="circumflex" x="313" y="770" flags="0x4"/>
    </TTGlyph>
    <TTGlyph name="Adieresis" xMin="-373" yMin="-249" xMax="1034" yMax="1829">
      <component glyphName="A" x="0" y="0" flags="0x204"/>
      <component glyphName="dieresis" x="276" y="770" flags="0x4"/>
    </TTGlyph>
    <TTGlyph name="Agrave" xMin="-373" yMin="-249" xMax="953" yMax="1935">
      <component glyphName="A" x="0" y="0" flags="0x204"/>
      <component glyphName="grave" x="279" y="770" flags="0x4"/>
    </TTGlyph>
    <TTGlyph name="Amacron" xMin="-373" yMin="-249" xMax="1098" yMax="1841">
      <component glyphName="A" x="0" y="0" flags="0x204"/>
      <component glyphName="macron" x="307" y="770" flags="0x4"/>
    </TTGlyph>
    <TTGlyph name="Aogonek" xMin="-373" yMin="-610" xMax="799" yMax="1554">
      <contour>
        <pt x="39" y="334" on="1"/>
        <pt x="666" y="1536" on="1"/>
        <pt x="669" y="1542" on="0"/>
        <pt x="677" y="1549" on="0"/>
        <pt x="682" y="1552" on="1"/>
        <pt x="688" y="1554" on="0"/>
        <pt x="698" y="1552" on="0"/>
        <pt x="705" y="1550" on="1"/>
        <pt x="799" y="1526" on="1"/>
        <pt x="580" y="-125" on="1"/>
        <pt x="622" y="-120" on="0"/>
        <pt x="691" y="-117" on="0"/>
        <pt x="711" y="-117" on="1"/>
        <pt x="741" y="-117" on="0"/>
        <pt x="770" y="-124" on="0"/>
        <pt x="777" y="-136" on="0"/>
        <pt x="768" y="-153" on="0"/>
        <pt x="760" y="-164" on="1"/>
        <pt x="751" y="-173" on="0"/>
        <pt x="742" y="-188" on="0"/>
        <pt x="728" y="-201" on="0"/>
        <pt x="702" y="-211" on="0"/>
        <pt x="676" y="-215" on="1"/>
        <pt x="610" y="-274" on="0"/>
        <pt x="532" y="-397" on="0"/>
        <pt x="532" y="-453" on="1"/>
        <pt x="532" y="-490" on="0"/>
        <pt x="572" y="-541" on="0"/>
        <pt x="618" y="-541" on="1"/>
        <pt x="641" y="-541" on="0"/>
        <pt x="681" y="-532" on="0"/>
        <pt x="712" y="-520" on="0"/>
        <pt x="734" y="-508" on="0"/>
        <pt x="739" y="-504" on="1"/>
        <pt x="742" y="-501" on="0"/>
        <pt x="750" y="-496" on="0"/>
        <pt x="756" y="-496" on="1"/>
        <pt x="761" y="-496" on="0"/>
        <pt x="768" y="-505" on="0"/>
        <pt x="768" y="-510" on="1"/>
        <pt x="768" y="-520" on="0"/>
        <pt x="729" y="-554" on="0"/>
        <pt x="667" y="-586" on="0"/>
        <pt x="589" y="-610" on="0"/>
        <pt x="551" y="-610" on="1"/>
        <pt x="495" y="-610" on="0"/>
        <pt x="420" y="-556" on="0"/>
        <pt x="420" y="-500" on="1"/>
        <pt x="420" y="-438" on="0"/>
        <pt x="509" y="-302" on="0"/>
        <pt x="596" y="-223" on="1"/>
        <pt x="547" y="-227" on="0"/>
        <pt x="420" y="-234" on="0"/>
        <pt x="300" y="-241" on="0"/>
        <pt x="206" y="-245" on="0"/>
        <pt x="190" y="-246" on="1"/>
        <pt x="148" y="-249" on="0"/>
        <pt x="142" y="-226" on="0"/>
        <pt x="168" y="-197" on="1"/>
        <pt x="189" y="-169" on="0"/>
        <pt x="264" y="-160" on="1"/>
        <pt x="275" y="-158" on="0"/>
        <pt x="329" y="-151" on="0"/>
        <pt x="367" y="-147" on="1"/>
        <pt x="434" y="295" on="1"/>
        <pt x="76" y="262" on="1"/>
        <pt x="-90" y="-57" on="1"/>
        <pt x="-28" y="-49" on="0"/>
        <pt x="28" y="-52" on="0"/>
        <pt x="23" y="-66" on="1"/>
        <pt x="16" y="-81" on="0"/>
        <pt x="-11" y="-121" on="0"/>
        <pt x="-37" y="-135" on="1"/>
        <pt x="-46" y="-139" on="0"/>
        <pt x="-94" y="-147" on="0"/>
        <pt x="-158" y="-154" on="0"/>
        <pt x="-229" y="-159" on="0"/>
        <pt x="-292" y="-164" on="0"/>
        <pt x="-340" y="-167" on="0"/>
        <pt x="-348" y="-168" on="1"/>
        <pt x="-373" y="-170" on="0"/>
        <pt x="-363" y="-137" on="0"/>
        <pt x="-332" y="-113" on="1"/>
        <pt x="-327" y="-109" on="0"/>
        <pt x="-312" y="-99" on="0"/>
        <pt x="-278" y="-87" on="0"/>
        <pt x="-220" y="-75" on="0"/>
        <pt x="-172" y="-68" on="1"/>
        <pt x="-2" y="256" on="1"/>
        <pt x="-117" y="246" on="1"/>
        <pt x="-124" y="246" on="0"/>
        <pt x="-127" y="252" on="1"/>
        <pt x="-131" y="260" on="0"/>
        <pt x="-125" y="266" on="1"/>
        <pt x="-117" y="281" on="1"/>
        <pt x="-95" y="316" on="0"/>
        <pt x="-55" y="324" on="1"/>
      </contour>
      <contour>
        <pt x="446" y="385" on="1"/>
        <pt x="571" y="1223" on="1"/>
        <pt x="119" y="344" on="1"/>
      </contour>
    </TTGlyph>
    <TTGlyph name="Aring" xMin="-373" yMin="-249" xMax="1041" yMax="2003">
      <component glyphName="A" x="0" y="0" flags="0x204"/>
      <component glyphName="ring" x="328" y="770" flags="0x4"/>
    </TTGlyph>
    <TTGlyph name="Atilde" xMin="-373" yMin="-249" xMax="1116" yMax="1892">
      <component glyphName="A" x="0" y="0" flags="0x204"/>
      <component glyphName="tilde" x="276" y="770" flags="0x4"/>
    </TTGlyph>
    <TTGlyph name="B" xMin="-123" yMin="-211" xMax="1298" yMax="1561">
      <contour>
        <pt x="791" y="1397" on="1"/>
        <pt x="793" y="1397" on="0"/>
        <pt x="807" y="1396" on="0"/>
        <pt x="822" y="1392" on="0"/>
        <pt x="834" y="1386" on="0"/>
        <pt x="834" y="1380" on="1"/>
        <pt x="834" y="1372" on="0"/>
        <pt x="819" y="1337" on="0"/>
        <pt x="796" y="1287" on="0"/>
        <pt x="767" y="1224" on="0"/>
        <pt x="752" y="1190" on="1"/>
        <pt x="682" y="1031" on="0"/>
        <pt x="552" y="717" on="0"/>
        <pt x="487" y="555" on="1"/>
        <pt x="582" y="559" on="0"/>
        <pt x="743" y="626" on="0"/>
        <pt x="875" y="735" on="0"/>
        <pt x="976" y="875" on="0"/>
        <pt x="1044" y="1030" on="0"/>
        <pt x="1079" y="1190" on="0"/>
        <pt x="1079" y="1264" on="1"/>
        <pt x="1079" y="1317" on="0"/>
        <pt x="1048" y="1402" on="0"/>
        <pt x="990" y="1462" on="0"/>
        <pt x="909" y="1495" on="0"/>
        <pt x="858" y="1495" on="1"/>
        <pt x="732" y="1495" on="0"/>
        <pt x="523" y="1411" on="0"/>
        <pt x="374" y="1260" on="0"/>
        <pt x="291" y="1048" on="0"/>
        <pt x="291" y="920" on="1"/>
        <pt x="291" y="903" on="0"/>
        <pt x="275" y="877" on="0"/>
        <pt x="256" y="877" on="1"/>
        <pt x="243" y="877" on="0"/>
        <pt x="201" y="898" on="0"/>
        <pt x="160" y="933" on="0"/>
        <pt x="131" y="980" on="0"/>
        <pt x="131" y="1006" on="1"/>
        <pt x="131" y="1077" on="0"/>
        <pt x="195" y="1214" on="0"/>
        <pt x="304" y="1338" on="0"/>
        <pt x="450" y="1442" on="0"/>
        <pt x="613" y="1518" on="0"/>
        <pt x="786" y="1561" on="0"/>
        <pt x="868" y="1561" on="1"/>
        <pt x="975" y="1561" on="0"/>
        <pt x="1136" y="1506" on="0"/>
        <pt x="1244" y="1408" on="0"/>
        <pt x="1298" y="1273" on="0"/>
        <pt x="1298" y="1192" on="1"/>
        <pt x="1298" y="1115" on="0"/>
        <pt x="1250" y="970" on="0"/>
        <pt x="1167" y="840" on="0"/>
        <pt x="1053" y="726" on="0"/>
        <pt x="920" y="631" on="0"/>
        <pt x="774" y="559" on="0"/>
        <pt x="700" y="535" on="1"/>
        <pt x="742" y="526" on="0"/>
        <pt x="821" y="485" on="0"/>
        <pt x="882" y="424" on="0"/>
        <pt x="918" y="343" on="0"/>
        <pt x="918" y="295" on="1"/>
        <pt x="918" y="196" on="0"/>
        <pt x="848" y="44" on="0"/>
        <pt x="732" y="-68" on="0"/>
        <pt x="580" y="-144" on="0"/>
        <pt x="415" y="-191" on="0"/>
        <pt x="249" y="-211" on="0"/>
        <pt x="176" y="-211" on="1"/>
        <pt x="138" y="-211" on="0"/>
        <pt x="70" y="-209" on="0"/>
        <pt x="4" y="-204" on="0"/>
        <pt x="-61" y="-194" on="0"/>
        <pt x="-96" y="-186" on="1"/>
        <pt x="-107" y="-183" on="0"/>
        <pt x="-123" y="-169" on="0"/>
        <pt x="-121" y="-158" on="1"/>
        <pt x="-118" y="-139" on="0"/>
        <pt x="-93" y="-116" on="0"/>
        <pt x="-66" y="-121" on="1"/>
        <pt x="-55" y="-123" on="0"/>
        <pt x="-17" y="-128" on="0"/>
        <pt x="6" y="-131" on="1"/>
        <pt x="83" y="43" on="0"/>
        <pt x="226" y="385" on="0"/>
        <pt x="355" y="698" on="0"/>
        <pt x="466" y="972" on="0"/>
        <pt x="554" y="1186" on="0"/>
        <pt x="618" y="1329" on="0"/>
        <pt x="635" y="1354" on="1"/>
        <pt x="641" y="1362" on="0"/>
        <pt x="678" y="1378" on="0"/>
        <pt x="724" y="1390" on="0"/>
        <pt x="773" y="1397" on="0"/>
      </contour>
      <contour>
        <pt x="702" y="301" on="1"/>
        <pt x="702" y="351" on="0"/>
        <pt x="666" y="425" on="0"/>
        <pt x="603" y="475" on="0"/>
        <pt x="516" y="500" on="0"/>
        <pt x="465" y="502" on="1"/>
        <pt x="403" y="343" on="0"/>
        <pt x="284" y="21" on="0"/>
        <pt x="225" y="-150" on="1"/>
        <pt x="322" y="-147" on="0"/>
        <pt x="496" y="-86" on="0"/>
        <pt x="626" y="27" on="0"/>
        <pt x="702" y="193" on="0"/>
      </contour>
    </TTGlyph>
    <TTGlyph name="C" xMin="-51" yMin="-231" xMax="1128" yMax="1538">
      <contour>
        <pt x="188" y="88" on="1"/>
        <pt x="188" y="51" on="0"/>
        <pt x="198" y="-12" on="0"/>
        <pt x="226" y="-59" on="0"/>
        <pt x="273" y="-86" on="0"/>
        <pt x="311" y="-86" on="1"/>
        <pt x="357" y="-86" on="0"/>
        <pt x="448" y="-21" on="0"/>
        <pt x="531" y="76" on="0"/>
        <pt x="606" y="190" on="0"/>
        <pt x="666" y="287" on="0"/>
        <pt x="710" y="352" on="0"/>
        <pt x="721" y="352" on="1"/>
        <pt x="726" y="352" on="0"/>
        <pt x="742" y="347" on="0"/>
        <pt x="754" y="337" on="0"/>
        <pt x="758" y="319" on="0"/>
        <pt x="752" y="307" on="1"/>
        <pt x="723" y="250" on="0"/>
        <pt x="652" y="126" on="0"/>
        <pt x="570" y="7" on="0"/>
        <pt x="478" y="-101" on="0"/>
        <pt x="378" y="-183" on="0"/>
        <pt x="271" y="-231" on="0"/>
        <pt x="215" y="-231" on="1"/>
        <pt x="155" y="-231" on="0"/>
        <pt x="57" y="-191" on="0"/>
        <pt x="-13" y="-109" on="0"/>
        <pt x="-51" y="19" on="0"/>
        <pt x="-51" y="106" on="1"/>
        <pt x="-51" y="221" on="0"/>
        <pt x="7" y="465" on="0"/>
        <pt x="109" y="710" on="0"/>
        <pt x="245" y="946" on="0"/>
        <pt x="402" y="1157" on="0"/>
        <pt x="571" y="1335" on="0"/>
        <pt x="737" y="1465" on="0"/>
        <pt x="893" y="1538" on="0"/>
        <pt x="958" y="1538" on="1"/>
        <pt x="1008" y="1538" on="0"/>
        <pt x="1074" y="1509" on="0"/>
        <pt x="1113" y="1463" on="0"/>
        <pt x="1128" y="1404" on="0"/>
        <pt x="1128" y="1374" on="1"/>
        <pt x="1128" y="1321" on="0"/>
        <pt x="1099" y="1230" on="0"/>
        <pt x="1053" y="1157" on="0"/>
        <pt x="997" y="1101" on="0"/>
        <pt x="943" y="1063" on="0"/>
        <pt x="896" y="1044" on="0"/>
        <pt x="883" y="1044" on="1"/>
        <pt x="869" y="1044" on="0"/>
        <pt x="858" y="1050" on="0"/>
        <pt x="858" y="1067" on="1"/>
        <pt x="862" y="1097" on="0"/>
        <pt x="898" y="1156" on="0"/>
        <pt x="938" y="1224" on="0"/>
        <pt x="969" y="1308" on="0"/>
        <pt x="969" y="1362" on="1"/>
        <pt x="969" y="1376" on="0"/>
        <pt x="964" y="1407" on="0"/>
        <pt x="953" y="1433" on="0"/>
        <pt x="933" y="1450" on="0"/>
        <pt x="918" y="1450" on="1"/>
        <pt x="875" y="1450" on="0"/>
        <pt x="767" y="1376" on="0"/>
        <pt x="648" y="1245" on="0"/>
        <pt x="525" y="1068" on="0"/>
        <pt x="410" y="862" on="0"/>
        <pt x="308" y="635" on="0"/>
        <pt x="232" y="407" on="0"/>
        <pt x="188" y="186" on="0"/>
      </contour>
    </TTGlyph>
    <TTGlyph name="Cacute" xMin="-51" yMin="-231" xMax="1260" yMax="1944">
      <component glyphName="C" x="0" y="0" flags="0x204"/>
      <component glyphName="acute" x="539" y="768" flags="0x4"/>
    </TTGlyph>
    <TTGlyph name="Ccaron" xMin="-51" yMin="-231" xMax="1303" yMax="1939">
      <component glyphName="C" x="0" y="0" flags="0x204"/>
      <component glyphName="caron" x="465" y="768" flags="0x4"/>
    </TTGlyph>
    <TTGlyph name="Ccedilla" xMin="-106" yMin="-643" xMax="1128" yMax="1538">
      <contour>
        <pt x="92" y="-643" on="1"/>
        <pt x="51" y="-643" on="0"/>
        <pt x="-21" y="-627" on="0"/>
        <pt x="-75" y="-605" on="0"/>
        <pt x="-106" y="-579" on="0"/>
        <pt x="-106" y="-569" on="1"/>
        <pt x="-106" y="-560" on="0"/>
        <pt x="-92" y="-541" on="0"/>
        <pt x="-84" y="-541" on="1"/>
        <pt x="-76" y="-541" on="0"/>
        <pt x="-56" y="-555" on="0"/>
        <pt x="-21" y="-572" on="0"/>
        <pt x="32" y="-586" on="0"/>
        <pt x="72" y="-586" on="1"/>
        <pt x="109" y="-586" on="0"/>
        <pt x="168" y="-566" on="0"/>
        <pt x="210" y="-533" on="0"/>
        <pt x="233" y="-489" on="0"/>
        <pt x="233" y="-465" on="1"/>
        <pt x="233" y="-434" on="0"/>
        <pt x="189" y="-383" on="0"/>
        <pt x="137" y="-383" on="1"/>
        <pt x="114" y="-383" on="0"/>
        <pt x="72" y="-393" on="0"/>
        <pt x="61" y="-393" on="1"/>
        <pt x="51" y="-393" on="0"/>
        <pt x="51" y="-381" on="1"/>
        <pt x="51" y="-379" on="0"/>
        <pt x="74" y="-340" on="0"/>
        <pt x="106" y="-289" on="0"/>
        <pt x="140" y="-239" on="0"/>
        <pt x="150" y="-225" on="1"/>
        <pt x="58" y="-206" on="0"/>
        <pt x="-51" y="-44" on="0"/>
        <pt x="-51" y="106" on="1"/>
        <pt x="-51" y="221" on="0"/>
        <pt x="7" y="465" on="0"/>
        <pt x="109" y="710" on="0"/>
        <pt x="245" y="946" on="0"/>
        <pt x="402" y="1157" on="0"/>
        <pt x="571" y="1335" on="0"/>
        <pt x="737" y="1465" on="0"/>
        <pt x="893" y="1538" on="0"/>
        <pt x="958" y="1538" on="1"/>
        <pt x="1008" y="1538" on="0"/>
        <pt x="1074" y="1509" on="0"/>
        <pt x="1113" y="1463" on="0"/>
        <pt x="1128" y="1404" on="0"/>
        <pt x="1128" y="1374" on="1"/>
        <pt x="1128" y="1321" on="0"/>
        <pt x="1099" y="1230" on="0"/>
        <pt x="1053" y="1157" on="0"/>
        <pt x="997" y="1101" on="0"/>
        <pt x="943" y="1063" on="0"/>
        <pt x="896" y="1044" on="0"/>
        <pt x="883" y="1044" on="1"/>
        <pt x="869" y="1044" on="0"/>
        <pt x="858" y="1050" on="0"/>
        <pt x="858" y="1067" on="1"/>
        <pt x="862" y="1097" on="0"/>
        <pt x="898" y="1156" on="0"/>
        <pt x="938" y="1224" on="0"/>
        <pt x="969" y="1308" on="0"/>
        <pt x="969" y="1362" on="1"/>
        <pt x="969" y="1376" on="0"/>
        <pt x="964" y="1407" on="0"/>
        <pt x="953" y="1433" on="0"/>
        <pt x="933" y="1450" on="0"/>
        <pt x="918" y="1450" on="1"/>
        <pt x="875" y="1450" on="0"/>
        <pt x="767" y="1376" on="0"/>
        <pt x="648" y="1245" on="0"/>
        <pt x="525" y="1068" on="0"/>
        <pt x="410" y="862" on="0"/>
        <pt x="308" y="635" on="0"/>
        <pt x="232" y="407" on="0"/>
        <pt x="188" y="186" on="0"/>
        <pt x="188" y="88" on="1"/>
        <pt x="188" y="51" on="0"/>
        <pt x="198" y="-12" on="0"/>
        <pt x="226" y="-59" on="0"/>
        <pt x="273" y="-86" on="0"/>
        <pt x="311" y="-86" on="1"/>
        <pt x="357" y="-86" on="0"/>
        <pt x="448" y="-21" on="0"/>
        <pt x="531" y="76" on="0"/>
        <pt x="606" y="190" on="0"/>
        <pt x="666" y="287" on="0"/>
        <pt x="710" y="352" on="0"/>
        <pt x="721" y="352" on="1"/>
        <pt x="726" y="352" on="0"/>
        <pt x="742" y="347" on="0"/>
        <pt x="754" y="337" on="0"/>
        <pt x="758" y="319" on="0"/>
        <pt x="752" y="307" on="1"/>
        <pt x="723" y="250" on="0"/>
        <pt x="652" y="126" on="0"/>
        <pt x="570" y="7" on="0"/>
        <pt x="478" y="-101" on="0"/>
        <pt x="378" y="-183" on="0"/>
        <pt x="271" y="-231" on="0"/>
        <pt x="215" y="-231" on="1"/>
        <pt x="199" y="-231" on="1"/>
        <pt x="190" y="-243" on="0"/>
        <pt x="165" y="-276" on="0"/>
        <pt x="140" y="-310" on="0"/>
        <pt x="120" y="-339" on="0"/>
        <pt x="117" y="-346" on="1"/>
        <pt x="125" y="-344" on="0"/>
        <pt x="155" y="-340" on="0"/>
        <pt x="166" y="-340" on="1"/>
        <pt x="253" y="-340" on="0"/>
        <pt x="352" y="-405" on="0"/>
        <pt x="352" y="-465" on="1"/>
        <pt x="352" y="-516" on="0"/>
        <pt x="301" y="-585" on="0"/>
        <pt x="223" y="-626" on="0"/>
        <pt x="132" y="-643" on="0"/>
      </contour>
    </TTGlyph>
    <TTGlyph name="Ccircumflex" xMin="-51" yMin="-231" xMax="1235" yMax="1942">
      <component glyphName="C" x="0" y="0" flags="0x204"/>
      <component glyphName="circumflex" x="500" y="768" flags="0x4"/>
    </TTGlyph>
    <TTGlyph name="Cdotaccent" xMin="-51" yMin="-231" xMax="1128" yMax="1847">
      <component glyphName="C" x="0" y="0" flags="0x204"/>
      <component glyphName="dotaccent" x="485" y="768" flags="0x4"/>
    </TTGlyph>
    <TTGlyph name="D" xMin="-124" yMin="-209" xMax="1389" yMax="1571">
      <contour>
        <pt x="1389" y="1157" on="1"/>
        <pt x="1389" y="1047" on="0"/>
        <pt x="1329" y="812" on="0"/>
        <pt x="1220" y="579" on="0"/>
        <pt x="1067" y="354" on="0"/>
        <pt x="882" y="153" on="0"/>
        <pt x="669" y="-17" on="0"/>
        <pt x="441" y="-140" on="0"/>
        <pt x="201" y="-209" on="0"/>
        <pt x="82" y="-209" on="1"/>
        <pt x="54" y="-209" on="0"/>
        <pt x="-1" y="-207" on="0"/>
        <pt x="-48" y="-204" on="0"/>
        <pt x="-84" y="-201" on="0"/>
        <pt x="-92" y="-199" on="1"/>
        <pt x="-108" y="-196" on="0"/>
        <pt x="-124" y="-170" on="0"/>
        <pt x="-121" y="-156" on="1"/>
        <pt x="-115" y="-133" on="0"/>
        <pt x="-80" y="-121" on="0"/>
        <pt x="-61" y="-121" on="1"/>
        <pt x="-46" y="-123" on="0"/>
        <pt x="15" y="-127" on="0"/>
        <pt x="57" y="-129" on="1"/>
        <pt x="133" y="51" on="0"/>
        <pt x="275" y="397" on="0"/>
        <pt x="403" y="710" on="0"/>
        <pt x="514" y="980" on="0"/>
        <pt x="603" y="1190" on="0"/>
        <pt x="667" y="1329" on="0"/>
        <pt x="684" y="1354" on="1"/>
        <pt x="690" y="1362" on="0"/>
        <pt x="728" y="1378" on="0"/>
        <pt x="775" y="1390" on="0"/>
        <pt x="824" y="1397" on="0"/>
        <pt x="842" y="1397" on="1"/>
        <pt x="844" y="1397" on="0"/>
        <pt x="858" y="1396" on="0"/>
        <pt x="873" y="1392" on="0"/>
        <pt x="885" y="1386" on="0"/>
        <pt x="885" y="1380" on="1"/>
        <pt x="885" y="1372" on="0"/>
        <pt x="870" y="1337" on="0"/>
        <pt x="847" y="1287" on="0"/>
        <pt x="818" y="1224" on="0"/>
        <pt x="803" y="1190" on="1"/>
        <pt x="735" y="1033" on="0"/>
        <pt x="604" y="719" on="0"/>
        <pt x="475" y="398" on="0"/>
        <pt x="351" y="68" on="0"/>
        <pt x="291" y="-104" on="1"/>
        <pt x="413" y="-68" on="0"/>
        <pt x="637" y="89" on="0"/>
        <pt x="831" y="304" on="0"/>
        <pt x="988" y="562" on="0"/>
        <pt x="1100" y="834" on="0"/>
        <pt x="1161" y="1107" on="0"/>
        <pt x="1161" y="1229" on="1"/>
        <pt x="1161" y="1356" on="0"/>
        <pt x="1035" y="1495" on="0"/>
        <pt x="907" y="1495" on="1"/>
        <pt x="781" y="1495" on="0"/>
        <pt x="573" y="1410" on="0"/>
        <pt x="424" y="1258" on="0"/>
        <pt x="342" y="1046" on="0"/>
        <pt x="342" y="920" on="1"/>
        <pt x="342" y="900" on="0"/>
        <pt x="334" y="872" on="0"/>
        <pt x="317" y="872" on="1"/>
        <pt x="289" y="872" on="0"/>
        <pt x="240" y="892" on="0"/>
        <pt x="203" y="930" on="0"/>
        <pt x="182" y="983" on="0"/>
        <pt x="182" y="1016" on="1"/>
        <pt x="182" y="1091" on="0"/>
        <pt x="246" y="1232" on="0"/>
        <pt x="358" y="1355" on="0"/>
        <pt x="508" y="1457" on="0"/>
        <pt x="679" y="1531" on="0"/>
        <pt x="862" y="1571" on="0"/>
        <pt x="952" y="1571" on="1"/>
        <pt x="1040" y="1571" on="0"/>
        <pt x="1199" y="1523" on="0"/>
        <pt x="1319" y="1422" on="0"/>
        <pt x="1389" y="1265" on="0"/>
      </contour>
    </TTGlyph>
    <TTGlyph name="Dcaron" xMin="-124" yMin="-209" xMax="1389" yMax="1968">
      <component glyphName="D" x="0" y="0" flags="0x204"/>
      <component glyphName="caron" x="455" y="797" flags="0x4"/>
    </TTGlyph>
    <TTGlyph name="Dcroat" xMin="-124" yMin="-209" xMax="1389" yMax="1571">
      <contour>
        <pt x="336" y="545" on="1"/>
        <pt x="400" y="703" on="0"/>
        <pt x="513" y="976" on="0"/>
        <pt x="603" y="1188" on="0"/>
        <pt x="667" y="1328" on="0"/>
        <pt x="684" y="1354" on="1"/>
        <pt x="690" y="1362" on="0"/>
        <pt x="728" y="1378" on="0"/>
        <pt x="775" y="1390" on="0"/>
        <pt x="824" y="1397" on="0"/>
        <pt x="842" y="1397" on="1"/>
        <pt x="844" y="1397" on="0"/>
        <pt x="858" y="1396" on="0"/>
        <pt x="873" y="1392" on="0"/>
        <pt x="885" y="1386" on="0"/>
        <pt x="885" y="1380" on="1"/>
        <pt x="885" y="1372" on="0"/>
        <pt x="870" y="1337" on="0"/>
        <pt x="847" y="1287" on="0"/>
        <pt x="818" y="1224" on="0"/>
        <pt x="803" y="1190" on="1"/>
        <pt x="737" y="1035" on="0"/>
        <pt x="608" y="729" on="0"/>
        <pt x="545" y="571" on="1"/>
        <pt x="758" y="598" on="1"/>
        <pt x="781" y="599" on="0"/>
        <pt x="797" y="583" on="0"/>
        <pt x="793" y="557" on="0"/>
        <pt x="773" y="528" on="0"/>
        <pt x="747" y="502" on="0"/>
        <pt x="719" y="486" on="0"/>
        <pt x="709" y="487" on="1"/>
        <pt x="659" y="484" on="0"/>
        <pt x="559" y="480" on="0"/>
        <pt x="508" y="477" on="1"/>
        <pt x="452" y="335" on="0"/>
        <pt x="343" y="47" on="0"/>
        <pt x="291" y="-104" on="1"/>
        <pt x="413" y="-68" on="0"/>
        <pt x="637" y="89" on="0"/>
        <pt x="831" y="304" on="0"/>
        <pt x="988" y="562" on="0"/>
        <pt x="1100" y="834" on="0"/>
        <pt x="1161" y="1107" on="0"/>
        <pt x="1161" y="1229" on="1"/>
        <pt x="1161" y="1356" on="0"/>
        <pt x="1035" y="1495" on="0"/>
        <pt x="907" y="1495" on="1"/>
        <pt x="781" y="1495" on="0"/>
        <pt x="573" y="1410" on="0"/>
        <pt x="424" y="1258" on="0"/>
        <pt x="342" y="1046" on="0"/>
        <pt x="342" y="920" on="1"/>
        <pt x="342" y="900" on="0"/>
        <pt x="334" y="872" on="0"/>
        <pt x="317" y="872" on="1"/>
        <pt x="289" y="872" on="0"/>
        <pt x="240" y="892" on="0"/>
        <pt x="203" y="930" on="0"/>
        <pt x="182" y="983" on="0"/>
        <pt x="182" y="1016" on="1"/>
        <pt x="182" y="1091" on="0"/>
        <pt x="246" y="1232" on="0"/>
        <pt x="358" y="1355" on="0"/>
        <pt x="508" y="1457" on="0"/>
        <pt x="679" y="1531" on="0"/>
        <pt x="862" y="1571" on="0"/>
        <pt x="952" y="1571" on="1"/>
        <pt x="1040" y="1571" on="0"/>
        <pt x="1199" y="1523" on="0"/>
        <pt x="1319" y="1422" on="0"/>
        <pt x="1389" y="1265" on="0"/>
        <pt x="1389" y="1157" on="1"/>
        <pt x="1389" y="1047" on="0"/>
        <pt x="1329" y="812" on="0"/>
        <pt x="1220" y="579" on="0"/>
        <pt x="1067" y="354" on="0"/>
        <pt x="882" y="153" on="0"/>
        <pt x="669" y="-17" on="0"/>
        <pt x="441" y="-140" on="0"/>
        <pt x="201" y="-209" on="0"/>
        <pt x="82" y="-209" on="1"/>
        <pt x="54" y="-209" on="0"/>
        <pt x="-1" y="-207" on="0"/>
        <pt x="-48" y="-204" on="0"/>
        <pt x="-84" y="-201" on="0"/>
        <pt x="-92" y="-199" on="1"/>
        <pt x="-108" y="-196" on="0"/>
        <pt x="-124" y="-170" on="0"/>
        <pt x="-121" y="-156" on="1"/>
        <pt x="-115" y="-133" on="0"/>
        <pt x="-80" y="-121" on="0"/>
        <pt x="-61" y="-121" on="1"/>
        <pt x="-46" y="-123" on="0"/>
        <pt x="15" y="-127" on="0"/>
        <pt x="57" y="-129" on="1"/>
        <pt x="122" y="26" on="0"/>
        <pt x="244" y="321" on="0"/>
        <pt x="301" y="461" on="1"/>
        <pt x="261" y="458" on="0"/>
        <pt x="195" y="452" on="0"/>
        <pt x="171" y="450" on="1"/>
        <pt x="143" y="447" on="0"/>
        <pt x="121" y="446" on="1"/>
        <pt x="111" y="446" on="0"/>
        <pt x="111" y="455" on="1"/>
        <pt x="109" y="458" on="0"/>
        <pt x="117" y="468" on="0"/>
        <pt x="123" y="473" on="1"/>
        <pt x="135" y="502" on="1"/>
        <pt x="155" y="519" on="0"/>
        <pt x="187" y="526" on="0"/>
        <pt x="209" y="528" on="1"/>
      </contour>
    </TTGlyph>
    <TTGlyph name="E" xMin="-115" yMin="-231" xMax="1092" yMax="1581">
      <contour>
        <pt x="156" y="-231" on="1"/>
        <pt x="97" y="-231" on="0"/>
        <pt x="-3" y="-194" on="0"/>
        <pt x="-75" y="-123" on="0"/>
        <pt x="-115" y="-22" on="0"/>
        <pt x="-115" y="43" on="1"/>
        <pt x="-115" y="142" on="0"/>
        <pt x="-36" y="333" on="0"/>
        <pt x="100" y="496" on="0"/>
        <pt x="281" y="622" on="0"/>
        <pt x="383" y="657" on="1"/>
        <pt x="351" y="670" on="0"/>
        <pt x="295" y="714" on="0"/>
        <pt x="254" y="773" on="0"/>
        <pt x="231" y="847" on="0"/>
        <pt x="231" y="891" on="1"/>
        <pt x="231" y="972" on="0"/>
        <pt x="280" y="1138" on="0"/>
        <pt x="366" y="1291" on="0"/>
        <pt x="484" y="1425" on="0"/>
        <pt x="623" y="1524" on="0"/>
        <pt x="777" y="1581" on="0"/>
        <pt x="856" y="1581" on="1"/>
        <pt x="900" y="1581" on="0"/>
        <pt x="985" y="1562" on="0"/>
        <pt x="1051" y="1513" on="0"/>
        <pt x="1092" y="1428" on="0"/>
        <pt x="1092" y="1362" on="1"/>
        <pt x="1092" y="1311" on="0"/>
        <pt x="1048" y="1217" on="0"/>
        <pt x="979" y="1144" on="0"/>
        <pt x="895" y="1100" on="0"/>
        <pt x="856" y="1100" on="1"/>
        <pt x="850" y="1100" on="0"/>
        <pt x="838" y="1111" on="0"/>
        <pt x="838" y="1120" on="1"/>
        <pt x="838" y="1137" on="0"/>
        <pt x="858" y="1186" on="0"/>
        <pt x="883" y="1247" on="0"/>
        <pt x="903" y="1317" on="0"/>
        <pt x="903" y="1354" on="1"/>
        <pt x="903" y="1419" on="0"/>
        <pt x="844" y="1497" on="0"/>
        <pt x="788" y="1497" on="1"/>
        <pt x="733" y="1497" on="0"/>
        <pt x="639" y="1437" on="0"/>
        <pt x="563" y="1340" on="0"/>
        <pt x="505" y="1220" on="0"/>
        <pt x="466" y="1099" on="0"/>
        <pt x="446" y="989" on="0"/>
        <pt x="446" y="952" on="1"/>
        <pt x="446" y="892" on="0"/>
        <pt x="466" y="809" on="0"/>
        <pt x="496" y="754" on="0"/>
        <pt x="530" y="720" on="0"/>
        <pt x="560" y="699" on="0"/>
        <pt x="580" y="686" on="0"/>
        <pt x="580" y="678" on="1"/>
        <pt x="580" y="658" on="0"/>
        <pt x="555" y="626" on="0"/>
        <pt x="532" y="623" on="1"/>
        <pt x="440" y="597" on="0"/>
        <pt x="288" y="485" on="0"/>
        <pt x="179" y="333" on="0"/>
        <pt x="119" y="154" on="0"/>
        <pt x="119" y="63" on="1"/>
        <pt x="119" y="21" on="0"/>
        <pt x="142" y="-37" on="0"/>
        <pt x="180" y="-72" on="0"/>
        <pt x="231" y="-88" on="0"/>
        <pt x="260" y="-88" on="1"/>
        <pt x="321" y="-88" on="0"/>
        <pt x="415" y="-40" on="0"/>
        <pt x="486" y="31" on="0"/>
        <pt x="538" y="114" on="0"/>
        <pt x="576" y="185" on="0"/>
        <pt x="604" y="233" on="0"/>
        <pt x="616" y="233" on="1"/>
        <pt x="626" y="233" on="0"/>
        <pt x="651" y="220" on="0"/>
        <pt x="651" y="205" on="1"/>
        <pt x="651" y="202" on="0"/>
        <pt x="649" y="193" on="0"/>
        <pt x="647" y="188" on="1"/>
        <pt x="609" y="107" on="0"/>
        <pt x="515" y="-44" on="0"/>
        <pt x="397" y="-161" on="0"/>
        <pt x="249" y="-231" on="0"/>
      </contour>
    </TTGlyph>
    <TTGlyph name="Eacute" xMin="-115" yMin="-231" xMax="1172" yMax="1981">
      <component glyphName="E" x="0" y="0" flags="0x204"/>
      <component glyphName="acute" x="451" y="805" flags="0x4"/>
    </TTGlyph>
    <TTGlyph name="Ebreve" xMin="-115" yMin="-231" xMax="1219" yMax="1968">
      <component glyphName="E" x="0" y="0" flags="0x204"/>
      <component glyphName="breve" x="416" y="805" flags="0x4"/>
    </TTGlyph>
    <TTGlyph name="Ecaron" xMin="-115" yMin="-231" xMax="1215" yMax="1976">
      <component glyphName="E" x="0" y="0" flags="0x204"/>
      <component glyphName="caron" x="377" y="805" flags="0x4"/>
    </TTGlyph>
    <TTGlyph name="Ecircumflex" xMin="-115" yMin="-231" xMax="1147" yMax="1979">
      <component glyphName="E" x="0" y="0" flags="0x204"/>
      <component glyphName="circumflex" x="412" y="805" flags="0x4"/>
    </TTGlyph>
    <TTGlyph name="Edieresis" xMin="-115" yMin="-231" xMax="1133" yMax="1864">
      <component glyphName="E" x="0" y="0" flags="0x204"/>
      <component glyphName="dieresis" x="375" y="805" flags="0x4"/>
    </TTGlyph>
    <TTGlyph name="Edotaccent" xMin="-115" yMin="-231" xMax="1092" yMax="1884">
      <component glyphName="E" x="0" y="0" flags="0x204"/>
      <component glyphName="dotaccent" x="397" y="805" flags="0x4"/>
    </TTGlyph>
    <TTGlyph name="Egrave" xMin="-115" yMin="-231" xMax="1092" yMax="1970">
      <component glyphName="E" x="0" y="0" flags="0x204"/>
      <component glyphName="grave" x="377" y="805" flags="0x4"/>
    </TTGlyph>
    <TTGlyph name="Emacron" xMin="-115" yMin="-231" xMax="1197" yMax="1876">
      <component glyphName="E" x="0" y="0" flags="0x204"/>
      <component glyphName="macron" x="406" y="805" flags="0x4"/>
    </TTGlyph>
    <TTGlyph name="Eng" xMin="-317" yMin="-612" xMax="1649" yMax="1743">
      <contour>
        <pt x="152" y="-25" on="1"/>
        <pt x="157" y="-29" on="0"/>
        <pt x="149" y="-41" on="0"/>
        <pt x="133" y="-55" on="0"/>
        <pt x="117" y="-69" on="0"/>
        <pt x="115" y="-74" on="1"/>
        <pt x="112" y="-79" on="0"/>
        <pt x="106" y="-84" on="1"/>
        <pt x="101" y="-89" on="0"/>
        <pt x="82" y="-103" on="0"/>
        <pt x="68" y="-111" on="1"/>
        <pt x="51" y="-118" on="0"/>
        <pt x="9" y="-126" on="0"/>
        <pt x="-10" y="-128" on="1"/>
        <pt x="-32" y="-131" on="0"/>
        <pt x="-55" y="-131" on="1"/>
        <pt x="-86" y="-133" on="0"/>
        <pt x="-171" y="-137" on="0"/>
        <pt x="-249" y="-140" on="0"/>
        <pt x="-307" y="-139" on="0"/>
        <pt x="-311" y="-135" on="1"/>
        <pt x="-317" y="-127" on="0"/>
        <pt x="-316" y="-105" on="0"/>
        <pt x="-291" y="-92" on="1"/>
        <pt x="-275" y="-81" on="0"/>
        <pt x="-242" y="-51" on="0"/>
        <pt x="-219" y="-51" on="1"/>
        <pt x="-211" y="-51" on="0"/>
        <pt x="-159" y="-46" on="0"/>
        <pt x="-121" y="-41" on="1"/>
        <pt x="-63" y="97" on="0"/>
        <pt x="50" y="367" on="0"/>
        <pt x="155" y="622" on="0"/>
        <pt x="252" y="856" on="0"/>
        <pt x="293" y="957" on="1"/>
        <pt x="390" y="1194" on="0"/>
        <pt x="475" y="1403" on="1"/>
        <pt x="450" y="1400" on="0"/>
        <pt x="395" y="1393" on="0"/>
        <pt x="347" y="1388" on="0"/>
        <pt x="314" y="1388" on="0"/>
        <pt x="311" y="1391" on="1"/>
        <pt x="305" y="1398" on="0"/>
        <pt x="307" y="1411" on="0"/>
        <pt x="324" y="1434" on="1"/>
        <pt x="335" y="1449" on="0"/>
        <pt x="380" y="1475" on="0"/>
        <pt x="403" y="1475" on="1"/>
        <pt x="416" y="1475" on="0"/>
        <pt x="509" y="1497" on="0"/>
        <pt x="575" y="1503" on="1"/>
        <pt x="604" y="1503" on="0"/>
        <pt x="644" y="1499" on="0"/>
        <pt x="653" y="1487" on="1"/>
        <pt x="667" y="1470" on="0"/>
        <pt x="698" y="1428" on="0"/>
        <pt x="698" y="1391" on="1"/>
        <pt x="616" y="393" on="1"/>
        <pt x="693" y="580" on="0"/>
        <pt x="837" y="925" on="0"/>
        <pt x="981" y="1225" on="0"/>
        <pt x="1131" y="1472" on="0"/>
        <pt x="1297" y="1647" on="0"/>
        <pt x="1485" y="1743" on="0"/>
        <pt x="1595" y="1743" on="1"/>
        <pt x="1621" y="1743" on="0"/>
        <pt x="1649" y="1710" on="0"/>
        <pt x="1649" y="1686" on="1"/>
        <pt x="1649" y="1669" on="0"/>
        <pt x="1642" y="1622" on="0"/>
        <pt x="1628" y="1579" on="0"/>
        <pt x="1608" y="1548" on="0"/>
        <pt x="1595" y="1548" on="1"/>
        <pt x="1584" y="1548" on="0"/>
        <pt x="1571" y="1558" on="0"/>
        <pt x="1556" y="1569" on="0"/>
        <pt x="1536" y="1579" on="0"/>
        <pt x="1518" y="1579" on="1"/>
        <pt x="1428" y="1579" on="0"/>
        <pt x="1283" y="1521" on="0"/>
        <pt x="1155" y="1400" on="0"/>
        <pt x="1039" y="1214" on="0"/>
        <pt x="918" y="958" on="0"/>
        <pt x="785" y="629" on="0"/>
        <pt x="705" y="426" on="1"/>
        <pt x="653" y="280" on="0"/>
        <pt x="548" y="13" on="0"/>
        <pt x="439" y="-218" on="0"/>
        <pt x="322" y="-406" on="0"/>
        <pt x="191" y="-539" on="0"/>
        <pt x="46" y="-612" on="0"/>
        <pt x="-37" y="-612" on="1"/>
        <pt x="-89" y="-612" on="0"/>
        <pt x="-182" y="-575" on="0"/>
        <pt x="-251" y="-520" on="0"/>
        <pt x="-291" y="-458" on="0"/>
        <pt x="-291" y="-432" on="1"/>
        <pt x="-291" y="-414" on="0"/>
        <pt x="-276" y="-393" on="0"/>
        <pt x="-262" y="-393" on="1"/>
        <pt x="-249" y="-393" on="0"/>
        <pt x="-232" y="-408" on="0"/>
        <pt x="-214" y="-431" on="0"/>
        <pt x="-191" y="-458" on="0"/>
        <pt x="-152" y="-481" on="0"/>
        <pt x="-94" y="-496" on="0"/>
        <pt x="-49" y="-496" on="1"/>
        <pt x="16" y="-496" on="0"/>
        <pt x="134" y="-454" on="0"/>
        <pt x="247" y="-360" on="0"/>
        <pt x="359" y="-206" on="0"/>
        <pt x="418" y="-94" on="1"/>
        <pt x="418" y="-68" on="0"/>
        <pt x="425" y="64" on="0"/>
        <pt x="437" y="260" on="0"/>
        <pt x="453" y="513" on="0"/>
        <pt x="472" y="809" on="0"/>
        <pt x="494" y="1139" on="0"/>
        <pt x="506" y="1315" on="1"/>
        <pt x="455" y="1186" on="0"/>
        <pt x="355" y="932" on="0"/>
        <pt x="260" y="693" on="0"/>
        <pt x="173" y="475" on="0"/>
        <pt x="135" y="381" on="1"/>
        <pt x="46" y="160" on="0"/>
        <pt x="-33" y="-35" on="1"/>
        <pt x="1" y="-32" on="0"/>
        <pt x="64" y="-26" on="0"/>
        <pt x="115" y="-23" on="0"/>
        <pt x="149" y="-22" on="0"/>
      </contour>
    </TTGlyph>
    <TTGlyph name="Eogonek" xMin="-115" yMin="-557" xMax="1092" yMax="1581">
      <contour>
        <pt x="260" y="-557" on="1"/>
        <pt x="204" y="-557" on="0"/>
        <pt x="129" y="-503" on="0"/>
        <pt x="129" y="-446" on="1"/>
        <pt x="129" y="-344" on="0"/>
        <pt x="254" y="-219" on="1"/>
        <pt x="207" y="-231" on="0"/>
        <pt x="156" y="-231" on="1"/>
        <pt x="97" y="-231" on="0"/>
        <pt x="-3" y="-194" on="0"/>
        <pt x="-75" y="-123" on="0"/>
        <pt x="-115" y="-22" on="0"/>
        <pt x="-115" y="43" on="1"/>
        <pt x="-115" y="142" on="0"/>
        <pt x="-36" y="333" on="0"/>
        <pt x="100" y="496" on="0"/>
        <pt x="281" y="622" on="0"/>
        <pt x="383" y="657" on="1"/>
        <pt x="351" y="670" on="0"/>
        <pt x="295" y="714" on="0"/>
        <pt x="254" y="773" on="0"/>
        <pt x="231" y="847" on="0"/>
        <pt x="231" y="891" on="1"/>
        <pt x="231" y="972" on="0"/>
        <pt x="280" y="1138" on="0"/>
        <pt x="366" y="1291" on="0"/>
        <pt x="484" y="1425" on="0"/>
        <pt x="623" y="1524" on="0"/>
        <pt x="777" y="1581" on="0"/>
        <pt x="856" y="1581" on="1"/>
        <pt x="900" y="1581" on="0"/>
        <pt x="985" y="1562" on="0"/>
        <pt x="1051" y="1513" on="0"/>
        <pt x="1092" y="1428" on="0"/>
        <pt x="1092" y="1362" on="1"/>
        <pt x="1092" y="1311" on="0"/>
        <pt x="1048" y="1217" on="0"/>
        <pt x="979" y="1144" on="0"/>
        <pt x="895" y="1100" on="0"/>
        <pt x="856" y="1100" on="1"/>
        <pt x="850" y="1100" on="0"/>
        <pt x="838" y="1111" on="0"/>
        <pt x="838" y="1120" on="1"/>
        <pt x="838" y="1137" on="0"/>
        <pt x="858" y="1186" on="0"/>
        <pt x="883" y="1247" on="0"/>
        <pt x="903" y="1317" on="0"/>
        <pt x="903" y="1354" on="1"/>
        <pt x="903" y="1419" on="0"/>
        <pt x="844" y="1497" on="0"/>
        <pt x="788" y="1497" on="1"/>
        <pt x="733" y="1497" on="0"/>
        <pt x="639" y="1437" on="0"/>
        <pt x="563" y="1340" on="0"/>
        <pt x="505" y="1220" on="0"/>
        <pt x="466" y="1099" on="0"/>
        <pt x="446" y="989" on="0"/>
        <pt x="446" y="952" on="1"/>
        <pt x="446" y="892" on="0"/>
        <pt x="466" y="809" on="0"/>
        <pt x="496" y="754" on="0"/>
        <pt x="530" y="720" on="0"/>
        <pt x="560" y="699" on="0"/>
        <pt x="580" y="686" on="0"/>
        <pt x="580" y="678" on="1"/>
        <pt x="580" y="658" on="0"/>
        <pt x="555" y="626" on="0"/>
        <pt x="532" y="623" on="1"/>
        <pt x="440" y="597" on="0"/>
        <pt x="288" y="485" on="0"/>
        <pt x="179" y="333" on="0"/>
        <pt x="119" y="154" on="0"/>
        <pt x="119" y="63" on="1"/>
        <pt x="119" y="21" on="0"/>
        <pt x="142" y="-37" on="0"/>
        <pt x="180" y="-72" on="0"/>
        <pt x="231" y="-88" on="0"/>
        <pt x="260" y="-88" on="1"/>
        <pt x="321" y="-88" on="0"/>
        <pt x="415" y="-40" on="0"/>
        <pt x="486" y="31" on="0"/>
        <pt x="538" y="114" on="0"/>
        <pt x="576" y="185" on="0"/>
        <pt x="604" y="233" on="0"/>
        <pt x="616" y="233" on="1"/>
        <pt x="626" y="233" on="0"/>
        <pt x="651" y="220" on="0"/>
        <pt x="651" y="205" on="1"/>
        <pt x="651" y="202" on="0"/>
        <pt x="649" y="193" on="0"/>
        <pt x="647" y="188" on="1"/>
        <pt x="623" y="137" on="0"/>
        <pt x="567" y="39" on="0"/>
        <pt x="503" y="-51" on="0"/>
        <pt x="431" y="-131" on="0"/>
        <pt x="391" y="-162" on="1"/>
        <pt x="319" y="-219" on="0"/>
        <pt x="242" y="-342" on="0"/>
        <pt x="242" y="-399" on="1"/>
        <pt x="242" y="-437" on="0"/>
        <pt x="281" y="-487" on="0"/>
        <pt x="328" y="-487" on="1"/>
        <pt x="351" y="-487" on="0"/>
        <pt x="390" y="-479" on="0"/>
        <pt x="421" y="-467" on="0"/>
        <pt x="443" y="-455" on="0"/>
        <pt x="449" y="-451" on="1"/>
        <pt x="452" y="-447" on="0"/>
        <pt x="459" y="-442" on="0"/>
        <pt x="465" y="-442" on="1"/>
        <pt x="470" y="-442" on="0"/>
        <pt x="477" y="-452" on="0"/>
        <pt x="477" y="-457" on="1"/>
        <pt x="477" y="-467" on="0"/>
        <pt x="438" y="-500" on="0"/>
        <pt x="376" y="-533" on="0"/>
        <pt x="298" y="-557" on="0"/>
      </contour>
    </TTGlyph>
    <TTGlyph name="Eth" xMin="-124" yMin="-209" xMax="1389" yMax="1571">
      <contour>
        <pt x="336" y="545" on="1"/>
        <pt x="400" y="703" on="0"/>
        <pt x="513" y="976" on="0"/>
        <pt x="603" y="1188" on="0"/>
        <pt x="667" y="1328" on="0"/>
        <pt x="684" y="1354" on="1"/>
        <pt x="690" y="1362" on="0"/>
        <pt x="728" y="1378" on="0"/>
        <pt x="775" y="1390" on="0"/>
        <pt x="824" y="1397" on="0"/>
        <pt x="842" y="1397" on="1"/>
        <pt x="844" y="1397" on="0"/>
        <pt x="858" y="1396" on="0"/>
        <pt x="873" y="1392" on="0"/>
        <pt x="885" y="1386" on="0"/>
        <pt x="885" y="1380" on="1"/>
        <pt x="885" y="1372" on="0"/>
        <pt x="870" y="1337" on="0"/>
        <pt x="847" y="1287" on="0"/>
        <pt x="818" y="1224" on="0"/>
        <pt x="803" y="1190" on="1"/>
        <pt x="737" y="1035" on="0"/>
        <pt x="608" y="729" on="0"/>
        <pt x="545" y="571" on="1"/>
        <pt x="758" y="598" on="1"/>
        <pt x="781" y="599" on="0"/>
        <pt x="797" y="583" on="0"/>
        <pt x="793" y="557" on="0"/>
        <pt x="773" y="528" on="0"/>
        <pt x="747" y="502" on="0"/>
        <pt x="719" y="486" on="0"/>
        <pt x="709" y="487" on="1"/>
        <pt x="659" y="484" on="0"/>
        <pt x="559" y="480" on="0"/>
        <pt x="508" y="477" on="1"/>
        <pt x="452" y="335" on="0"/>
        <pt x="343" y="47" on="0"/>
        <pt x="291" y="-104" on="1"/>
        <pt x="413" y="-68" on="0"/>
        <pt x="637" y="89" on="0"/>
        <pt x="831" y="304" on="0"/>
        <pt x="988" y="562" on="0"/>
        <pt x="1100" y="834" on="0"/>
        <pt x="1161" y="1107" on="0"/>
        <pt x="1161" y="1229" on="1"/>
        <pt x="1161" y="1356" on="0"/>
        <pt x="1035" y="1495" on="0"/>
        <pt x="907" y="1495" on="1"/>
        <pt x="781" y="1495" on="0"/>
        <pt x="573" y="1410" on="0"/>
        <pt x="424" y="1258" on="0"/>
        <pt x="342" y="1046" on="0"/>
        <pt x="342" y="920" on="1"/>
        <pt x="342" y="900" on="0"/>
        <pt x="334" y="872" on="0"/>
        <pt x="317" y="872" on="1"/>
        <pt x="289" y="872" on="0"/>
        <pt x="240" y="892" on="0"/>
        <pt x="203" y="930" on="0"/>
        <pt x="182" y="983" on="0"/>
        <pt x="182" y="1016" on="1"/>
        <pt x="182" y="1091" on="0"/>
        <pt x="246" y="1232" on="0"/>
        <pt x="358" y="1355" on="0"/>
        <pt x="508" y="1457" on="0"/>
        <pt x="679" y="1531" on="0"/>
        <pt x="862" y="1571" on="0"/>
        <pt x="952" y="1571" on="1"/>
        <pt x="1040" y="1571" on="0"/>
        <pt x="1199" y="1523" on="0"/>
        <pt x="1319" y="1422" on="0"/>
        <pt x="1389" y="1265" on="0"/>
        <pt x="1389" y="1157" on="1"/>
        <pt x="1389" y="1047" on="0"/>
        <pt x="1329" y="812" on="0"/>
        <pt x="1220" y="579" on="0"/>
        <pt x="1067" y="354" on="0"/>
        <pt x="882" y="153" on="0"/>
        <pt x="669" y="-17" on="0"/>
        <pt x="441" y="-140" on="0"/>
        <pt x="201" y="-209" on="0"/>
        <pt x="82" y="-209" on="1"/>
        <pt x="54" y="-209" on="0"/>
        <pt x="-1" y="-207" on="0"/>
        <pt x="-48" y="-204" on="0"/>
        <pt x="-84" y="-201" on="0"/>
        <pt x="-92" y="-199" on="1"/>
        <pt x="-108" y="-196" on="0"/>
        <pt x="-124" y="-170" on="0"/>
        <pt x="-121" y="-156" on="1"/>
        <pt x="-115" y="-133" on="0"/>
        <pt x="-80" y="-121" on="0"/>
        <pt x="-61" y="-121" on="1"/>
        <pt x="-46" y="-123" on="0"/>
        <pt x="15" y="-127" on="0"/>
        <pt x="57" y="-129" on="1"/>
        <pt x="122" y="26" on="0"/>
        <pt x="244" y="321" on="0"/>
        <pt x="301" y="461" on="1"/>
        <pt x="261" y="458" on="0"/>
        <pt x="195" y="452" on="0"/>
        <pt x="171" y="450" on="1"/>
        <pt x="143" y="447" on="0"/>
        <pt x="121" y="446" on="1"/>
        <pt x="111" y="446" on="0"/>
        <pt x="111" y="455" on="1"/>
        <pt x="109" y="458" on="0"/>
        <pt x="117" y="468" on="0"/>
        <pt x="123" y="473" on="1"/>
        <pt x="135" y="502" on="1"/>
        <pt x="155" y="519" on="0"/>
        <pt x="187" y="526" on="0"/>
        <pt x="209" y="528" on="1"/>
      </contour>
    </TTGlyph>
    <TTGlyph name="Euro" xMin="6" yMin="-10" xMax="1090" yMax="1497">
      <contour>
        <pt x="260" y="874" on="1"/>
        <pt x="329" y="1001" on="0"/>
        <pt x="501" y="1227" on="0"/>
        <pt x="684" y="1397" on="0"/>
        <pt x="866" y="1497" on="0"/>
        <pt x="944" y="1497" on="1"/>
        <pt x="987" y="1497" on="0"/>
        <pt x="1044" y="1472" on="0"/>
        <pt x="1077" y="1433" on="0"/>
        <pt x="1090" y="1383" on="0"/>
        <pt x="1090" y="1358" on="1"/>
        <pt x="1090" y="1290" on="0"/>
        <pt x="1037" y="1185" on="0"/>
        <pt x="967" y="1114" on="0"/>
        <pt x="898" y="1077" on="0"/>
        <pt x="881" y="1077" on="1"/>
        <pt x="868" y="1077" on="0"/>
        <pt x="860" y="1082" on="0"/>
        <pt x="860" y="1096" on="1"/>
        <pt x="864" y="1121" on="0"/>
        <pt x="893" y="1175" on="0"/>
        <pt x="926" y="1238" on="0"/>
        <pt x="952" y="1313" on="0"/>
        <pt x="952" y="1360" on="1"/>
        <pt x="952" y="1383" on="0"/>
        <pt x="933" y="1415" on="0"/>
        <pt x="907" y="1415" on="1"/>
        <pt x="866" y="1415" on="0"/>
        <pt x="760" y="1333" on="0"/>
        <pt x="645" y="1191" on="0"/>
        <pt x="530" y="1002" on="0"/>
        <pt x="479" y="895" on="1"/>
        <pt x="719" y="918" on="1"/>
        <pt x="756" y="918" on="0"/>
        <pt x="756" y="895" on="1"/>
        <pt x="756" y="883" on="0"/>
        <pt x="738" y="853" on="0"/>
        <pt x="711" y="827" on="0"/>
        <pt x="681" y="809" on="0"/>
        <pt x="670" y="809" on="1"/>
        <pt x="613" y="809" on="0"/>
        <pt x="496" y="807" on="0"/>
        <pt x="440" y="805" on="1"/>
        <pt x="426" y="771" on="0"/>
        <pt x="400" y="706" on="0"/>
        <pt x="389" y="672" on="1"/>
        <pt x="575" y="692" on="1"/>
        <pt x="595" y="692" on="0"/>
        <pt x="612" y="681" on="0"/>
        <pt x="612" y="670" on="1"/>
        <pt x="612" y="658" on="0"/>
        <pt x="594" y="628" on="0"/>
        <pt x="567" y="602" on="0"/>
        <pt x="538" y="584" on="0"/>
        <pt x="526" y="584" on="1"/>
        <pt x="483" y="584" on="0"/>
        <pt x="401" y="582" on="0"/>
        <pt x="360" y="582" on="1"/>
        <pt x="336" y="497" on="0"/>
        <pt x="309" y="334" on="0"/>
        <pt x="309" y="262" on="1"/>
        <pt x="309" y="230" on="0"/>
        <pt x="318" y="177" on="0"/>
        <pt x="341" y="137" on="0"/>
        <pt x="382" y="115" on="0"/>
        <pt x="414" y="115" on="1"/>
        <pt x="456" y="115" on="0"/>
        <pt x="537" y="170" on="0"/>
        <pt x="610" y="253" on="0"/>
        <pt x="674" y="349" on="0"/>
        <pt x="727" y="432" on="0"/>
        <pt x="766" y="487" on="0"/>
        <pt x="778" y="487" on="1"/>
        <pt x="787" y="487" on="0"/>
        <pt x="804" y="482" on="0"/>
        <pt x="816" y="471" on="0"/>
        <pt x="820" y="455" on="0"/>
        <pt x="815" y="444" on="1"/>
        <pt x="779" y="372" on="0"/>
        <pt x="687" y="212" on="0"/>
        <pt x="570" y="78" on="0"/>
        <pt x="423" y="-10" on="0"/>
        <pt x="332" y="-10" on="1"/>
        <pt x="281" y="-10" on="0"/>
        <pt x="191" y="24" on="0"/>
        <pt x="124" y="95" on="0"/>
        <pt x="84" y="204" on="0"/>
        <pt x="84" y="279" on="1"/>
        <pt x="84" y="419" on="0"/>
        <pt x="131" y="571" on="1"/>
        <pt x="105" y="569" on="0"/>
        <pt x="62" y="566" on="0"/>
        <pt x="47" y="565" on="1"/>
        <pt x="29" y="563" on="0"/>
        <pt x="16" y="563" on="1"/>
        <pt x="6" y="563" on="0"/>
        <pt x="6" y="573" on="1"/>
        <pt x="6" y="581" on="0"/>
        <pt x="18" y="590" on="1"/>
        <pt x="33" y="618" on="1"/>
        <pt x="53" y="635" on="0"/>
        <pt x="85" y="641" on="0"/>
        <pt x="106" y="643" on="1"/>
        <pt x="158" y="647" on="1"/>
        <pt x="172" y="684" on="0"/>
        <pt x="202" y="757" on="0"/>
        <pt x="219" y="795" on="1"/>
        <pt x="192" y="793" on="0"/>
        <pt x="147" y="791" on="0"/>
        <pt x="131" y="790" on="1"/>
        <pt x="113" y="789" on="0"/>
        <pt x="98" y="788" on="1"/>
        <pt x="88" y="788" on="0"/>
        <pt x="88" y="799" on="1"/>
        <pt x="88" y="806" on="0"/>
        <pt x="100" y="815" on="1"/>
        <pt x="115" y="844" on="1"/>
        <pt x="135" y="861" on="0"/>
        <pt x="167" y="866" on="0"/>
        <pt x="188" y="868" on="1"/>
      </contour>
    </TTGlyph>
    <TTGlyph name="F" xMin="-207" yMin="-256" xMax="1481" yMax="1614">
      <contour>
        <pt x="1135" y="649" on="1"/>
        <pt x="1132" y="637" on="0"/>
        <pt x="1120" y="610" on="0"/>
        <pt x="1094" y="586" on="0"/>
        <pt x="1051" y="569" on="0"/>
        <pt x="1018" y="567" on="1"/>
        <pt x="1002" y="565" on="0"/>
        <pt x="938" y="562" on="0"/>
        <pt x="895" y="559" on="1"/>
        <pt x="857" y="463" on="0"/>
        <pt x="771" y="267" on="0"/>
        <pt x="668" y="86" on="0"/>
        <pt x="546" y="-72" on="0"/>
        <pt x="402" y="-189" on="0"/>
        <pt x="231" y="-256" on="0"/>
        <pt x="131" y="-256" on="1"/>
        <pt x="83" y="-256" on="0"/>
        <pt x="-34" y="-241" on="0"/>
        <pt x="-137" y="-195" on="0"/>
        <pt x="-207" y="-108" on="0"/>
        <pt x="-207" y="-37" on="1"/>
        <pt x="-207" y="-29" on="0"/>
        <pt x="-200" y="20" on="0"/>
        <pt x="-182" y="72" on="0"/>
        <pt x="-153" y="113" on="0"/>
        <pt x="-131" y="113" on="1"/>
        <pt x="-120" y="113" on="0"/>
        <pt x="-108" y="96" on="0"/>
        <pt x="-106" y="94" on="1"/>
        <pt x="-72" y="27" on="0"/>
        <pt x="12" y="-66" on="0"/>
        <pt x="102" y="-125" on="0"/>
        <pt x="194" y="-152" on="0"/>
        <pt x="236" y="-152" on="1"/>
        <pt x="313" y="-152" on="0"/>
        <pt x="434" y="-39" on="0"/>
        <pt x="536" y="153" on="0"/>
        <pt x="628" y="406" on="0"/>
        <pt x="676" y="545" on="1"/>
        <pt x="651" y="542" on="0"/>
        <pt x="599" y="538" on="0"/>
        <pt x="573" y="535" on="1"/>
        <pt x="484" y="525" on="0"/>
        <pt x="375" y="512" on="0"/>
        <pt x="356" y="512" on="1"/>
        <pt x="344" y="512" on="0"/>
        <pt x="344" y="516" on="1"/>
        <pt x="344" y="527" on="0"/>
        <pt x="364" y="556" on="0"/>
        <pt x="393" y="582" on="0"/>
        <pt x="423" y="600" on="0"/>
        <pt x="434" y="600" on="1"/>
        <pt x="478" y="611" on="0"/>
        <pt x="626" y="631" on="0"/>
        <pt x="711" y="639" on="1"/>
        <pt x="725" y="679" on="0"/>
        <pt x="755" y="761" on="0"/>
        <pt x="770" y="801" on="1"/>
        <pt x="832" y="962" on="0"/>
        <pt x="972" y="1213" on="0"/>
        <pt x="1044" y="1307" on="1"/>
        <pt x="980" y="1317" on="0"/>
        <pt x="849" y="1368" on="0"/>
        <pt x="714" y="1421" on="0"/>
        <pt x="575" y="1462" on="0"/>
        <pt x="504" y="1462" on="1"/>
        <pt x="470" y="1462" on="0"/>
        <pt x="403" y="1435" on="0"/>
        <pt x="349" y="1372" on="0"/>
        <pt x="315" y="1269" on="0"/>
        <pt x="315" y="1194" on="1"/>
        <pt x="315" y="1148" on="0"/>
        <pt x="332" y="1045" on="0"/>
        <pt x="370" y="936" on="0"/>
        <pt x="432" y="822" on="0"/>
        <pt x="477" y="764" on="1"/>
        <pt x="481" y="760" on="0"/>
        <pt x="481" y="750" on="1"/>
        <pt x="479" y="737" on="0"/>
        <pt x="463" y="719" on="0"/>
        <pt x="444" y="719" on="1"/>
        <pt x="366" y="719" on="0"/>
        <pt x="267" y="758" on="0"/>
        <pt x="211" y="832" on="0"/>
        <pt x="190" y="941" on="0"/>
        <pt x="190" y="1010" on="1"/>
        <pt x="190" y="1071" on="0"/>
        <pt x="201" y="1187" on="0"/>
        <pt x="232" y="1294" on="0"/>
        <pt x="289" y="1393" on="0"/>
        <pt x="334" y="1438" on="1"/>
        <pt x="385" y="1489" on="0"/>
        <pt x="480" y="1556" on="0"/>
        <pt x="568" y="1597" on="0"/>
        <pt x="649" y="1614" on="0"/>
        <pt x="686" y="1614" on="1"/>
        <pt x="753" y="1614" on="0"/>
        <pt x="875" y="1573" on="0"/>
        <pt x="992" y="1518" on="0"/>
        <pt x="1108" y="1461" on="0"/>
        <pt x="1171" y="1446" on="1"/>
        <pt x="1244" y="1514" on="0"/>
        <pt x="1381" y="1579" on="0"/>
        <pt x="1438" y="1579" on="1"/>
        <pt x="1458" y="1579" on="0"/>
        <pt x="1481" y="1559" on="0"/>
        <pt x="1481" y="1542" on="1"/>
        <pt x="1481" y="1518" on="0"/>
        <pt x="1445" y="1452" on="0"/>
        <pt x="1377" y="1385" on="0"/>
        <pt x="1276" y="1328" on="0"/>
        <pt x="1212" y="1313" on="1"/>
        <pt x="1177" y="1248" on="0"/>
        <pt x="1092" y="1070" on="0"/>
        <pt x="1044" y="952" on="1"/>
        <pt x="1018" y="889" on="0"/>
        <pt x="965" y="741" on="0"/>
        <pt x="934" y="659" on="1"/>
        <pt x="997" y="664" on="0"/>
        <pt x="1094" y="670" on="0"/>
        <pt x="1116" y="670" on="1"/>
        <pt x="1127" y="670" on="0"/>
        <pt x="1135" y="663" on="0"/>
      </contour>
      <contour>
        <pt x="1395" y="1536" on="1"/>
        <pt x="1376" y="1536" on="0"/>
        <pt x="1320" y="1489" on="0"/>
        <pt x="1282" y="1434" on="1"/>
        <pt x="1320" y="1435" on="0"/>
        <pt x="1370" y="1461" on="0"/>
        <pt x="1399" y="1491" on="0"/>
        <pt x="1411" y="1519" on="0"/>
        <pt x="1411" y="1522" on="1"/>
        <pt x="1411" y="1536" on="0"/>
      </contour>
    </TTGlyph>
    <TTGlyph name="G" xMin="-51" yMin="-229" xMax="1128" yMax="1538">
      <contour>
        <pt x="854" y="520" on="1"/>
        <pt x="840" y="420" on="0"/>
        <pt x="776" y="232" on="0"/>
        <pt x="683" y="65" on="0"/>
        <pt x="566" y="-74" on="0"/>
        <pt x="434" y="-173" on="0"/>
        <pt x="291" y="-229" on="0"/>
        <pt x="219" y="-229" on="1"/>
        <pt x="171" y="-229" on="0"/>
        <pt x="74" y="-196" on="0"/>
        <pt x="-3" y="-122" on="0"/>
        <pt x="-51" y="-1" on="0"/>
        <pt x="-51" y="86" on="1"/>
        <pt x="-51" y="200" on="0"/>
        <pt x="7" y="447" on="0"/>
        <pt x="109" y="694" on="0"/>
        <pt x="245" y="933" on="0"/>
        <pt x="402" y="1148" on="0"/>
        <pt x="571" y="1331" on="0"/>
        <pt x="737" y="1463" on="0"/>
        <pt x="893" y="1538" on="0"/>
        <pt x="958" y="1538" on="1"/>
        <pt x="1008" y="1538" on="0"/>
        <pt x="1074" y="1509" on="0"/>
        <pt x="1113" y="1463" on="0"/>
        <pt x="1128" y="1404" on="0"/>
        <pt x="1128" y="1374" on="1"/>
        <pt x="1128" y="1321" on="0"/>
        <pt x="1099" y="1230" on="0"/>
        <pt x="1053" y="1157" on="0"/>
        <pt x="997" y="1101" on="0"/>
        <pt x="943" y="1063" on="0"/>
        <pt x="896" y="1044" on="0"/>
        <pt x="883" y="1044" on="1"/>
        <pt x="869" y="1044" on="0"/>
        <pt x="858" y="1050" on="0"/>
        <pt x="858" y="1067" on="1"/>
        <pt x="862" y="1097" on="0"/>
        <pt x="898" y="1167" on="0"/>
        <pt x="938" y="1242" on="0"/>
        <pt x="969" y="1322" on="0"/>
        <pt x="969" y="1362" on="1"/>
        <pt x="969" y="1390" on="0"/>
        <pt x="948" y="1436" on="0"/>
        <pt x="918" y="1436" on="1"/>
        <pt x="875" y="1436" on="0"/>
        <pt x="767" y="1363" on="0"/>
        <pt x="648" y="1235" on="0"/>
        <pt x="524" y="1060" on="0"/>
        <pt x="409" y="856" on="0"/>
        <pt x="306" y="632" on="0"/>
        <pt x="230" y="406" on="0"/>
        <pt x="186" y="186" on="0"/>
        <pt x="186" y="88" on="1"/>
        <pt x="186" y="51" on="0"/>
        <pt x="203" y="-12" on="0"/>
        <pt x="239" y="-59" on="0"/>
        <pt x="293" y="-86" on="0"/>
        <pt x="330" y="-86" on="1"/>
        <pt x="378" y="-86" on="0"/>
        <pt x="468" y="-41" on="0"/>
        <pt x="545" y="32" on="0"/>
        <pt x="608" y="127" on="0"/>
        <pt x="653" y="228" on="0"/>
        <pt x="678" y="327" on="0"/>
        <pt x="678" y="367" on="1"/>
        <pt x="678" y="412" on="0"/>
        <pt x="645" y="455" on="0"/>
        <pt x="596" y="469" on="0"/>
        <pt x="539" y="464" on="0"/>
        <pt x="490" y="460" on="0"/>
        <pt x="457" y="465" on="0"/>
        <pt x="457" y="483" on="1"/>
        <pt x="457" y="498" on="0"/>
        <pt x="474" y="521" on="0"/>
        <pt x="503" y="539" on="0"/>
        <pt x="539" y="554" on="0"/>
        <pt x="557" y="561" on="1"/>
        <pt x="591" y="574" on="0"/>
        <pt x="698" y="596" on="0"/>
        <pt x="818" y="614" on="0"/>
        <pt x="937" y="629" on="0"/>
        <pt x="985" y="635" on="1"/>
        <pt x="1004" y="635" on="0"/>
        <pt x="1004" y="612" on="1"/>
        <pt x="987" y="586" on="1"/>
        <pt x="966" y="539" on="0"/>
        <pt x="913" y="528" on="1"/>
        <pt x="898" y="525" on="0"/>
        <pt x="868" y="522" on="0"/>
      </contour>
    </TTGlyph>
    <TTGlyph name="Gbreve" xMin="-51" yMin="-229" xMax="1333" yMax="1925">
      <component glyphName="G" x="0" y="0" flags="0x204"/>
      <component glyphName="breve" x="530" y="762" flags="0x4"/>
    </TTGlyph>
    <TTGlyph name="Gcircumflex" xMin="-51" yMin="-229" xMax="1261" yMax="1936">
      <component glyphName="G" x="0" y="0" flags="0x204"/>
      <component glyphName="circumflex" x="526" y="762" flags="0x4"/>
    </TTGlyph>
    <TTGlyph name="Gcommaaccent" xMin="-51" yMin="-601" xMax="1128" yMax="1538">
      <component glyphName="G" x="0" y="0" flags="0x204"/>
      <component glyphName="commaaccent" x="63" y="-177" flags="0x4"/>
    </TTGlyph>
    <TTGlyph name="Gdotaccent" xMin="-51" yMin="-229" xMax="1128" yMax="1841">
      <component glyphName="G" x="0" y="0" flags="0x204"/>
      <component glyphName="dotaccent" x="512" y="762" flags="0x4"/>
    </TTGlyph>
    <TTGlyph name="H" xMin="-252" yMin="-263" xMax="1466" yMax="1586">
      <contour>
        <pt x="838" y="1466" on="1"/>
        <pt x="833" y="1451" on="0"/>
        <pt x="805" y="1432" on="0"/>
        <pt x="788" y="1430" on="1"/>
        <pt x="771" y="1426" on="0"/>
        <pt x="738" y="1423" on="0"/>
        <pt x="723" y="1421" on="1"/>
        <pt x="667" y="1304" on="0"/>
        <pt x="557" y="1055" on="0"/>
        <pt x="449" y="801" on="0"/>
        <pt x="344" y="547" on="0"/>
        <pt x="295" y="424" on="1"/>
        <pt x="664" y="473" on="1"/>
        <pt x="718" y="603" on="0"/>
        <pt x="829" y="872" on="0"/>
        <pt x="934" y="1131" on="0"/>
        <pt x="1032" y="1372" on="0"/>
        <pt x="1073" y="1475" on="1"/>
        <pt x="1039" y="1471" on="0"/>
        <pt x="972" y="1470" on="0"/>
        <pt x="940" y="1470" on="1"/>
        <pt x="937" y="1470" on="0"/>
        <pt x="932" y="1476" on="0"/>
        <pt x="930" y="1479" on="1"/>
        <pt x="928" y="1482" on="0"/>
        <pt x="930" y="1490" on="0"/>
        <pt x="932" y="1493" on="1"/>
        <pt x="946" y="1507" on="1"/>
        <pt x="952" y="1520" on="0"/>
        <pt x="965" y="1537" on="0"/>
        <pt x="979" y="1540" on="1"/>
        <pt x="1036" y="1549" on="0"/>
        <pt x="1156" y="1565" on="0"/>
        <pt x="1278" y="1578" on="0"/>
        <pt x="1397" y="1586" on="0"/>
        <pt x="1452" y="1585" on="1"/>
        <pt x="1456" y="1585" on="0"/>
        <pt x="1464" y="1581" on="1"/>
        <pt x="1466" y="1578" on="0"/>
        <pt x="1464" y="1570" on="0"/>
        <pt x="1462" y="1567" on="1"/>
        <pt x="1442" y="1530" on="1"/>
        <pt x="1436" y="1517" on="0"/>
        <pt x="1410" y="1503" on="0"/>
        <pt x="1395" y="1501" on="1"/>
        <pt x="1367" y="1498" on="0"/>
        <pt x="1309" y="1494" on="0"/>
        <pt x="1278" y="1491" on="1"/>
        <pt x="1229" y="1374" on="0"/>
        <pt x="1116" y="1100" on="0"/>
        <pt x="997" y="808" on="0"/>
        <pt x="877" y="509" on="0"/>
        <pt x="765" y="225" on="0"/>
        <pt x="665" y="-34" on="0"/>
        <pt x="625" y="-139" on="1"/>
        <pt x="662" y="-134" on="0"/>
        <pt x="723" y="-129" on="0"/>
        <pt x="741" y="-129" on="1"/>
        <pt x="771" y="-129" on="0"/>
        <pt x="801" y="-136" on="0"/>
        <pt x="810" y="-149" on="0"/>
        <pt x="801" y="-166" on="0"/>
        <pt x="793" y="-176" on="1"/>
        <pt x="784" y="-186" on="0"/>
        <pt x="775" y="-202" on="0"/>
        <pt x="759" y="-215" on="0"/>
        <pt x="729" y="-225" on="0"/>
        <pt x="700" y="-229" on="1"/>
        <pt x="681" y="-232" on="0"/>
        <pt x="609" y="-238" on="0"/>
        <pt x="521" y="-244" on="0"/>
        <pt x="426" y="-250" on="0"/>
        <pt x="342" y="-255" on="0"/>
        <pt x="277" y="-259" on="0"/>
        <pt x="264" y="-260" on="1"/>
        <pt x="224" y="-263" on="0"/>
        <pt x="216" y="-252" on="0"/>
        <pt x="242" y="-223" on="1"/>
        <pt x="253" y="-208" on="0"/>
        <pt x="300" y="-191" on="0"/>
        <pt x="338" y="-186" on="1"/>
        <pt x="344" y="-184" on="0"/>
        <pt x="367" y="-181" on="0"/>
        <pt x="381" y="-178" on="1"/>
        <pt x="432" y="-67" on="0"/>
        <pt x="557" y="217" on="0"/>
        <pt x="625" y="379" on="1"/>
        <pt x="262" y="342" on="1"/>
        <pt x="219" y="234" on="0"/>
        <pt x="143" y="32" on="0"/>
        <pt x="109" y="-59" on="1"/>
        <pt x="170" y="-53" on="0"/>
        <pt x="236" y="-56" on="0"/>
        <pt x="231" y="-70" on="1"/>
        <pt x="226" y="-87" on="0"/>
        <pt x="194" y="-111" on="0"/>
        <pt x="166" y="-125" on="1"/>
        <pt x="156" y="-130" on="0"/>
        <pt x="97" y="-139" on="0"/>
        <pt x="18" y="-147" on="0"/>
        <pt x="-71" y="-154" on="0"/>
        <pt x="-149" y="-158" on="0"/>
        <pt x="-208" y="-161" on="0"/>
        <pt x="-217" y="-162" on="1"/>
        <pt x="-246" y="-165" on="0"/>
        <pt x="-252" y="-134" on="0"/>
        <pt x="-217" y="-106" on="1"/>
        <pt x="-211" y="-100" on="0"/>
        <pt x="-169" y="-92" on="0"/>
        <pt x="-123" y="-86" on="1"/>
        <pt x="-92" y="-4" on="0"/>
        <pt x="-7" y="202" on="0"/>
        <pt x="41" y="317" on="1"/>
        <pt x="-86" y="305" on="1"/>
        <pt x="-91" y="305" on="0"/>
        <pt x="-98" y="308" on="0"/>
        <pt x="-98" y="313" on="1"/>
        <pt x="-100" y="316" on="0"/>
        <pt x="-93" y="327" on="0"/>
        <pt x="-88" y="332" on="1"/>
        <pt x="-74" y="352" on="1"/>
        <pt x="-57" y="371" on="0"/>
        <pt x="-26" y="380" on="0"/>
        <pt x="-4" y="385" on="1"/>
        <pt x="74" y="395" on="1"/>
        <pt x="129" y="525" on="0"/>
        <pt x="248" y="798" on="0"/>
        <pt x="363" y="1061" on="0"/>
        <pt x="471" y="1303" on="0"/>
        <pt x="516" y="1401" on="1"/>
        <pt x="482" y="1398" on="0"/>
        <pt x="411" y="1395" on="0"/>
        <pt x="373" y="1393" on="1"/>
        <pt x="369" y="1393" on="0"/>
        <pt x="365" y="1397" on="1"/>
        <pt x="365" y="1403" on="0"/>
        <pt x="369" y="1407" on="1"/>
        <pt x="381" y="1423" on="1"/>
        <pt x="387" y="1437" on="0"/>
        <pt x="400" y="1450" on="0"/>
        <pt x="414" y="1452" on="1"/>
        <pt x="466" y="1460" on="0"/>
        <pt x="563" y="1478" on="0"/>
        <pt x="662" y="1494" on="0"/>
        <pt x="765" y="1507" on="0"/>
        <pt x="823" y="1509" on="1"/>
        <pt x="836" y="1512" on="0"/>
        <pt x="844" y="1501" on="1"/>
        <pt x="847" y="1496" on="0"/>
        <pt x="849" y="1484" on="0"/>
        <pt x="844" y="1479" on="1"/>
      </contour>
    </TTGlyph>
    <TTGlyph name="Hbar" xMin="-252" yMin="-263" xMax="1466" yMax="1586">
      <contour>
        <pt x="74" y="395" on="1"/>
        <pt x="102" y="458" on="0"/>
        <pt x="156" y="587" on="0"/>
        <pt x="184" y="653" on="1"/>
        <pt x="150" y="651" on="0"/>
        <pt x="89" y="649" on="0"/>
        <pt x="66" y="648" on="1"/>
        <pt x="39" y="647" on="0"/>
        <pt x="16" y="647" on="1"/>
        <pt x="6" y="647" on="0"/>
        <pt x="6" y="655" on="1"/>
        <pt x="4" y="658" on="0"/>
        <pt x="12" y="669" on="0"/>
        <pt x="18" y="674" on="1"/>
        <pt x="31" y="702" on="1"/>
        <pt x="51" y="719" on="0"/>
        <pt x="83" y="727" on="0"/>
        <pt x="104" y="729" on="1"/>
        <pt x="221" y="737" on="1"/>
        <pt x="261" y="828" on="0"/>
        <pt x="341" y="1009" on="0"/>
        <pt x="416" y="1179" on="0"/>
        <pt x="486" y="1334" on="0"/>
        <pt x="516" y="1401" on="1"/>
        <pt x="482" y="1398" on="0"/>
        <pt x="411" y="1395" on="0"/>
        <pt x="373" y="1393" on="1"/>
        <pt x="369" y="1393" on="0"/>
        <pt x="365" y="1397" on="1"/>
        <pt x="365" y="1403" on="0"/>
        <pt x="369" y="1407" on="1"/>
        <pt x="381" y="1423" on="1"/>
        <pt x="387" y="1437" on="0"/>
        <pt x="400" y="1450" on="0"/>
        <pt x="414" y="1452" on="1"/>
        <pt x="466" y="1460" on="0"/>
        <pt x="563" y="1478" on="0"/>
        <pt x="662" y="1494" on="0"/>
        <pt x="765" y="1507" on="0"/>
        <pt x="823" y="1509" on="1"/>
        <pt x="836" y="1512" on="0"/>
        <pt x="844" y="1501" on="1"/>
        <pt x="847" y="1496" on="0"/>
        <pt x="849" y="1484" on="0"/>
        <pt x="844" y="1479" on="1"/>
        <pt x="838" y="1466" on="1"/>
        <pt x="833" y="1451" on="0"/>
        <pt x="805" y="1432" on="0"/>
        <pt x="788" y="1430" on="1"/>
        <pt x="771" y="1426" on="0"/>
        <pt x="738" y="1423" on="0"/>
        <pt x="723" y="1421" on="1"/>
        <pt x="649" y="1262" on="0"/>
        <pt x="499" y="923" on="0"/>
        <pt x="428" y="750" on="1"/>
        <pt x="788" y="774" on="1"/>
        <pt x="867" y="966" on="0"/>
        <pt x="1013" y="1326" on="0"/>
        <pt x="1073" y="1475" on="1"/>
        <pt x="1039" y="1471" on="0"/>
        <pt x="972" y="1470" on="0"/>
        <pt x="940" y="1470" on="1"/>
        <pt x="937" y="1470" on="0"/>
        <pt x="932" y="1476" on="0"/>
        <pt x="930" y="1479" on="1"/>
        <pt x="928" y="1482" on="0"/>
        <pt x="930" y="1490" on="0"/>
        <pt x="932" y="1493" on="1"/>
        <pt x="946" y="1507" on="1"/>
        <pt x="952" y="1520" on="0"/>
        <pt x="965" y="1537" on="0"/>
        <pt x="979" y="1540" on="1"/>
        <pt x="1036" y="1549" on="0"/>
        <pt x="1156" y="1565" on="0"/>
        <pt x="1278" y="1578" on="0"/>
        <pt x="1397" y="1586" on="0"/>
        <pt x="1452" y="1585" on="1"/>
        <pt x="1456" y="1585" on="0"/>
        <pt x="1464" y="1581" on="1"/>
        <pt x="1466" y="1578" on="0"/>
        <pt x="1464" y="1570" on="0"/>
        <pt x="1462" y="1567" on="1"/>
        <pt x="1442" y="1530" on="1"/>
        <pt x="1436" y="1517" on="0"/>
        <pt x="1410" y="1503" on="0"/>
        <pt x="1395" y="1501" on="1"/>
        <pt x="1367" y="1498" on="0"/>
        <pt x="1309" y="1494" on="0"/>
        <pt x="1278" y="1491" on="1"/>
        <pt x="1215" y="1339" on="0"/>
        <pt x="1067" y="978" on="0"/>
        <pt x="989" y="788" on="1"/>
        <pt x="1149" y="799" on="1"/>
        <pt x="1172" y="800" on="0"/>
        <pt x="1188" y="784" on="0"/>
        <pt x="1184" y="758" on="0"/>
        <pt x="1164" y="729" on="0"/>
        <pt x="1138" y="703" on="0"/>
        <pt x="1110" y="687" on="0"/>
        <pt x="1100" y="688" on="1"/>
        <pt x="1071" y="686" on="0"/>
        <pt x="991" y="684" on="0"/>
        <pt x="946" y="682" on="1"/>
        <pt x="901" y="568" on="0"/>
        <pt x="812" y="343" on="0"/>
        <pt x="730" y="133" on="0"/>
        <pt x="656" y="-58" on="0"/>
        <pt x="625" y="-139" on="1"/>
        <pt x="662" y="-134" on="0"/>
        <pt x="723" y="-129" on="0"/>
        <pt x="741" y="-129" on="1"/>
        <pt x="771" y="-129" on="0"/>
        <pt x="801" y="-136" on="0"/>
        <pt x="810" y="-149" on="0"/>
        <pt x="801" y="-166" on="0"/>
        <pt x="793" y="-176" on="1"/>
        <pt x="784" y="-186" on="0"/>
        <pt x="775" y="-202" on="0"/>
        <pt x="759" y="-215" on="0"/>
        <pt x="729" y="-225" on="0"/>
        <pt x="700" y="-229" on="1"/>
        <pt x="681" y="-232" on="0"/>
        <pt x="609" y="-238" on="0"/>
        <pt x="521" y="-244" on="0"/>
        <pt x="426" y="-250" on="0"/>
        <pt x="342" y="-255" on="0"/>
        <pt x="277" y="-259" on="0"/>
        <pt x="264" y="-260" on="1"/>
        <pt x="224" y="-263" on="0"/>
        <pt x="216" y="-252" on="0"/>
        <pt x="242" y="-223" on="1"/>
        <pt x="253" y="-208" on="0"/>
        <pt x="300" y="-191" on="0"/>
        <pt x="338" y="-186" on="1"/>
        <pt x="344" y="-184" on="0"/>
        <pt x="367" y="-181" on="0"/>
        <pt x="381" y="-178" on="1"/>
        <pt x="432" y="-67" on="0"/>
        <pt x="557" y="217" on="0"/>
        <pt x="625" y="379" on="1"/>
        <pt x="262" y="342" on="1"/>
        <pt x="219" y="234" on="0"/>
        <pt x="143" y="32" on="0"/>
        <pt x="109" y="-59" on="1"/>
        <pt x="170" y="-53" on="0"/>
        <pt x="236" y="-56" on="0"/>
        <pt x="231" y="-70" on="1"/>
        <pt x="226" y="-87" on="0"/>
        <pt x="194" y="-111" on="0"/>
        <pt x="166" y="-125" on="1"/>
        <pt x="156" y="-130" on="0"/>
        <pt x="97" y="-139" on="0"/>
        <pt x="18" y="-147" on="0"/>
        <pt x="-71" y="-154" on="0"/>
        <pt x="-149" y="-158" on="0"/>
        <pt x="-208" y="-161" on="0"/>
        <pt x="-217" y="-162" on="1"/>
        <pt x="-246" y="-165" on="0"/>
        <pt x="-252" y="-134" on="0"/>
        <pt x="-217" y="-106" on="1"/>
        <pt x="-211" y="-100" on="0"/>
        <pt x="-169" y="-92" on="0"/>
        <pt x="-123" y="-86" on="1"/>
        <pt x="-92" y="-4" on="0"/>
        <pt x="-7" y="202" on="0"/>
        <pt x="41" y="317" on="1"/>
        <pt x="-86" y="305" on="1"/>
        <pt x="-91" y="305" on="0"/>
        <pt x="-98" y="308" on="0"/>
        <pt x="-98" y="313" on="1"/>
        <pt x="-100" y="316" on="0"/>
        <pt x="-93" y="327" on="0"/>
        <pt x="-88" y="332" on="1"/>
        <pt x="-74" y="352" on="1"/>
        <pt x="-57" y="371" on="0"/>
        <pt x="-26" y="380" on="0"/>
        <pt x="-4" y="385" on="1"/>
      </contour>
      <contour>
        <pt x="745" y="674" on="1"/>
        <pt x="657" y="671" on="0"/>
        <pt x="476" y="663" on="0"/>
        <pt x="391" y="659" on="1"/>
        <pt x="366" y="599" on="0"/>
        <pt x="318" y="483" on="0"/>
        <pt x="295" y="424" on="1"/>
        <pt x="664" y="473" on="1"/>
        <pt x="706" y="572" on="0"/>
      </contour>
    </TTGlyph>
    <TTGlyph name="Hcircumflex" xMin="-252" yMin="-263" xMax="1466" yMax="1975">
      <component glyphName="H" x="0" y="0" flags="0x204"/>
      <component glyphName="circumflex" x="504" y="801" flags="0x4"/>
    </TTGlyph>
    <TTGlyph name="I" xMin="-184" yMin="-231" xMax="1055" yMax="1542">
      <contour>
        <pt x="1055" y="1153" on="1"/>
        <pt x="1055" y="1040" on="0"/>
        <pt x="1011" y="800" on="0"/>
        <pt x="932" y="563" on="0"/>
        <pt x="822" y="336" on="0"/>
        <pt x="689" y="133" on="0"/>
        <pt x="538" y="-38" on="0"/>
        <pt x="376" y="-162" on="0"/>
        <pt x="208" y="-231" on="0"/>
        <pt x="125" y="-231" on="1"/>
        <pt x="68" y="-231" on="0"/>
        <pt x="-43" y="-192" on="0"/>
        <pt x="-130" y="-115" on="0"/>
        <pt x="-184" y="-2" on="0"/>
        <pt x="-184" y="72" on="1"/>
        <pt x="-184" y="122" on="0"/>
        <pt x="-142" y="228" on="0"/>
        <pt x="-80" y="315" on="0"/>
        <pt x="-7" y="371" on="0"/>
        <pt x="25" y="371" on="1"/>
        <pt x="33" y="371" on="0"/>
        <pt x="49" y="358" on="0"/>
        <pt x="49" y="346" on="1"/>
        <pt x="49" y="332" on="0"/>
        <pt x="40" y="304" on="0"/>
        <pt x="29" y="265" on="0"/>
        <pt x="20" y="212" on="0"/>
        <pt x="20" y="174" on="1"/>
        <pt x="20" y="112" on="0"/>
        <pt x="53" y="10" on="0"/>
        <pt x="110" y="-63" on="0"/>
        <pt x="188" y="-104" on="0"/>
        <pt x="233" y="-104" on="1"/>
        <pt x="268" y="-104" on="0"/>
        <pt x="345" y="-76" on="0"/>
        <pt x="385" y="-45" on="1"/>
        <pt x="428" y="-12" on="0"/>
        <pt x="529" y="126" on="0"/>
        <pt x="629" y="316" on="0"/>
        <pt x="721" y="546" on="0"/>
        <pt x="792" y="796" on="0"/>
        <pt x="834" y="1057" on="0"/>
        <pt x="834" y="1182" on="1"/>
        <pt x="834" y="1249" on="0"/>
        <pt x="817" y="1339" on="0"/>
        <pt x="789" y="1395" on="0"/>
        <pt x="752" y="1419" on="0"/>
        <pt x="731" y="1419" on="1"/>
        <pt x="713" y="1419" on="0"/>
        <pt x="658" y="1394" on="0"/>
        <pt x="596" y="1333" on="0"/>
        <pt x="534" y="1231" on="0"/>
        <pt x="484" y="1077" on="0"/>
        <pt x="453" y="866" on="0"/>
        <pt x="453" y="727" on="1"/>
        <pt x="453" y="690" on="0"/>
        <pt x="463" y="587" on="0"/>
        <pt x="475" y="489" on="0"/>
        <pt x="485" y="412" on="0"/>
        <pt x="485" y="401" on="1"/>
        <pt x="485" y="381" on="0"/>
        <pt x="468" y="373" on="0"/>
        <pt x="457" y="373" on="1"/>
        <pt x="424" y="373" on="0"/>
        <pt x="357" y="417" on="0"/>
        <pt x="304" y="487" on="0"/>
        <pt x="270" y="577" on="0"/>
        <pt x="270" y="623" on="1"/>
        <pt x="270" y="671" on="0"/>
        <pt x="284" y="809" on="0"/>
        <pt x="320" y="969" on="0"/>
        <pt x="383" y="1143" on="0"/>
        <pt x="432" y="1227" on="1"/>
        <pt x="486" y="1320" on="0"/>
        <pt x="597" y="1442" on="0"/>
        <pt x="704" y="1513" on="0"/>
        <pt x="804" y="1542" on="0"/>
        <pt x="846" y="1542" on="1"/>
        <pt x="889" y="1542" on="0"/>
        <pt x="954" y="1501" on="0"/>
        <pt x="1001" y="1434" on="0"/>
        <pt x="1031" y="1350" on="0"/>
        <pt x="1048" y="1264" on="0"/>
        <pt x="1055" y="1183" on="0"/>
      </contour>
    </TTGlyph>
    <TTGlyph name="IJ" xMin="-184" yMin="-543" xMax="2011" yMax="1542">
      <component glyphName="I" x="0" y="0" flags="0x4"/>
      <component glyphName="J" x="1055" y="0" flags="0x4"/>
    </TTGlyph>
    <TTGlyph name="Iacute" xMin="-184" yMin="-231" xMax="1174" yMax="1944">
      <component glyphName="I" x="0" y="0" flags="0x204"/>
      <component glyphName="acute" x="453" y="768" flags="0x4"/>
    </TTGlyph>
    <TTGlyph name="Ibreve" xMin="-184" yMin="-231" xMax="1221" yMax="1931">
      <component glyphName="I" x="0" y="0" flags="0x204"/>
      <component glyphName="breve" x="418" y="768" flags="0x4"/>
    </TTGlyph>
    <TTGlyph name="Icircumflex" xMin="-184" yMin="-231" xMax="1149" yMax="1942">
      <component glyphName="I" x="0" y="0" flags="0x204"/>
      <component glyphName="circumflex" x="414" y="768" flags="0x4"/>
    </TTGlyph>
    <TTGlyph name="Idieresis" xMin="-184" yMin="-231" xMax="1135" yMax="1827">
      <component glyphName="I" x="0" y="0" flags="0x204"/>
      <component glyphName="dieresis" x="377" y="768" flags="0x4"/>
    </TTGlyph>
    <TTGlyph name="Idotaccent" xMin="-184" yMin="-231" xMax="1055" yMax="1847">
      <component glyphName="I" x="0" y="0" flags="0x204"/>
      <component glyphName="dotaccent" x="399" y="768" flags="0x4"/>
    </TTGlyph>
    <TTGlyph name="Igrave" xMin="-184" yMin="-231" xMax="1055" yMax="1933">
      <component glyphName="I" x="0" y="0" flags="0x204"/>
      <component glyphName="grave" x="379" y="768" flags="0x4"/>
    </TTGlyph>
    <TTGlyph name="Imacron" xMin="-184" yMin="-231" xMax="1199" yMax="1839">
      <component glyphName="I" x="0" y="0" flags="0x204"/>
      <component glyphName="macron" x="408" y="768" flags="0x4"/>
    </TTGlyph>
    <TTGlyph name="Iogonek" xMin="-184" yMin="-618" xMax="1055" yMax="1542">
      <contour>
        <pt x="106" y="-618" on="1"/>
        <pt x="79" y="-618" on="0"/>
        <pt x="31" y="-605" on="0"/>
        <pt x="-5" y="-578" on="0"/>
        <pt x="-25" y="-537" on="0"/>
        <pt x="-25" y="-508" on="1"/>
        <pt x="-25" y="-445" on="0"/>
        <pt x="67" y="-308" on="0"/>
        <pt x="154" y="-229" on="1"/>
        <pt x="146" y="-231" on="0"/>
        <pt x="131" y="-231" on="0"/>
        <pt x="125" y="-231" on="1"/>
        <pt x="68" y="-231" on="0"/>
        <pt x="-43" y="-192" on="0"/>
        <pt x="-130" y="-115" on="0"/>
        <pt x="-184" y="-2" on="0"/>
        <pt x="-184" y="72" on="1"/>
        <pt x="-184" y="122" on="0"/>
        <pt x="-142" y="228" on="0"/>
        <pt x="-80" y="315" on="0"/>
        <pt x="-7" y="371" on="0"/>
        <pt x="25" y="371" on="1"/>
        <pt x="33" y="371" on="0"/>
        <pt x="49" y="358" on="0"/>
        <pt x="49" y="346" on="1"/>
        <pt x="49" y="332" on="0"/>
        <pt x="40" y="304" on="0"/>
        <pt x="29" y="265" on="0"/>
        <pt x="20" y="212" on="0"/>
        <pt x="20" y="174" on="1"/>
        <pt x="20" y="112" on="0"/>
        <pt x="53" y="10" on="0"/>
        <pt x="110" y="-63" on="0"/>
        <pt x="188" y="-104" on="0"/>
        <pt x="233" y="-104" on="1"/>
        <pt x="268" y="-104" on="0"/>
        <pt x="345" y="-76" on="0"/>
        <pt x="385" y="-45" on="1"/>
        <pt x="428" y="-12" on="0"/>
        <pt x="529" y="126" on="0"/>
        <pt x="629" y="316" on="0"/>
        <pt x="721" y="546" on="0"/>
        <pt x="792" y="796" on="0"/>
        <pt x="834" y="1057" on="0"/>
        <pt x="834" y="1182" on="1"/>
        <pt x="834" y="1249" on="0"/>
        <pt x="817" y="1339" on="0"/>
        <pt x="789" y="1395" on="0"/>
        <pt x="752" y="1419" on="0"/>
        <pt x="731" y="1419" on="1"/>
        <pt x="713" y="1419" on="0"/>
        <pt x="658" y="1394" on="0"/>
        <pt x="596" y="1333" on="0"/>
        <pt x="534" y="1231" on="0"/>
        <pt x="484" y="1077" on="0"/>
        <pt x="453" y="866" on="0"/>
        <pt x="453" y="727" on="1"/>
        <pt x="453" y="690" on="0"/>
        <pt x="463" y="587" on="0"/>
        <pt x="475" y="489" on="0"/>
        <pt x="485" y="412" on="0"/>
        <pt x="485" y="401" on="1"/>
        <pt x="485" y="381" on="0"/>
        <pt x="468" y="373" on="0"/>
        <pt x="457" y="373" on="1"/>
        <pt x="424" y="373" on="0"/>
        <pt x="357" y="417" on="0"/>
        <pt x="304" y="487" on="0"/>
        <pt x="270" y="577" on="0"/>
        <pt x="270" y="623" on="1"/>
        <pt x="270" y="671" on="0"/>
        <pt x="284" y="809" on="0"/>
        <pt x="320" y="969" on="0"/>
        <pt x="383" y="1143" on="0"/>
        <pt x="432" y="1227" on="1"/>
        <pt x="486" y="1320" on="0"/>
        <pt x="597" y="1442" on="0"/>
        <pt x="704" y="1513" on="0"/>
        <pt x="804" y="1542" on="0"/>
        <pt x="846" y="1542" on="1"/>
        <pt x="889" y="1542" on="0"/>
        <pt x="954" y="1501" on="0"/>
        <pt x="1001" y="1434" on="0"/>
        <pt x="1031" y="1350" on="0"/>
        <pt x="1048" y="1264" on="0"/>
        <pt x="1055" y="1183" on="0"/>
        <pt x="1055" y="1153" on="1"/>
        <pt x="1055" y="1015" on="0"/>
        <pt x="998" y="734" on="0"/>
        <pt x="896" y="465" on="0"/>
        <pt x="753" y="217" on="0"/>
        <pt x="580" y="7" on="0"/>
        <pt x="382" y="-155" on="0"/>
        <pt x="276" y="-203" on="1"/>
        <pt x="251" y="-214" on="0"/>
        <pt x="186" y="-266" on="0"/>
        <pt x="128" y="-336" on="0"/>
        <pt x="88" y="-419" on="0"/>
        <pt x="88" y="-461" on="1"/>
        <pt x="88" y="-498" on="0"/>
        <pt x="128" y="-549" on="0"/>
        <pt x="174" y="-549" on="1"/>
        <pt x="197" y="-549" on="0"/>
        <pt x="237" y="-540" on="0"/>
        <pt x="268" y="-528" on="0"/>
        <pt x="290" y="-516" on="0"/>
        <pt x="295" y="-512" on="1"/>
        <pt x="298" y="-509" on="0"/>
        <pt x="305" y="-504" on="0"/>
        <pt x="311" y="-504" on="1"/>
        <pt x="316" y="-504" on="0"/>
        <pt x="324" y="-513" on="0"/>
        <pt x="324" y="-518" on="1"/>
        <pt x="324" y="-528" on="0"/>
        <pt x="285" y="-562" on="0"/>
        <pt x="222" y="-594" on="0"/>
        <pt x="145" y="-618" on="0"/>
      </contour>
    </TTGlyph>
    <TTGlyph name="Itilde" xMin="-184" yMin="-231" xMax="1217" yMax="1890">
      <component glyphName="I" x="0" y="0" flags="0x204"/>
      <component glyphName="tilde" x="377" y="768" flags="0x4"/>
    </TTGlyph>
    <TTGlyph name="J" xMin="-410" yMin="-543" xMax="956" yMax="1540">
      <contour>
        <pt x="956" y="1161" on="1"/>
        <pt x="956" y="1021" on="0"/>
        <pt x="885" y="726" on="0"/>
        <pt x="760" y="434" on="0"/>
        <pt x="592" y="154" on="0"/>
        <pt x="400" y="-96" on="0"/>
        <pt x="191" y="-306" on="0"/>
        <pt x="-15" y="-458" on="0"/>
        <pt x="-209" y="-543" on="0"/>
        <pt x="-291" y="-543" on="1"/>
        <pt x="-317" y="-543" on="0"/>
        <pt x="-361" y="-524" on="0"/>
        <pt x="-392" y="-494" on="0"/>
        <pt x="-410" y="-455" on="0"/>
        <pt x="-410" y="-434" on="1"/>
        <pt x="-410" y="-374" on="0"/>
        <pt x="-324" y="-233" on="0"/>
        <pt x="-180" y="-86" on="0"/>
        <pt x="8" y="56" on="0"/>
        <pt x="214" y="178" on="0"/>
        <pt x="423" y="269" on="0"/>
        <pt x="516" y="291" on="1"/>
        <pt x="610" y="481" on="0"/>
        <pt x="723" y="908" on="0"/>
        <pt x="723" y="1143" on="1"/>
        <pt x="723" y="1221" on="0"/>
        <pt x="707" y="1327" on="0"/>
        <pt x="680" y="1390" on="0"/>
        <pt x="645" y="1417" on="0"/>
        <pt x="625" y="1417" on="1"/>
        <pt x="608" y="1417" on="0"/>
        <pt x="556" y="1392" on="0"/>
        <pt x="496" y="1330" on="0"/>
        <pt x="435" y="1227" on="0"/>
        <pt x="387" y="1073" on="0"/>
        <pt x="356" y="861" on="0"/>
        <pt x="356" y="721" on="1"/>
        <pt x="356" y="667" on="0"/>
        <pt x="364" y="569" on="0"/>
        <pt x="375" y="485" on="0"/>
        <pt x="383" y="417" on="0"/>
        <pt x="383" y="393" on="1"/>
        <pt x="383" y="384" on="0"/>
        <pt x="373" y="369" on="0"/>
        <pt x="360" y="369" on="1"/>
        <pt x="322" y="369" on="0"/>
        <pt x="254" y="421" on="0"/>
        <pt x="203" y="498" on="0"/>
        <pt x="174" y="588" on="0"/>
        <pt x="174" y="627" on="1"/>
        <pt x="174" y="721" on="0"/>
        <pt x="209" y="930" on="0"/>
        <pt x="276" y="1133" on="0"/>
        <pt x="374" y="1317" on="0"/>
        <pt x="500" y="1457" on="0"/>
        <pt x="653" y="1540" on="0"/>
        <pt x="741" y="1540" on="1"/>
        <pt x="784" y="1540" on="0"/>
        <pt x="850" y="1506" on="0"/>
        <pt x="898" y="1447" on="0"/>
        <pt x="930" y="1371" on="0"/>
        <pt x="948" y="1286" on="0"/>
        <pt x="956" y="1200" on="0"/>
      </contour>
      <contour>
        <pt x="240" y="-125" on="1"/>
        <pt x="305" y="-50" on="0"/>
        <pt x="422" y="118" on="0"/>
        <pt x="473" y="211" on="1"/>
        <pt x="312" y="150" on="0"/>
        <pt x="85" y="13" on="0"/>
        <pt x="-58" y="-117" on="0"/>
        <pt x="-123" y="-229" on="0"/>
        <pt x="-123" y="-264" on="1"/>
        <pt x="-123" y="-293" on="0"/>
        <pt x="-84" y="-311" on="0"/>
        <pt x="-59" y="-311" on="1"/>
        <pt x="-27" y="-311" on="0"/>
        <pt x="51" y="-281" on="0"/>
        <pt x="130" y="-230" on="0"/>
        <pt x="208" y="-163" on="0"/>
      </contour>
    </TTGlyph>
    <TTGlyph name="Jcircumflex" xMin="-410" yMin="-543" xMax="1046" yMax="1942">
      <component glyphName="J" x="0" y="0" flags="0x204"/>
      <component glyphName="circumflex" x="311" y="768" flags="0x4"/>
    </TTGlyph>
    <TTGlyph name="K" xMin="-262" yMin="-383" xMax="1452" yMax="1628">
      <contour>
        <pt x="821" y="1563" on="1"/>
        <pt x="849" y="1565" on="0"/>
        <pt x="839" y="1532" on="0"/>
        <pt x="805" y="1507" on="1"/>
        <pt x="800" y="1504" on="0"/>
        <pt x="789" y="1497" on="0"/>
        <pt x="768" y="1488" on="0"/>
        <pt x="736" y="1479" on="0"/>
        <pt x="711" y="1475" on="1"/>
        <pt x="627" y="1280" on="0"/>
        <pt x="458" y="867" on="0"/>
        <pt x="381" y="672" on="1"/>
        <pt x="528" y="836" on="0"/>
        <pt x="759" y="1111" on="0"/>
        <pt x="932" y="1326" on="0"/>
        <pt x="1048" y="1479" on="0"/>
        <pt x="1079" y="1522" on="1"/>
        <pt x="1041" y="1520" on="0"/>
        <pt x="986" y="1518" on="0"/>
        <pt x="981" y="1520" on="1"/>
        <pt x="974" y="1521" on="0"/>
        <pt x="975" y="1542" on="0"/>
        <pt x="985" y="1566" on="0"/>
        <pt x="1002" y="1588" on="0"/>
        <pt x="1012" y="1591" on="1"/>
        <pt x="1016" y="1592" on="0"/>
        <pt x="1083" y="1600" on="0"/>
        <pt x="1177" y="1610" on="0"/>
        <pt x="1286" y="1620" on="0"/>
        <pt x="1380" y="1627" on="0"/>
        <pt x="1444" y="1628" on="0"/>
        <pt x="1448" y="1624" on="1"/>
        <pt x="1452" y="1618" on="0"/>
        <pt x="1436" y="1594" on="0"/>
        <pt x="1410" y="1569" on="0"/>
        <pt x="1381" y="1548" on="0"/>
        <pt x="1372" y="1544" on="1"/>
        <pt x="1366" y="1541" on="0"/>
        <pt x="1302" y="1535" on="0"/>
        <pt x="1257" y="1532" on="1"/>
        <pt x="1186" y="1458" on="0"/>
        <pt x="1021" y="1278" on="0"/>
        <pt x="846" y="1084" on="0"/>
        <pt x="668" y="884" on="0"/>
        <pt x="584" y="791" on="1"/>
        <pt x="584" y="649" on="0"/>
        <pt x="607" y="376" on="0"/>
        <pt x="649" y="131" on="0"/>
        <pt x="711" y="-77" on="0"/>
        <pt x="789" y="-228" on="0"/>
        <pt x="883" y="-313" on="0"/>
        <pt x="936" y="-313" on="1"/>
        <pt x="985" y="-313" on="0"/>
        <pt x="1057" y="-261" on="0"/>
        <pt x="1110" y="-199" on="0"/>
        <pt x="1149" y="-147" on="0"/>
        <pt x="1165" y="-147" on="1"/>
        <pt x="1179" y="-147" on="0"/>
        <pt x="1186" y="-165" on="0"/>
        <pt x="1186" y="-174" on="1"/>
        <pt x="1186" y="-206" on="0"/>
        <pt x="1156" y="-280" on="0"/>
        <pt x="1092" y="-342" on="0"/>
        <pt x="991" y="-383" on="0"/>
        <pt x="920" y="-383" on="1"/>
        <pt x="816" y="-383" on="0"/>
        <pt x="662" y="-298" on="0"/>
        <pt x="549" y="-153" on="0"/>
        <pt x="474" y="39" on="0"/>
        <pt x="426" y="254" on="0"/>
        <pt x="401" y="479" on="0"/>
        <pt x="395" y="584" on="1"/>
        <pt x="374" y="561" on="0"/>
        <pt x="329" y="514" on="0"/>
        <pt x="309" y="494" on="1"/>
        <pt x="268" y="391" on="0"/>
        <pt x="199" y="212" on="0"/>
        <pt x="145" y="71" on="0"/>
        <pt x="106" y="-29" on="0"/>
        <pt x="96" y="-53" on="1"/>
        <pt x="159" y="-47" on="0"/>
        <pt x="226" y="-49" on="0"/>
        <pt x="221" y="-63" on="1"/>
        <pt x="216" y="-80" on="0"/>
        <pt x="184" y="-105" on="0"/>
        <pt x="156" y="-119" on="1"/>
        <pt x="146" y="-124" on="0"/>
        <pt x="87" y="-133" on="0"/>
        <pt x="8" y="-141" on="0"/>
        <pt x="-81" y="-148" on="0"/>
        <pt x="-159" y="-152" on="0"/>
        <pt x="-218" y="-156" on="0"/>
        <pt x="-227" y="-156" on="1"/>
        <pt x="-256" y="-159" on="0"/>
        <pt x="-262" y="-128" on="0"/>
        <pt x="-227" y="-100" on="1"/>
        <pt x="-220" y="-94" on="0"/>
        <pt x="-172" y="-86" on="0"/>
        <pt x="-119" y="-78" on="1"/>
        <pt x="11" y="232" on="0"/>
        <pt x="221" y="745" on="0"/>
        <pt x="378" y="1135" on="0"/>
        <pt x="480" y="1392" on="0"/>
        <pt x="502" y="1448" on="1"/>
        <pt x="439" y="1442" on="0"/>
        <pt x="385" y="1446" on="0"/>
        <pt x="393" y="1458" on="1"/>
        <pt x="399" y="1474" on="0"/>
        <pt x="430" y="1514" on="0"/>
        <pt x="459" y="1528" on="1"/>
        <pt x="469" y="1532" on="0"/>
        <pt x="525" y="1541" on="0"/>
        <pt x="598" y="1548" on="0"/>
        <pt x="682" y="1554" on="0"/>
        <pt x="755" y="1559" on="0"/>
        <pt x="811" y="1562" on="0"/>
      </contour>
    </TTGlyph>
    <TTGlyph name="Kcommaaccent" xMin="-262" yMin="-505" xMax="1452" yMax="1628">
      <component glyphName="K" x="0" y="0" flags="0x204"/>
      <component glyphName="commaaccent" x="164" y="-81" flags="0x4"/>
    </TTGlyph>
    <TTGlyph name="L" xMin="-492" yMin="-279" xMax="1202" yMax="1620">
      <contour>
        <pt x="1202" y="1366" on="1"/>
        <pt x="1202" y="1328" on="0"/>
        <pt x="1177" y="1238" on="0"/>
        <pt x="1132" y="1148" on="0"/>
        <pt x="1070" y="1065" on="0"/>
        <pt x="998" y="1000" on="0"/>
        <pt x="919" y="961" on="0"/>
        <pt x="879" y="961" on="1"/>
        <pt x="868" y="961" on="0"/>
        <pt x="858" y="972" on="0"/>
        <pt x="858" y="977" on="1"/>
        <pt x="858" y="990" on="0"/>
        <pt x="881" y="1025" on="0"/>
        <pt x="916" y="1074" on="0"/>
        <pt x="956" y="1138" on="0"/>
        <pt x="991" y="1220" on="0"/>
        <pt x="1014" y="1323" on="0"/>
        <pt x="1014" y="1386" on="1"/>
        <pt x="1014" y="1422" on="0"/>
        <pt x="994" y="1475" on="0"/>
        <pt x="961" y="1510" on="0"/>
        <pt x="917" y="1526" on="0"/>
        <pt x="893" y="1526" on="1"/>
        <pt x="834" y="1526" on="0"/>
        <pt x="750" y="1457" on="0"/>
        <pt x="683" y="1326" on="0"/>
        <pt x="621" y="1138" on="0"/>
        <pt x="584" y="1018" on="1"/>
        <pt x="563" y="950" on="0"/>
        <pt x="514" y="786" on="0"/>
        <pt x="453" y="606" on="0"/>
        <pt x="376" y="416" on="0"/>
        <pt x="278" y="231" on="0"/>
        <pt x="155" y="57" on="0"/>
        <pt x="78" y="-18" on="1"/>
        <pt x="118" y="-21" on="0"/>
        <pt x="192" y="-32" on="0"/>
        <pt x="262" y="-42" on="0"/>
        <pt x="332" y="-49" on="0"/>
        <pt x="369" y="-49" on="1"/>
        <pt x="453" y="-49" on="0"/>
        <pt x="596" y="2" on="0"/>
        <pt x="700" y="91" on="0"/>
        <pt x="758" y="212" on="0"/>
        <pt x="758" y="283" on="1"/>
        <pt x="758" y="295" on="0"/>
        <pt x="752" y="313" on="0"/>
        <pt x="752" y="324" on="1"/>
        <pt x="752" y="335" on="0"/>
        <pt x="764" y="344" on="0"/>
        <pt x="770" y="344" on="1"/>
        <pt x="799" y="344" on="0"/>
        <pt x="844" y="307" on="0"/>
        <pt x="875" y="253" on="0"/>
        <pt x="891" y="193" on="0"/>
        <pt x="891" y="170" on="1"/>
        <pt x="891" y="111" on="0"/>
        <pt x="837" y="-24" on="0"/>
        <pt x="725" y="-138" on="0"/>
        <pt x="551" y="-213" on="0"/>
        <pt x="430" y="-213" on="1"/>
        <pt x="344" y="-213" on="0"/>
        <pt x="207" y="-195" on="0"/>
        <pt x="95" y="-167" on="0"/>
        <pt x="3" y="-134" on="0"/>
        <pt x="-37" y="-119" on="1"/>
        <pt x="-98" y="-166" on="0"/>
        <pt x="-200" y="-228" on="0"/>
        <pt x="-284" y="-264" on="0"/>
        <pt x="-351" y="-279" on="0"/>
        <pt x="-377" y="-279" on="1"/>
        <pt x="-411" y="-279" on="0"/>
        <pt x="-455" y="-266" on="0"/>
        <pt x="-481" y="-246" on="0"/>
        <pt x="-492" y="-221" on="0"/>
        <pt x="-492" y="-209" on="1"/>
        <pt x="-492" y="-168" on="0"/>
        <pt x="-432" y="-98" on="0"/>
        <pt x="-318" y="-45" on="0"/>
        <pt x="-152" y="-15" on="0"/>
        <pt x="-47" y="-14" on="1"/>
        <pt x="-9" y="42" on="0"/>
        <pt x="61" y="176" on="0"/>
        <pt x="122" y="316" on="0"/>
        <pt x="175" y="456" on="0"/>
        <pt x="218" y="581" on="0"/>
        <pt x="252" y="684" on="0"/>
        <pt x="264" y="717" on="1"/>
        <pt x="292" y="797" on="0"/>
        <pt x="364" y="993" on="0"/>
        <pt x="455" y="1194" on="0"/>
        <pt x="568" y="1384" on="0"/>
        <pt x="707" y="1531" on="0"/>
        <pt x="875" y="1620" on="0"/>
        <pt x="975" y="1620" on="1"/>
        <pt x="1023" y="1620" on="0"/>
        <pt x="1105" y="1588" on="0"/>
        <pt x="1167" y="1524" on="0"/>
        <pt x="1202" y="1429" on="0"/>
      </contour>
      <contour>
        <pt x="-297" y="-193" on="1"/>
        <pt x="-246" y="-193" on="0"/>
        <pt x="-155" y="-141" on="0"/>
        <pt x="-113" y="-94" on="1"/>
        <pt x="-155" y="-82" on="0"/>
        <pt x="-203" y="-82" on="1"/>
        <pt x="-230" y="-82" on="0"/>
        <pt x="-278" y="-94" on="0"/>
        <pt x="-314" y="-114" on="0"/>
        <pt x="-336" y="-142" on="0"/>
        <pt x="-336" y="-158" on="1"/>
        <pt x="-336" y="-172" on="0"/>
        <pt x="-316" y="-193" on="0"/>
      </contour>
    </TTGlyph>
    <TTGlyph name="Lacute" xMin="-492" yMin="-279" xMax="1309" yMax="2020">
      <component glyphName="L" x="0" y="0" flags="0x204"/>
      <component glyphName="acute" x="588" y="844" flags="0x4"/>
    </TTGlyph>
    <TTGlyph name="Lcaron" xMin="-492" yMin="-279" xMax="1520" yMax="1620">
      <component glyphName="L" x="0" y="0" flags="0x4"/>
      <component glyphName="quoteright" x="1012" y="0" flags="0x4"/>
    </TTGlyph>
    <TTGlyph name="Lcommaaccent" xMin="-492" yMin="-646" xMax="1202" yMax="1620">
      <component glyphName="L" x="0" y="0" flags="0x204"/>
      <component glyphName="commaaccent" x="57" y="-222" flags="0x4"/>
    </TTGlyph>
    <TTGlyph name="Ldot" xMin="-492" yMin="-279" xMax="1202" yMax="1620">
      <component glyphName="L" x="0" y="0" flags="0x4"/>
      <component glyphName="periodcentered" x="823" y="0" flags="0x4"/>
    </TTGlyph>
    <TTGlyph name="Lslash" xMin="-492" yMin="-279" xMax="1202" yMax="1620">
      <contour>
        <pt x="1202" y="1366" on="1"/>
        <pt x="1202" y="1328" on="0"/>
        <pt x="1177" y="1238" on="0"/>
        <pt x="1132" y="1148" on="0"/>
        <pt x="1070" y="1065" on="0"/>
        <pt x="998" y="1000" on="0"/>
        <pt x="919" y="961" on="0"/>
        <pt x="879" y="961" on="1"/>
        <pt x="868" y="961" on="0"/>
        <pt x="858" y="972" on="0"/>
        <pt x="858" y="977" on="1"/>
        <pt x="858" y="990" on="0"/>
        <pt x="881" y="1025" on="0"/>
        <pt x="916" y="1074" on="0"/>
        <pt x="956" y="1138" on="0"/>
        <pt x="991" y="1220" on="0"/>
        <pt x="1014" y="1323" on="0"/>
        <pt x="1014" y="1386" on="1"/>
        <pt x="1014" y="1422" on="0"/>
        <pt x="994" y="1475" on="0"/>
        <pt x="961" y="1510" on="0"/>
        <pt x="917" y="1526" on="0"/>
        <pt x="893" y="1526" on="1"/>
        <pt x="834" y="1526" on="0"/>
        <pt x="750" y="1457" on="0"/>
        <pt x="683" y="1326" on="0"/>
        <pt x="621" y="1138" on="0"/>
        <pt x="584" y="1018" on="1"/>
        <pt x="559" y="940" on="0"/>
        <pt x="504" y="750" on="0"/>
        <pt x="467" y="645" on="1"/>
        <pt x="707" y="733" on="1"/>
        <pt x="729" y="739" on="0"/>
        <pt x="749" y="727" on="0"/>
        <pt x="750" y="701" on="0"/>
        <pt x="737" y="667" on="0"/>
        <pt x="716" y="637" on="0"/>
        <pt x="692" y="615" on="0"/>
        <pt x="682" y="614" on="1"/>
        <pt x="629" y="600" on="0"/>
        <pt x="497" y="562" on="0"/>
        <pt x="426" y="541" on="1"/>
        <pt x="397" y="466" on="0"/>
        <pt x="326" y="317" on="0"/>
        <pt x="241" y="174" on="0"/>
        <pt x="139" y="41" on="0"/>
        <pt x="78" y="-18" on="1"/>
        <pt x="118" y="-21" on="0"/>
        <pt x="192" y="-32" on="0"/>
        <pt x="262" y="-42" on="0"/>
        <pt x="332" y="-49" on="0"/>
        <pt x="369" y="-49" on="1"/>
        <pt x="453" y="-49" on="0"/>
        <pt x="596" y="2" on="0"/>
        <pt x="700" y="91" on="0"/>
        <pt x="758" y="212" on="0"/>
        <pt x="758" y="283" on="1"/>
        <pt x="758" y="295" on="0"/>
        <pt x="752" y="313" on="0"/>
        <pt x="752" y="324" on="1"/>
        <pt x="752" y="335" on="0"/>
        <pt x="764" y="344" on="0"/>
        <pt x="770" y="344" on="1"/>
        <pt x="799" y="344" on="0"/>
        <pt x="844" y="307" on="0"/>
        <pt x="875" y="253" on="0"/>
        <pt x="891" y="193" on="0"/>
        <pt x="891" y="170" on="1"/>
        <pt x="891" y="111" on="0"/>
        <pt x="837" y="-24" on="0"/>
        <pt x="725" y="-138" on="0"/>
        <pt x="551" y="-213" on="0"/>
        <pt x="430" y="-213" on="1"/>
        <pt x="344" y="-213" on="0"/>
        <pt x="207" y="-195" on="0"/>
        <pt x="95" y="-167" on="0"/>
        <pt x="3" y="-134" on="0"/>
        <pt x="-37" y="-119" on="1"/>
        <pt x="-98" y="-166" on="0"/>
        <pt x="-200" y="-228" on="0"/>
        <pt x="-284" y="-264" on="0"/>
        <pt x="-351" y="-279" on="0"/>
        <pt x="-377" y="-279" on="1"/>
        <pt x="-411" y="-279" on="0"/>
        <pt x="-455" y="-266" on="0"/>
        <pt x="-481" y="-246" on="0"/>
        <pt x="-492" y="-221" on="0"/>
        <pt x="-492" y="-209" on="1"/>
        <pt x="-492" y="-168" on="0"/>
        <pt x="-432" y="-98" on="0"/>
        <pt x="-318" y="-45" on="0"/>
        <pt x="-152" y="-15" on="0"/>
        <pt x="-47" y="-14" on="1"/>
        <pt x="-13" y="36" on="0"/>
        <pt x="49" y="152" on="0"/>
        <pt x="105" y="275" on="0"/>
        <pt x="155" y="400" on="0"/>
        <pt x="176" y="459" on="1"/>
        <pt x="121" y="441" on="0"/>
        <pt x="29" y="410" on="0"/>
        <pt x="-6" y="398" on="1"/>
        <pt x="-46" y="384" on="0"/>
        <pt x="-80" y="373" on="1"/>
        <pt x="-89" y="370" on="0"/>
        <pt x="-92" y="379" on="1"/>
        <pt x="-94" y="381" on="0"/>
        <pt x="-89" y="393" on="0"/>
        <pt x="-84" y="399" on="1"/>
        <pt x="-78" y="430" on="1"/>
        <pt x="-61" y="450" on="0"/>
        <pt x="-32" y="465" on="0"/>
        <pt x="-10" y="471" on="1"/>
        <pt x="207" y="551" on="1"/>
        <pt x="225" y="602" on="0"/>
        <pt x="253" y="688" on="0"/>
        <pt x="264" y="717" on="1"/>
        <pt x="292" y="797" on="0"/>
        <pt x="364" y="993" on="0"/>
        <pt x="455" y="1194" on="0"/>
        <pt x="568" y="1384" on="0"/>
        <pt x="707" y="1531" on="0"/>
        <pt x="875" y="1620" on="0"/>
        <pt x="975" y="1620" on="1"/>
        <pt x="1023" y="1620" on="0"/>
        <pt x="1105" y="1588" on="0"/>
        <pt x="1167" y="1524" on="0"/>
        <pt x="1202" y="1429" on="0"/>
      </contour>
      <contour>
        <pt x="-297" y="-193" on="1"/>
        <pt x="-246" y="-193" on="0"/>
        <pt x="-155" y="-141" on="0"/>
        <pt x="-113" y="-94" on="1"/>
        <pt x="-155" y="-82" on="0"/>
        <pt x="-203" y="-82" on="1"/>
        <pt x="-230" y="-82" on="0"/>
        <pt x="-278" y="-94" on="0"/>
        <pt x="-314" y="-114" on="0"/>
        <pt x="-336" y="-142" on="0"/>
        <pt x="-336" y="-158" on="1"/>
        <pt x="-336" y="-172" on="0"/>
        <pt x="-316" y="-193" on="0"/>
      </contour>
    </TTGlyph>
    <TTGlyph name="M" xMin="-391" yMin="-241" xMax="1225" yMax="1578">
      <contour>
        <pt x="43" y="-47" on="1"/>
        <pt x="38" y="-64" on="0"/>
        <pt x="5" y="-109" on="0"/>
        <pt x="-23" y="-123" on="1"/>
        <pt x="-33" y="-128" on="0"/>
        <pt x="-85" y="-137" on="0"/>
        <pt x="-154" y="-145" on="0"/>
        <pt x="-232" y="-152" on="0"/>
        <pt x="-301" y="-156" on="0"/>
        <pt x="-353" y="-159" on="0"/>
        <pt x="-362" y="-160" on="1"/>
        <pt x="-391" y="-163" on="0"/>
        <pt x="-381" y="-128" on="0"/>
        <pt x="-346" y="-100" on="1"/>
        <pt x="-342" y="-96" on="0"/>
        <pt x="-324" y="-85" on="0"/>
        <pt x="-285" y="-72" on="0"/>
        <pt x="-216" y="-57" on="0"/>
        <pt x="-160" y="-49" on="1"/>
        <pt x="-68" y="134" on="0"/>
        <pt x="94" y="450" on="0"/>
        <pt x="156" y="568" on="1"/>
        <pt x="228" y="706" on="0"/>
        <pt x="289" y="821" on="1"/>
        <pt x="367" y="972" on="0"/>
        <pt x="478" y="1179" on="0"/>
        <pt x="552" y="1310" on="0"/>
        <pt x="594" y="1378" on="0"/>
        <pt x="602" y="1391" on="1"/>
        <pt x="611" y="1403" on="0"/>
        <pt x="626" y="1409" on="0"/>
        <pt x="641" y="1405" on="0"/>
        <pt x="655" y="1392" on="0"/>
        <pt x="662" y="1386" on="1"/>
        <pt x="676" y="1374" on="0"/>
        <pt x="680" y="1329" on="0"/>
        <pt x="672" y="1286" on="1"/>
        <pt x="665" y="1256" on="0"/>
        <pt x="644" y="1149" on="1"/>
        <pt x="635" y="1103" on="0"/>
        <pt x="608" y="968" on="0"/>
        <pt x="571" y="778" on="0"/>
        <pt x="523" y="527" on="0"/>
        <pt x="492" y="365" on="1"/>
        <pt x="526" y="430" on="0"/>
        <pt x="613" y="598" on="0"/>
        <pt x="710" y="786" on="0"/>
        <pt x="812" y="982" on="0"/>
        <pt x="909" y="1169" on="0"/>
        <pt x="996" y="1335" on="0"/>
        <pt x="1063" y="1463" on="0"/>
        <pt x="1105" y="1541" on="0"/>
        <pt x="1108" y="1546" on="1"/>
        <pt x="1116" y="1560" on="0"/>
        <pt x="1130" y="1574" on="0"/>
        <pt x="1143" y="1578" on="0"/>
        <pt x="1155" y="1575" on="0"/>
        <pt x="1163" y="1571" on="1"/>
        <pt x="1171" y="1567" on="0"/>
        <pt x="1194" y="1554" on="0"/>
        <pt x="1214" y="1535" on="0"/>
        <pt x="1225" y="1509" on="0"/>
        <pt x="1221" y="1493" on="1"/>
        <pt x="1209" y="1446" on="0"/>
        <pt x="1164" y="1260" on="1"/>
        <pt x="1145" y="1180" on="0"/>
        <pt x="1088" y="945" on="0"/>
        <pt x="1009" y="613" on="0"/>
        <pt x="904" y="172" on="0"/>
        <pt x="836" y="-113" on="1"/>
        <pt x="868" y="-110" on="0"/>
        <pt x="923" y="-106" on="0"/>
        <pt x="940" y="-106" on="1"/>
        <pt x="970" y="-106" on="0"/>
        <pt x="1000" y="-113" on="0"/>
        <pt x="1008" y="-126" on="0"/>
        <pt x="1000" y="-144" on="0"/>
        <pt x="991" y="-154" on="1"/>
        <pt x="983" y="-164" on="0"/>
        <pt x="974" y="-180" on="0"/>
        <pt x="958" y="-193" on="0"/>
        <pt x="928" y="-203" on="0"/>
        <pt x="899" y="-207" on="1"/>
        <pt x="880" y="-210" on="0"/>
        <pt x="808" y="-215" on="0"/>
        <pt x="720" y="-221" on="0"/>
        <pt x="625" y="-227" on="0"/>
        <pt x="541" y="-233" on="0"/>
        <pt x="476" y="-237" on="0"/>
        <pt x="463" y="-238" on="1"/>
        <pt x="423" y="-241" on="0"/>
        <pt x="414" y="-217" on="0"/>
        <pt x="440" y="-188" on="1"/>
        <pt x="451" y="-173" on="0"/>
        <pt x="498" y="-157" on="0"/>
        <pt x="537" y="-152" on="1"/>
        <pt x="545" y="-150" on="0"/>
        <pt x="581" y="-144" on="0"/>
        <pt x="604" y="-141" on="1"/>
        <pt x="905" y="1018" on="1"/>
        <pt x="800" y="813" on="0"/>
        <pt x="637" y="497" on="0"/>
        <pt x="516" y="260" on="0"/>
        <pt x="430" y="93" on="0"/>
        <pt x="402" y="38" on="1"/>
        <pt x="335" y="-92" on="0"/>
        <pt x="319" y="-121" on="1"/>
        <pt x="310" y="-139" on="0"/>
        <pt x="292" y="-171" on="0"/>
        <pt x="272" y="-196" on="0"/>
        <pt x="248" y="-211" on="0"/>
        <pt x="233" y="-211" on="1"/>
        <pt x="203" y="-211" on="0"/>
        <pt x="181" y="-181" on="0"/>
        <pt x="186" y="-154" on="1"/>
        <pt x="193" y="-126" on="0"/>
        <pt x="220" y="1" on="1"/>
        <pt x="232" y="55" on="0"/>
        <pt x="266" y="216" on="0"/>
        <pt x="315" y="447" on="0"/>
        <pt x="380" y="754" on="0"/>
        <pt x="422" y="954" on="1"/>
        <pt x="-74" y="-39" on="1"/>
        <pt x="-9" y="-31" on="0"/>
        <pt x="48" y="-32" on="0"/>
      </contour>
    </TTGlyph>
    <TTGlyph name="N" xMin="-786" yMin="-524" xMax="1649" yMax="1743">
      <contour>
        <pt x="-545" y="-367" on="1"/>
        <pt x="-457" y="-367" on="0"/>
        <pt x="-303" y="-293" on="0"/>
        <pt x="-155" y="-126" on="0"/>
        <pt x="-5" y="145" on="0"/>
        <pt x="163" y="539" on="0"/>
        <pt x="358" y="1066" on="0"/>
        <pt x="477" y="1405" on="1"/>
        <pt x="448" y="1403" on="0"/>
        <pt x="392" y="1395" on="0"/>
        <pt x="345" y="1389" on="0"/>
        <pt x="314" y="1388" on="0"/>
        <pt x="311" y="1391" on="1"/>
        <pt x="305" y="1398" on="0"/>
        <pt x="307" y="1411" on="0"/>
        <pt x="324" y="1434" on="1"/>
        <pt x="335" y="1449" on="0"/>
        <pt x="380" y="1475" on="0"/>
        <pt x="403" y="1475" on="1"/>
        <pt x="416" y="1475" on="0"/>
        <pt x="509" y="1497" on="0"/>
        <pt x="575" y="1503" on="1"/>
        <pt x="604" y="1503" on="0"/>
        <pt x="658" y="1499" on="0"/>
        <pt x="668" y="1487" on="1"/>
        <pt x="675" y="1478" on="0"/>
        <pt x="690" y="1460" on="0"/>
        <pt x="704" y="1437" on="0"/>
        <pt x="713" y="1409" on="0"/>
        <pt x="713" y="1391" on="1"/>
        <pt x="586" y="317" on="1"/>
        <pt x="667" y="513" on="0"/>
        <pt x="816" y="876" on="0"/>
        <pt x="965" y="1193" on="0"/>
        <pt x="1118" y="1454" on="0"/>
        <pt x="1289" y="1640" on="0"/>
        <pt x="1482" y="1743" on="0"/>
        <pt x="1595" y="1743" on="1"/>
        <pt x="1621" y="1743" on="0"/>
        <pt x="1649" y="1710" on="0"/>
        <pt x="1649" y="1686" on="1"/>
        <pt x="1649" y="1669" on="0"/>
        <pt x="1642" y="1622" on="0"/>
        <pt x="1628" y="1579" on="0"/>
        <pt x="1608" y="1548" on="0"/>
        <pt x="1595" y="1548" on="1"/>
        <pt x="1584" y="1548" on="0"/>
        <pt x="1571" y="1558" on="0"/>
        <pt x="1556" y="1569" on="0"/>
        <pt x="1536" y="1579" on="0"/>
        <pt x="1518" y="1579" on="1"/>
        <pt x="1416" y="1579" on="0"/>
        <pt x="1245" y="1473" on="0"/>
        <pt x="1087" y="1268" on="0"/>
        <pt x="936" y="970" on="0"/>
        <pt x="773" y="587" on="0"/>
        <pt x="592" y="123" on="0"/>
        <pt x="483" y="-145" on="1"/>
        <pt x="480" y="-160" on="0"/>
        <pt x="452" y="-179" on="0"/>
        <pt x="418" y="-193" on="0"/>
        <pt x="385" y="-201" on="0"/>
        <pt x="377" y="-205" on="1"/>
        <pt x="369" y="-209" on="0"/>
        <pt x="354" y="-203" on="0"/>
        <pt x="344" y="-190" on="0"/>
        <pt x="338" y="-169" on="0"/>
        <pt x="340" y="-158" on="1"/>
        <pt x="364" y="37" on="0"/>
        <pt x="389" y="264" on="1"/>
        <pt x="399" y="361" on="0"/>
        <pt x="423" y="587" on="0"/>
        <pt x="447" y="838" on="0"/>
        <pt x="470" y="1110" on="0"/>
        <pt x="481" y="1251" on="1"/>
        <pt x="405" y="1035" on="0"/>
        <pt x="260" y="605" on="0"/>
        <pt x="112" y="210" on="0"/>
        <pt x="-44" y="-130" on="0"/>
        <pt x="-219" y="-381" on="0"/>
        <pt x="-417" y="-524" on="0"/>
        <pt x="-532" y="-524" on="1"/>
        <pt x="-585" y="-524" on="0"/>
        <pt x="-677" y="-480" on="0"/>
        <pt x="-746" y="-418" on="0"/>
        <pt x="-786" y="-349" on="0"/>
        <pt x="-786" y="-324" on="1"/>
        <pt x="-786" y="-285" on="0"/>
        <pt x="-758" y="-285" on="1"/>
        <pt x="-745" y="-285" on="0"/>
        <pt x="-728" y="-297" on="0"/>
        <pt x="-710" y="-315" on="0"/>
        <pt x="-687" y="-337" on="0"/>
        <pt x="-648" y="-355" on="0"/>
        <pt x="-589" y="-367" on="0"/>
      </contour>
    </TTGlyph>
    <TTGlyph name="Nacute" xMin="-786" yMin="-524" xMax="1649" yMax="1950">
      <component glyphName="N" x="0" y="0" flags="0x204"/>
      <component glyphName="acute" x="487" y="774" flags="0x4"/>
    </TTGlyph>
    <TTGlyph name="Ncaron" xMin="-786" yMin="-524" xMax="1649" yMax="1945">
      <component glyphName="N" x="0" y="0" flags="0x204"/>
      <component glyphName="caron" x="414" y="774" flags="0x4"/>
    </TTGlyph>
    <TTGlyph name="Ncommaaccent" xMin="-786" yMin="-581" xMax="1649" yMax="1743">
      <component glyphName="N" x="0" y="0" flags="0x204"/>
      <component glyphName="commaaccent" x="-15" y="-157" flags="0x4"/>
    </TTGlyph>
    <TTGlyph name="Ntilde" xMin="-786" yMin="-524" xMax="1649" yMax="1896">
      <component glyphName="N" x="0" y="0" flags="0x204"/>
      <component glyphName="tilde" x="412" y="774" flags="0x4"/>
    </TTGlyph>
    <TTGlyph name="O" xMin="-51" yMin="-229" xMax="1128" yMax="1538">
      <contour>
        <pt x="1128" y="1374" on="1"/>
        <pt x="1128" y="1330" on="0"/>
        <pt x="1108" y="1254" on="0"/>
        <pt x="1076" y="1189" on="0"/>
        <pt x="1034" y="1137" on="0"/>
        <pt x="1012" y="1116" on="1"/>
        <pt x="1040" y="1116" on="0"/>
        <pt x="1083" y="1094" on="0"/>
        <pt x="1083" y="1059" on="1"/>
        <pt x="1083" y="985" on="0"/>
        <pt x="1037" y="795" on="0"/>
        <pt x="956" y="586" on="0"/>
        <pt x="845" y="368" on="0"/>
        <pt x="715" y="164" on="0"/>
        <pt x="572" y="-16" on="0"/>
        <pt x="426" y="-151" on="0"/>
        <pt x="283" y="-229" on="0"/>
        <pt x="219" y="-229" on="1"/>
        <pt x="171" y="-229" on="0"/>
        <pt x="74" y="-196" on="0"/>
        <pt x="-3" y="-122" on="0"/>
        <pt x="-51" y="-1" on="0"/>
        <pt x="-51" y="86" on="1"/>
        <pt x="-51" y="200" on="0"/>
        <pt x="7" y="447" on="0"/>
        <pt x="109" y="694" on="0"/>
        <pt x="245" y="933" on="0"/>
        <pt x="402" y="1148" on="0"/>
        <pt x="571" y="1331" on="0"/>
        <pt x="737" y="1463" on="0"/>
        <pt x="893" y="1538" on="0"/>
        <pt x="958" y="1538" on="1"/>
        <pt x="1008" y="1538" on="0"/>
        <pt x="1074" y="1509" on="0"/>
        <pt x="1113" y="1463" on="0"/>
        <pt x="1128" y="1404" on="0"/>
      </contour>
      <contour>
        <pt x="330" y="-86" on="1"/>
        <pt x="364" y="-86" on="0"/>
        <pt x="449" y="-22" on="0"/>
        <pt x="541" y="90" on="0"/>
        <pt x="636" y="242" on="0"/>
        <pt x="726" y="417" on="0"/>
        <pt x="807" y="607" on="0"/>
        <pt x="871" y="797" on="0"/>
        <pt x="913" y="977" on="0"/>
        <pt x="920" y="1055" on="1"/>
        <pt x="909" y="1049" on="0"/>
        <pt x="889" y="1044" on="0"/>
        <pt x="883" y="1044" on="1"/>
        <pt x="869" y="1044" on="0"/>
        <pt x="858" y="1050" on="0"/>
        <pt x="858" y="1067" on="1"/>
        <pt x="862" y="1097" on="0"/>
        <pt x="898" y="1167" on="0"/>
        <pt x="938" y="1242" on="0"/>
        <pt x="969" y="1322" on="0"/>
        <pt x="969" y="1362" on="1"/>
        <pt x="969" y="1390" on="0"/>
        <pt x="948" y="1436" on="0"/>
        <pt x="918" y="1436" on="1"/>
        <pt x="875" y="1436" on="0"/>
        <pt x="768" y="1363" on="0"/>
        <pt x="651" y="1235" on="0"/>
        <pt x="530" y="1060" on="0"/>
        <pt x="416" y="856" on="0"/>
        <pt x="316" y="632" on="0"/>
        <pt x="242" y="406" on="0"/>
        <pt x="199" y="186" on="0"/>
        <pt x="199" y="88" on="1"/>
        <pt x="199" y="51" on="0"/>
        <pt x="212" y="-12" on="0"/>
        <pt x="243" y="-59" on="0"/>
        <pt x="293" y="-86" on="0"/>
      </contour>
    </TTGlyph>
    <TTGlyph name="OE" xMin="-51" yMin="-231" xMax="1808" yMax="1581">
      <contour>
        <pt x="872" y="-231" on="1"/>
        <pt x="815" y="-231" on="0"/>
        <pt x="719" y="-196" on="0"/>
        <pt x="648" y="-130" on="0"/>
        <pt x="605" y="-36" on="0"/>
        <pt x="602" y="23" on="1"/>
        <pt x="554" y="-33" on="0"/>
        <pt x="455" y="-126" on="0"/>
        <pt x="357" y="-192" on="0"/>
        <pt x="263" y="-229" on="0"/>
        <pt x="219" y="-229" on="1"/>
        <pt x="171" y="-229" on="0"/>
        <pt x="74" y="-196" on="0"/>
        <pt x="-3" y="-122" on="0"/>
        <pt x="-51" y="-1" on="0"/>
        <pt x="-51" y="86" on="1"/>
        <pt x="-51" y="200" on="0"/>
        <pt x="7" y="447" on="0"/>
        <pt x="109" y="694" on="0"/>
        <pt x="245" y="933" on="0"/>
        <pt x="402" y="1148" on="0"/>
        <pt x="571" y="1331" on="0"/>
        <pt x="737" y="1463" on="0"/>
        <pt x="893" y="1538" on="0"/>
        <pt x="958" y="1538" on="1"/>
        <pt x="1008" y="1538" on="0"/>
        <pt x="1074" y="1509" on="0"/>
        <pt x="1113" y="1463" on="0"/>
        <pt x="1128" y="1404" on="0"/>
        <pt x="1128" y="1374" on="1"/>
        <pt x="1128" y="1365" on="0"/>
        <pt x="1128" y="1349" on="0"/>
        <pt x="1126" y="1341" on="1"/>
        <pt x="1171" y="1393" on="0"/>
        <pt x="1275" y="1482" on="0"/>
        <pt x="1389" y="1545" on="0"/>
        <pt x="1511" y="1581" on="0"/>
        <pt x="1573" y="1581" on="1"/>
        <pt x="1617" y="1581" on="0"/>
        <pt x="1701" y="1562" on="0"/>
        <pt x="1767" y="1513" on="0"/>
        <pt x="1808" y="1428" on="0"/>
        <pt x="1808" y="1362" on="1"/>
        <pt x="1808" y="1311" on="0"/>
        <pt x="1764" y="1217" on="0"/>
        <pt x="1695" y="1144" on="0"/>
        <pt x="1612" y="1100" on="0"/>
        <pt x="1573" y="1100" on="1"/>
        <pt x="1567" y="1100" on="0"/>
        <pt x="1554" y="1111" on="0"/>
        <pt x="1554" y="1120" on="1"/>
        <pt x="1554" y="1137" on="0"/>
        <pt x="1575" y="1186" on="0"/>
        <pt x="1599" y="1247" on="0"/>
        <pt x="1620" y="1317" on="0"/>
        <pt x="1620" y="1354" on="1"/>
        <pt x="1620" y="1419" on="0"/>
        <pt x="1561" y="1497" on="0"/>
        <pt x="1505" y="1497" on="1"/>
        <pt x="1450" y="1497" on="0"/>
        <pt x="1356" y="1437" on="0"/>
        <pt x="1280" y="1340" on="0"/>
        <pt x="1222" y="1220" on="0"/>
        <pt x="1183" y="1099" on="0"/>
        <pt x="1163" y="989" on="0"/>
        <pt x="1163" y="952" on="1"/>
        <pt x="1163" y="892" on="0"/>
        <pt x="1183" y="809" on="0"/>
        <pt x="1212" y="754" on="0"/>
        <pt x="1247" y="720" on="0"/>
        <pt x="1276" y="699" on="0"/>
        <pt x="1296" y="686" on="0"/>
        <pt x="1296" y="678" on="1"/>
        <pt x="1296" y="658" on="0"/>
        <pt x="1272" y="626" on="0"/>
        <pt x="1249" y="623" on="1"/>
        <pt x="1157" y="597" on="0"/>
        <pt x="1005" y="485" on="0"/>
        <pt x="896" y="333" on="0"/>
        <pt x="836" y="154" on="0"/>
        <pt x="836" y="63" on="1"/>
        <pt x="836" y="21" on="0"/>
        <pt x="859" y="-37" on="0"/>
        <pt x="897" y="-72" on="0"/>
        <pt x="948" y="-88" on="0"/>
        <pt x="977" y="-88" on="1"/>
        <pt x="1038" y="-88" on="0"/>
        <pt x="1132" y="-40" on="0"/>
        <pt x="1203" y="31" on="0"/>
        <pt x="1255" y="114" on="0"/>
        <pt x="1293" y="185" on="0"/>
        <pt x="1321" y="233" on="0"/>
        <pt x="1333" y="233" on="1"/>
        <pt x="1343" y="233" on="0"/>
        <pt x="1368" y="220" on="0"/>
        <pt x="1368" y="205" on="1"/>
        <pt x="1368" y="202" on="0"/>
        <pt x="1366" y="193" on="0"/>
        <pt x="1364" y="188" on="1"/>
        <pt x="1326" y="107" on="0"/>
        <pt x="1232" y="-44" on="0"/>
        <pt x="1113" y="-161" on="0"/>
        <pt x="965" y="-231" on="0"/>
      </contour>
      <contour>
        <pt x="883" y="1044" on="1"/>
        <pt x="869" y="1044" on="0"/>
        <pt x="858" y="1050" on="0"/>
        <pt x="858" y="1067" on="1"/>
        <pt x="862" y="1097" on="0"/>
        <pt x="898" y="1167" on="0"/>
        <pt x="938" y="1242" on="0"/>
        <pt x="969" y="1322" on="0"/>
        <pt x="969" y="1362" on="1"/>
        <pt x="969" y="1390" on="0"/>
        <pt x="948" y="1436" on="0"/>
        <pt x="918" y="1436" on="1"/>
        <pt x="875" y="1436" on="0"/>
        <pt x="768" y="1363" on="0"/>
        <pt x="651" y="1235" on="0"/>
        <pt x="530" y="1060" on="0"/>
        <pt x="416" y="856" on="0"/>
        <pt x="316" y="632" on="0"/>
        <pt x="242" y="406" on="0"/>
        <pt x="199" y="186" on="0"/>
        <pt x="199" y="88" on="1"/>
        <pt x="199" y="51" on="0"/>
        <pt x="212" y="-12" on="0"/>
        <pt x="243" y="-59" on="0"/>
        <pt x="293" y="-86" on="0"/>
        <pt x="330" y="-86" on="1"/>
        <pt x="364" y="-86" on="0"/>
        <pt x="449" y="-22" on="0"/>
        <pt x="541" y="90" on="0"/>
        <pt x="636" y="242" on="0"/>
        <pt x="726" y="417" on="0"/>
        <pt x="807" y="607" on="0"/>
        <pt x="871" y="797" on="0"/>
        <pt x="913" y="977" on="0"/>
        <pt x="920" y="1055" on="1"/>
        <pt x="909" y="1049" on="0"/>
        <pt x="889" y="1044" on="0"/>
      </contour>
      <contour>
        <pt x="954" y="590" on="1"/>
        <pt x="989" y="611" on="0"/>
        <pt x="1062" y="643" on="0"/>
        <pt x="1100" y="657" on="1"/>
        <pt x="1047" y="680" on="0"/>
        <pt x="1010" y="721" on="1"/>
        <pt x="997" y="689" on="0"/>
        <pt x="970" y="624" on="0"/>
      </contour>
    </TTGlyph>
    <TTGlyph name="Oacute" xMin="-51" yMin="-229" xMax="1288" yMax="1938">
      <component glyphName="O" x="0" y="0" flags="0x204"/>
      <component glyphName="acute" x="567" y="762" flags="0x4"/>
    </TTGlyph>
    <TTGlyph name="Obreve" xMin="-51" yMin="-229" xMax="1335" yMax="1925">
      <component glyphName="O" x="0" y="0" flags="0x204"/>
      <component glyphName="breve" x="532" y="762" flags="0x4"/>
    </TTGlyph>
    <TTGlyph name="Ocircumflex" xMin="-51" yMin="-229" xMax="1263" yMax="1936">
      <component glyphName="O" x="0" y="0" flags="0x204"/>
      <component glyphName="circumflex" x="528" y="762" flags="0x4"/>
    </TTGlyph>
    <TTGlyph name="Odieresis" xMin="-51" yMin="-229" xMax="1250" yMax="1821">
      <component glyphName="O" x="0" y="0" flags="0x204"/>
      <component glyphName="dieresis" x="492" y="762" flags="0x4"/>
    </TTGlyph>
    <TTGlyph name="Ograve" xMin="-51" yMin="-229" xMax="1168" yMax="1927">
      <component glyphName="O" x="0" y="0" flags="0x204"/>
      <component glyphName="grave" x="494" y="762" flags="0x4"/>
    </TTGlyph>
    <TTGlyph name="Ohungarumlaut" xMin="-51" yMin="-229" xMax="1454" yMax="1938">
      <component glyphName="O" x="0" y="0" flags="0x204"/>
      <component glyphName="hungarumlaut" x="569" y="762" flags="0x4"/>
    </TTGlyph>
    <TTGlyph name="Omacron" xMin="-51" yMin="-229" xMax="1313" yMax="1833">
      <component glyphName="O" x="0" y="0" flags="0x204"/>
      <component glyphName="macron" x="522" y="762" flags="0x4"/>
    </TTGlyph>
    <TTGlyph name="Oslash" xMin="-172" yMin="-373" xMax="1333" yMax="1595">
      <contour>
        <pt x="1333" y="1511" on="1"/>
        <pt x="1333" y="1493" on="0"/>
        <pt x="1315" y="1458" on="0"/>
        <pt x="1296" y="1434" on="1"/>
        <pt x="1231" y="1352" on="0"/>
        <pt x="1097" y="1195" on="0"/>
        <pt x="1028" y="1114" on="1"/>
        <pt x="1051" y="1112" on="0"/>
        <pt x="1083" y="1090" on="0"/>
        <pt x="1083" y="1059" on="1"/>
        <pt x="1083" y="985" on="0"/>
        <pt x="1037" y="795" on="0"/>
        <pt x="956" y="586" on="0"/>
        <pt x="845" y="368" on="0"/>
        <pt x="715" y="164" on="0"/>
        <pt x="572" y="-16" on="0"/>
        <pt x="426" y="-151" on="0"/>
        <pt x="283" y="-229" on="0"/>
        <pt x="219" y="-229" on="1"/>
        <pt x="176" y="-229" on="0"/>
        <pt x="88" y="-203" on="0"/>
        <pt x="51" y="-174" on="1"/>
        <pt x="-2" y="-251" on="0"/>
        <pt x="-45" y="-315" on="1"/>
        <pt x="-57" y="-332" on="0"/>
        <pt x="-72" y="-354" on="0"/>
        <pt x="-84" y="-368" on="0"/>
        <pt x="-97" y="-373" on="0"/>
        <pt x="-106" y="-373" on="1"/>
        <pt x="-118" y="-373" on="0"/>
        <pt x="-141" y="-367" on="0"/>
        <pt x="-160" y="-352" on="0"/>
        <pt x="-172" y="-329" on="0"/>
        <pt x="-172" y="-311" on="1"/>
        <pt x="-172" y="-307" on="0"/>
        <pt x="-157" y="-283" on="0"/>
        <pt x="-138" y="-253" on="0"/>
        <pt x="-117" y="-224" on="0"/>
        <pt x="-111" y="-215" on="1"/>
        <pt x="-89" y="-186" on="0"/>
        <pt x="-41" y="-121" on="0"/>
        <pt x="-16" y="-86" on="1"/>
        <pt x="-32" y="-52" on="0"/>
        <pt x="-51" y="32" on="0"/>
        <pt x="-51" y="86" on="1"/>
        <pt x="-51" y="200" on="0"/>
        <pt x="7" y="447" on="0"/>
        <pt x="109" y="694" on="0"/>
        <pt x="245" y="933" on="0"/>
        <pt x="402" y="1148" on="0"/>
        <pt x="571" y="1331" on="0"/>
        <pt x="737" y="1463" on="0"/>
        <pt x="893" y="1538" on="0"/>
        <pt x="958" y="1538" on="1"/>
        <pt x="996" y="1538" on="0"/>
        <pt x="1051" y="1521" on="0"/>
        <pt x="1090" y="1491" on="0"/>
        <pt x="1114" y="1452" on="0"/>
        <pt x="1120" y="1430" on="1"/>
        <pt x="1142" y="1456" on="0"/>
        <pt x="1187" y="1508" on="0"/>
        <pt x="1208" y="1534" on="1"/>
        <pt x="1212" y="1539" on="0"/>
        <pt x="1231" y="1560" on="0"/>
        <pt x="1252" y="1580" on="0"/>
        <pt x="1272" y="1595" on="0"/>
        <pt x="1278" y="1595" on="1"/>
        <pt x="1283" y="1595" on="0"/>
        <pt x="1302" y="1580" on="0"/>
        <pt x="1320" y="1556" on="0"/>
        <pt x="1333" y="1526" on="0"/>
      </contour>
      <contour>
        <pt x="918" y="1436" on="1"/>
        <pt x="879" y="1436" on="0"/>
        <pt x="782" y="1374" on="0"/>
        <pt x="676" y="1265" on="0"/>
        <pt x="565" y="1114" on="0"/>
        <pt x="458" y="935" on="0"/>
        <pt x="360" y="736" on="0"/>
        <pt x="280" y="529" on="0"/>
        <pt x="222" y="322" on="0"/>
        <pt x="209" y="225" on="1"/>
        <pt x="282" y="327" on="0"/>
        <pt x="442" y="548" on="0"/>
        <pt x="612" y="778" on="0"/>
        <pt x="789" y="1013" on="0"/>
        <pt x="879" y="1128" on="1"/>
        <pt x="891" y="1154" on="0"/>
        <pt x="922" y="1211" on="0"/>
        <pt x="950" y="1270" on="0"/>
        <pt x="969" y="1331" on="0"/>
        <pt x="969" y="1362" on="1"/>
        <pt x="969" y="1390" on="0"/>
        <pt x="948" y="1436" on="0"/>
      </contour>
      <contour>
        <pt x="330" y="-86" on="1"/>
        <pt x="373" y="-86" on="0"/>
        <pt x="484" y="13" on="0"/>
        <pt x="601" y="179" on="0"/>
        <pt x="717" y="395" on="0"/>
        <pt x="817" y="631" on="0"/>
        <pt x="892" y="870" on="0"/>
        <pt x="909" y="975" on="1"/>
        <pt x="831" y="880" on="0"/>
        <pt x="652" y="651" on="0"/>
        <pt x="467" y="404" on="0"/>
        <pt x="284" y="153" on="0"/>
        <pt x="201" y="37" on="1"/>
        <pt x="209" y="-17" on="0"/>
        <pt x="268" y="-86" on="0"/>
      </contour>
    </TTGlyph>
    <TTGlyph name="Oslashacute" xMin="-172" yMin="-373" xMax="1333" yMax="1938">
      <component glyphName="Oslash" x="0" y="0" flags="0x204"/>
      <component glyphName="acute" x="567" y="762" flags="0x4"/>
    </TTGlyph>
    <TTGlyph name="Otilde" xMin="-51" yMin="-229" xMax="1332" yMax="1884">
      <component glyphName="O" x="0" y="0" flags="0x204"/>
      <component glyphName="tilde" x="492" y="762" flags="0x4"/>
    </TTGlyph>
    <TTGlyph name="P" xMin="-123" yMin="-178" xMax="1276" yMax="1561">
      <contour>
        <pt x="428" y="455" on="1"/>
        <pt x="377" y="327" on="0"/>
        <pt x="280" y="64" on="0"/>
        <pt x="233" y="-74" on="1"/>
        <pt x="275" y="-71" on="0"/>
        <pt x="335" y="-66" on="0"/>
        <pt x="350" y="-66" on="1"/>
        <pt x="367" y="-66" on="0"/>
        <pt x="367" y="-72" on="1"/>
        <pt x="367" y="-74" on="1"/>
        <pt x="360" y="-91" on="0"/>
        <pt x="332" y="-131" on="0"/>
        <pt x="301" y="-145" on="1"/>
        <pt x="291" y="-150" on="0"/>
        <pt x="230" y="-158" on="0"/>
        <pt x="147" y="-165" on="0"/>
        <pt x="54" y="-171" on="0"/>
        <pt x="-28" y="-175" on="0"/>
        <pt x="-89" y="-177" on="0"/>
        <pt x="-98" y="-178" on="1"/>
        <pt x="-106" y="-178" on="1"/>
        <pt x="-123" y="-178" on="0"/>
        <pt x="-123" y="-170" on="1"/>
        <pt x="-123" y="-153" on="0"/>
        <pt x="-80" y="-123" on="1"/>
        <pt x="-74" y="-117" on="0"/>
        <pt x="-35" y="-95" on="0"/>
        <pt x="10" y="-86" on="1"/>
        <pt x="27" y="-45" on="0"/>
        <pt x="92" y="115" on="0"/>
        <pt x="177" y="322" on="0"/>
        <pt x="275" y="561" on="0"/>
        <pt x="375" y="802" on="0"/>
        <pt x="471" y="1029" on="0"/>
        <pt x="551" y="1213" on="0"/>
        <pt x="609" y="1337" on="0"/>
        <pt x="621" y="1354" on="1"/>
        <pt x="627" y="1362" on="0"/>
        <pt x="663" y="1378" on="0"/>
        <pt x="709" y="1390" on="0"/>
        <pt x="756" y="1397" on="0"/>
        <pt x="774" y="1397" on="1"/>
        <pt x="802" y="1397" on="0"/>
        <pt x="815" y="1386" on="1"/>
        <pt x="817" y="1386" on="0"/>
        <pt x="817" y="1380" on="1"/>
        <pt x="817" y="1372" on="0"/>
        <pt x="802" y="1337" on="0"/>
        <pt x="779" y="1287" on="0"/>
        <pt x="750" y="1224" on="0"/>
        <pt x="735" y="1190" on="1"/>
        <pt x="661" y="1020" on="0"/>
        <pt x="518" y="682" on="0"/>
        <pt x="449" y="508" on="1"/>
        <pt x="457" y="506" on="0"/>
        <pt x="468" y="506" on="0"/>
        <pt x="473" y="506" on="1"/>
        <pt x="580" y="506" on="0"/>
        <pt x="752" y="575" on="0"/>
        <pt x="884" y="690" on="0"/>
        <pt x="978" y="841" on="0"/>
        <pt x="1039" y="1005" on="0"/>
        <pt x="1067" y="1172" on="0"/>
        <pt x="1067" y="1245" on="1"/>
        <pt x="1067" y="1301" on="0"/>
        <pt x="1032" y="1393" on="0"/>
        <pt x="968" y="1459" on="0"/>
        <pt x="879" y="1495" on="0"/>
        <pt x="825" y="1495" on="1"/>
        <pt x="705" y="1495" on="0"/>
        <pt x="494" y="1411" on="0"/>
        <pt x="338" y="1260" on="0"/>
        <pt x="248" y="1048" on="0"/>
        <pt x="248" y="920" on="1"/>
        <pt x="248" y="903" on="0"/>
        <pt x="232" y="877" on="0"/>
        <pt x="213" y="877" on="1"/>
        <pt x="200" y="877" on="0"/>
        <pt x="158" y="898" on="0"/>
        <pt x="117" y="933" on="0"/>
        <pt x="88" y="980" on="0"/>
        <pt x="88" y="1006" on="1"/>
        <pt x="88" y="1077" on="0"/>
        <pt x="155" y="1214" on="0"/>
        <pt x="270" y="1338" on="0"/>
        <pt x="424" y="1442" on="0"/>
        <pt x="597" y="1518" on="0"/>
        <pt x="780" y="1561" on="0"/>
        <pt x="866" y="1561" on="1"/>
        <pt x="964" y="1561" on="0"/>
        <pt x="1117" y="1504" on="0"/>
        <pt x="1222" y="1402" on="0"/>
        <pt x="1276" y="1260" on="0"/>
        <pt x="1276" y="1176" on="1"/>
        <pt x="1276" y="1083" on="0"/>
        <pt x="1213" y="903" on="0"/>
        <pt x="1101" y="743" on="0"/>
        <pt x="948" y="608" on="0"/>
        <pt x="768" y="510" on="0"/>
        <pt x="569" y="455" on="0"/>
        <pt x="467" y="455" on="1"/>
      </contour>
    </TTGlyph>
    <TTGlyph name="Q" xMin="-51" yMin="-491" xMax="1128" yMax="1538">
      <contour>
        <pt x="584" y="-455" on="1"/>
        <pt x="508" y="-390" on="0"/>
        <pt x="422" y="-238" on="0"/>
        <pt x="403" y="-160" on="1"/>
        <pt x="354" y="-192" on="0"/>
        <pt x="262" y="-229" on="0"/>
        <pt x="219" y="-229" on="1"/>
        <pt x="171" y="-229" on="0"/>
        <pt x="74" y="-196" on="0"/>
        <pt x="-3" y="-122" on="0"/>
        <pt x="-51" y="-1" on="0"/>
        <pt x="-51" y="86" on="1"/>
        <pt x="-51" y="200" on="0"/>
        <pt x="7" y="447" on="0"/>
        <pt x="109" y="694" on="0"/>
        <pt x="245" y="933" on="0"/>
        <pt x="402" y="1148" on="0"/>
        <pt x="571" y="1331" on="0"/>
        <pt x="737" y="1463" on="0"/>
        <pt x="893" y="1538" on="0"/>
        <pt x="958" y="1538" on="1"/>
        <pt x="1008" y="1538" on="0"/>
        <pt x="1074" y="1509" on="0"/>
        <pt x="1113" y="1463" on="0"/>
        <pt x="1128" y="1404" on="0"/>
        <pt x="1128" y="1374" on="1"/>
        <pt x="1128" y="1330" on="0"/>
        <pt x="1108" y="1254" on="0"/>
        <pt x="1076" y="1189" on="0"/>
        <pt x="1034" y="1137" on="0"/>
        <pt x="1012" y="1116" on="1"/>
        <pt x="1040" y="1116" on="0"/>
        <pt x="1083" y="1094" on="0"/>
        <pt x="1083" y="1059" on="1"/>
        <pt x="1083" y="987" on="0"/>
        <pt x="1040" y="806" on="0"/>
        <pt x="965" y="607" on="0"/>
        <pt x="862" y="398" on="0"/>
        <pt x="740" y="200" on="0"/>
        <pt x="604" y="21" on="0"/>
        <pt x="535" y="-49" on="1"/>
        <pt x="554" y="-91" on="0"/>
        <pt x="604" y="-181" on="0"/>
        <pt x="667" y="-271" on="0"/>
        <pt x="743" y="-358" on="0"/>
        <pt x="788" y="-397" on="1"/>
        <pt x="818" y="-421" on="0"/>
        <pt x="821" y="-457" on="0"/>
        <pt x="788" y="-481" on="0"/>
        <pt x="728" y="-491" on="0"/>
        <pt x="663" y="-488" on="0"/>
        <pt x="602" y="-471" on="0"/>
      </contour>
      <contour>
        <pt x="465" y="215" on="1"/>
        <pt x="468" y="212" on="0"/>
        <pt x="473" y="205" on="0"/>
        <pt x="473" y="197" on="1"/>
        <pt x="467" y="180" on="0"/>
        <pt x="479" y="96" on="0"/>
        <pt x="498" y="39" on="1"/>
        <pt x="544" y="95" on="0"/>
        <pt x="639" y="246" on="0"/>
        <pt x="728" y="421" on="0"/>
        <pt x="808" y="610" on="0"/>
        <pt x="871" y="798" on="0"/>
        <pt x="913" y="977" on="0"/>
        <pt x="920" y="1055" on="1"/>
        <pt x="909" y="1049" on="0"/>
        <pt x="889" y="1044" on="0"/>
        <pt x="883" y="1044" on="1"/>
        <pt x="869" y="1044" on="0"/>
        <pt x="858" y="1050" on="0"/>
        <pt x="858" y="1067" on="1"/>
        <pt x="862" y="1097" on="0"/>
        <pt x="898" y="1167" on="0"/>
        <pt x="938" y="1242" on="0"/>
        <pt x="969" y="1322" on="0"/>
        <pt x="969" y="1362" on="1"/>
        <pt x="969" y="1390" on="0"/>
        <pt x="948" y="1436" on="0"/>
        <pt x="918" y="1436" on="1"/>
        <pt x="875" y="1436" on="0"/>
        <pt x="768" y="1363" on="0"/>
        <pt x="651" y="1235" on="0"/>
        <pt x="530" y="1060" on="0"/>
        <pt x="416" y="856" on="0"/>
        <pt x="316" y="632" on="0"/>
        <pt x="242" y="406" on="0"/>
        <pt x="199" y="186" on="0"/>
        <pt x="199" y="88" on="1"/>
        <pt x="199" y="51" on="0"/>
        <pt x="212" y="-12" on="0"/>
        <pt x="243" y="-59" on="0"/>
        <pt x="293" y="-86" on="0"/>
        <pt x="330" y="-86" on="1"/>
        <pt x="342" y="-86" on="0"/>
        <pt x="372" y="-75" on="0"/>
        <pt x="387" y="-66" on="1"/>
        <pt x="382" y="-18" on="0"/>
        <pt x="385" y="71" on="0"/>
        <pt x="396" y="143" on="0"/>
        <pt x="412" y="197" on="0"/>
        <pt x="420" y="211" on="1"/>
        <pt x="426" y="217" on="0"/>
        <pt x="440" y="225" on="0"/>
        <pt x="451" y="223" on="1"/>
      </contour>
    </TTGlyph>
    <TTGlyph name="R" xMin="-127" yMin="-383" xMax="1315" yMax="1561">
      <contour>
        <pt x="455" y="524" on="1"/>
        <pt x="398" y="379" on="0"/>
        <pt x="286" y="82" on="0"/>
        <pt x="233" y="-74" on="1"/>
        <pt x="303" y="-70" on="0"/>
        <pt x="373" y="-61" on="0"/>
        <pt x="367" y="-74" on="1"/>
        <pt x="360" y="-91" on="0"/>
        <pt x="332" y="-131" on="0"/>
        <pt x="301" y="-145" on="1"/>
        <pt x="292" y="-150" on="0"/>
        <pt x="231" y="-158" on="0"/>
        <pt x="148" y="-165" on="0"/>
        <pt x="55" y="-171" on="0"/>
        <pt x="-28" y="-175" on="0"/>
        <pt x="-89" y="-177" on="0"/>
        <pt x="-98" y="-178" on="1"/>
        <pt x="-127" y="-181" on="0"/>
        <pt x="-115" y="-149" on="0"/>
        <pt x="-80" y="-123" on="1"/>
        <pt x="-74" y="-117" on="0"/>
        <pt x="-35" y="-95" on="0"/>
        <pt x="10" y="-86" on="1"/>
        <pt x="26" y="-47" on="0"/>
        <pt x="89" y="106" on="0"/>
        <pt x="170" y="305" on="0"/>
        <pt x="266" y="536" on="0"/>
        <pt x="364" y="772" on="0"/>
        <pt x="459" y="998" on="0"/>
        <pt x="540" y="1187" on="0"/>
        <pt x="601" y="1325" on="0"/>
        <pt x="616" y="1354" on="1"/>
        <pt x="625" y="1366" on="0"/>
        <pt x="683" y="1386" on="0"/>
        <pt x="749" y="1397" on="0"/>
        <pt x="806" y="1395" on="0"/>
        <pt x="815" y="1386" on="1"/>
        <pt x="820" y="1384" on="0"/>
        <pt x="809" y="1352" on="0"/>
        <pt x="785" y="1299" on="0"/>
        <pt x="752" y="1230" on="0"/>
        <pt x="735" y="1190" on="1"/>
        <pt x="669" y="1035" on="0"/>
        <pt x="538" y="733" on="0"/>
        <pt x="475" y="575" on="1"/>
        <pt x="582" y="576" on="0"/>
        <pt x="753" y="640" on="0"/>
        <pt x="884" y="748" on="0"/>
        <pt x="979" y="888" on="0"/>
        <pt x="1039" y="1041" on="0"/>
        <pt x="1067" y="1196" on="0"/>
        <pt x="1067" y="1264" on="1"/>
        <pt x="1067" y="1315" on="0"/>
        <pt x="1032" y="1400" on="0"/>
        <pt x="968" y="1461" on="0"/>
        <pt x="879" y="1495" on="0"/>
        <pt x="825" y="1495" on="1"/>
        <pt x="705" y="1495" on="0"/>
        <pt x="494" y="1411" on="0"/>
        <pt x="338" y="1260" on="0"/>
        <pt x="248" y="1048" on="0"/>
        <pt x="248" y="920" on="1"/>
        <pt x="248" y="903" on="0"/>
        <pt x="232" y="877" on="0"/>
        <pt x="213" y="877" on="1"/>
        <pt x="200" y="877" on="0"/>
        <pt x="158" y="898" on="0"/>
        <pt x="117" y="933" on="0"/>
        <pt x="88" y="980" on="0"/>
        <pt x="88" y="1006" on="1"/>
        <pt x="88" y="1077" on="0"/>
        <pt x="155" y="1214" on="0"/>
        <pt x="270" y="1338" on="0"/>
        <pt x="424" y="1442" on="0"/>
        <pt x="597" y="1518" on="0"/>
        <pt x="780" y="1561" on="0"/>
        <pt x="866" y="1561" on="1"/>
        <pt x="964" y="1561" on="0"/>
        <pt x="1117" y="1508" on="0"/>
        <pt x="1222" y="1412" on="0"/>
        <pt x="1276" y="1279" on="0"/>
        <pt x="1276" y="1200" on="1"/>
        <pt x="1276" y="1096" on="0"/>
        <pt x="1188" y="900" on="0"/>
        <pt x="1037" y="732" on="0"/>
        <pt x="835" y="602" on="0"/>
        <pt x="721" y="565" on="1"/>
        <pt x="729" y="446" on="0"/>
        <pt x="761" y="224" on="0"/>
        <pt x="807" y="29" on="0"/>
        <pt x="866" y="-133" on="0"/>
        <pt x="937" y="-249" on="0"/>
        <pt x="1019" y="-313" on="0"/>
        <pt x="1065" y="-313" on="1"/>
        <pt x="1114" y="-313" on="0"/>
        <pt x="1186" y="-261" on="0"/>
        <pt x="1239" y="-199" on="0"/>
        <pt x="1278" y="-147" on="0"/>
        <pt x="1294" y="-147" on="1"/>
        <pt x="1308" y="-147" on="0"/>
        <pt x="1315" y="-165" on="0"/>
        <pt x="1315" y="-174" on="1"/>
        <pt x="1315" y="-206" on="0"/>
        <pt x="1285" y="-280" on="0"/>
        <pt x="1221" y="-342" on="0"/>
        <pt x="1120" y="-383" on="0"/>
        <pt x="1049" y="-383" on="1"/>
        <pt x="950" y="-383" on="0"/>
        <pt x="801" y="-305" on="0"/>
        <pt x="690" y="-172" on="0"/>
        <pt x="613" y="7" on="0"/>
        <pt x="563" y="209" on="0"/>
        <pt x="535" y="423" on="0"/>
        <pt x="528" y="526" on="1"/>
        <pt x="513" y="524" on="0"/>
        <pt x="482" y="524" on="0"/>
        <pt x="467" y="524" on="1"/>
      </contour>
    </TTGlyph>
    <TTGlyph name="Racute" xMin="-127" yMin="-383" xMax="1315" yMax="1960">
      <component glyphName="R" x="0" y="0" flags="0x204"/>
      <component glyphName="acute" x="473" y="784" flags="0x4"/>
    </TTGlyph>
    <TTGlyph name="Rcaron" xMin="-127" yMin="-383" xMax="1315" yMax="1955">
      <component glyphName="R" x="0" y="0" flags="0x204"/>
      <component glyphName="caron" x="399" y="784" flags="0x4"/>
    </TTGlyph>
    <TTGlyph name="Rcommaaccent" xMin="-127" yMin="-566" xMax="1315" yMax="1561">
      <component glyphName="R" x="0" y="0" flags="0x204"/>
      <component glyphName="commaaccent" x="311" y="-142" flags="0x4"/>
    </TTGlyph>
    <TTGlyph name="S" xMin="-199" yMin="-215" xMax="956" yMax="1575">
      <contour>
        <pt x="719" y="1493" on="1"/>
        <pt x="684" y="1493" on="0"/>
        <pt x="604" y="1464" on="0"/>
        <pt x="524" y="1412" on="0"/>
        <pt x="449" y="1339" on="0"/>
        <pt x="392" y="1253" on="0"/>
        <pt x="358" y="1155" on="0"/>
        <pt x="358" y="1104" on="1"/>
        <pt x="358" y="1035" on="0"/>
        <pt x="398" y="919" on="0"/>
        <pt x="457" y="813" on="0"/>
        <pt x="526" y="712" on="0"/>
        <pt x="585" y="604" on="0"/>
        <pt x="625" y="482" on="0"/>
        <pt x="625" y="410" on="1"/>
        <pt x="625" y="325" on="0"/>
        <pt x="589" y="167" on="0"/>
        <pt x="522" y="28" on="0"/>
        <pt x="429" y="-87" on="0"/>
        <pt x="314" y="-169" on="0"/>
        <pt x="181" y="-215" on="0"/>
        <pt x="109" y="-215" on="1"/>
        <pt x="26" y="-215" on="0"/>
        <pt x="-90" y="-163" on="0"/>
        <pt x="-165" y="-84" on="0"/>
        <pt x="-199" y="8" on="0"/>
        <pt x="-199" y="49" on="1"/>
        <pt x="-199" y="119" on="0"/>
        <pt x="-152" y="220" on="0"/>
        <pt x="-81" y="284" on="0"/>
        <pt x="0" y="315" on="0"/>
        <pt x="35" y="315" on="1"/>
        <pt x="49" y="315" on="0"/>
        <pt x="63" y="296" on="0"/>
        <pt x="63" y="285" on="1"/>
        <pt x="63" y="268" on="0"/>
        <pt x="35" y="241" on="0"/>
        <pt x="1" y="199" on="0"/>
        <pt x="-27" y="130" on="0"/>
        <pt x="-27" y="72" on="1"/>
        <pt x="-27" y="35" on="0"/>
        <pt x="-4" y="-37" on="0"/>
        <pt x="43" y="-93" on="0"/>
        <pt x="114" y="-127" on="0"/>
        <pt x="162" y="-127" on="1"/>
        <pt x="214" y="-127" on="0"/>
        <pt x="315" y="-82" on="0"/>
        <pt x="395" y="2" on="0"/>
        <pt x="444" y="123" on="0"/>
        <pt x="444" y="199" on="1"/>
        <pt x="444" y="261" on="0"/>
        <pt x="405" y="382" on="0"/>
        <pt x="347" y="501" on="0"/>
        <pt x="279" y="618" on="0"/>
        <pt x="221" y="736" on="0"/>
        <pt x="182" y="854" on="0"/>
        <pt x="182" y="915" on="1"/>
        <pt x="182" y="986" on="0"/>
        <pt x="229" y="1139" on="0"/>
        <pt x="311" y="1285" on="0"/>
        <pt x="425" y="1417" on="0"/>
        <pt x="559" y="1517" on="0"/>
        <pt x="709" y="1575" on="0"/>
        <pt x="786" y="1575" on="1"/>
        <pt x="836" y="1575" on="0"/>
        <pt x="902" y="1546" on="0"/>
        <pt x="941" y="1500" on="0"/>
        <pt x="956" y="1441" on="0"/>
        <pt x="956" y="1411" on="1"/>
        <pt x="956" y="1358" on="0"/>
        <pt x="927" y="1267" on="0"/>
        <pt x="881" y="1194" on="0"/>
        <pt x="825" y="1138" on="0"/>
        <pt x="771" y="1100" on="0"/>
        <pt x="724" y="1081" on="0"/>
        <pt x="711" y="1081" on="1"/>
        <pt x="697" y="1081" on="0"/>
        <pt x="686" y="1087" on="0"/>
        <pt x="686" y="1104" on="1"/>
        <pt x="690" y="1134" on="0"/>
        <pt x="726" y="1204" on="0"/>
        <pt x="766" y="1279" on="0"/>
        <pt x="797" y="1359" on="0"/>
        <pt x="797" y="1399" on="1"/>
        <pt x="797" y="1413" on="0"/>
        <pt x="790" y="1446" on="0"/>
        <pt x="773" y="1474" on="0"/>
        <pt x="743" y="1493" on="0"/>
      </contour>
    </TTGlyph>
    <TTGlyph name="Sacute" xMin="-199" yMin="-215" xMax="1106" yMax="1975">
      <component glyphName="S" x="0" y="0" flags="0x204"/>
      <component glyphName="acute" x="385" y="799" flags="0x4"/>
    </TTGlyph>
    <TTGlyph name="Scaron" xMin="-199" yMin="-215" xMax="1149" yMax="1970">
      <component glyphName="S" x="0" y="0" flags="0x204"/>
      <component glyphName="caron" x="311" y="799" flags="0x4"/>
    </TTGlyph>
    <TTGlyph name="Scedilla" xMin="-227" yMin="-612" xMax="956" yMax="1575">
      <contour>
        <pt x="-29" y="-612" on="1"/>
        <pt x="-70" y="-612" on="0"/>
        <pt x="-142" y="-597" on="0"/>
        <pt x="-196" y="-574" on="0"/>
        <pt x="-227" y="-549" on="0"/>
        <pt x="-227" y="-539" on="1"/>
        <pt x="-227" y="-529" on="0"/>
        <pt x="-213" y="-510" on="0"/>
        <pt x="-205" y="-510" on="1"/>
        <pt x="-197" y="-510" on="0"/>
        <pt x="-177" y="-524" on="0"/>
        <pt x="-142" y="-541" on="0"/>
        <pt x="-89" y="-555" on="0"/>
        <pt x="-49" y="-555" on="1"/>
        <pt x="-12" y="-555" on="0"/>
        <pt x="48" y="-536" on="0"/>
        <pt x="90" y="-503" on="0"/>
        <pt x="113" y="-459" on="0"/>
        <pt x="113" y="-434" on="1"/>
        <pt x="113" y="-403" on="0"/>
        <pt x="68" y="-352" on="0"/>
        <pt x="16" y="-352" on="1"/>
        <pt x="-7" y="-352" on="0"/>
        <pt x="-48" y="-362" on="0"/>
        <pt x="-59" y="-362" on="1"/>
        <pt x="-70" y="-362" on="0"/>
        <pt x="-70" y="-350" on="1"/>
        <pt x="-70" y="-348" on="0"/>
        <pt x="-51" y="-312" on="0"/>
        <pt x="-24" y="-266" on="0"/>
        <pt x="5" y="-218" on="0"/>
        <pt x="14" y="-203" on="1"/>
        <pt x="-42" y="-189" on="0"/>
        <pt x="-122" y="-132" on="0"/>
        <pt x="-174" y="-62" on="0"/>
        <pt x="-199" y="15" on="0"/>
        <pt x="-199" y="49" on="1"/>
        <pt x="-199" y="119" on="0"/>
        <pt x="-152" y="220" on="0"/>
        <pt x="-81" y="284" on="0"/>
        <pt x="0" y="315" on="0"/>
        <pt x="35" y="315" on="1"/>
        <pt x="49" y="315" on="0"/>
        <pt x="63" y="296" on="0"/>
        <pt x="63" y="285" on="1"/>
        <pt x="63" y="268" on="0"/>
        <pt x="35" y="241" on="0"/>
        <pt x="1" y="199" on="0"/>
        <pt x="-27" y="130" on="0"/>
        <pt x="-27" y="72" on="1"/>
        <pt x="-27" y="35" on="0"/>
        <pt x="-4" y="-37" on="0"/>
        <pt x="43" y="-93" on="0"/>
        <pt x="114" y="-127" on="0"/>
        <pt x="162" y="-127" on="1"/>
        <pt x="214" y="-127" on="0"/>
        <pt x="315" y="-82" on="0"/>
        <pt x="395" y="2" on="0"/>
        <pt x="444" y="123" on="0"/>
        <pt x="444" y="199" on="1"/>
        <pt x="444" y="261" on="0"/>
        <pt x="405" y="382" on="0"/>
        <pt x="347" y="501" on="0"/>
        <pt x="279" y="618" on="0"/>
        <pt x="221" y="736" on="0"/>
        <pt x="182" y="854" on="0"/>
        <pt x="182" y="915" on="1"/>
        <pt x="182" y="986" on="0"/>
        <pt x="229" y="1139" on="0"/>
        <pt x="311" y="1285" on="0"/>
        <pt x="425" y="1417" on="0"/>
        <pt x="559" y="1517" on="0"/>
        <pt x="709" y="1575" on="0"/>
        <pt x="786" y="1575" on="1"/>
        <pt x="836" y="1575" on="0"/>
        <pt x="902" y="1546" on="0"/>
        <pt x="941" y="1500" on="0"/>
        <pt x="956" y="1441" on="0"/>
        <pt x="956" y="1411" on="1"/>
        <pt x="956" y="1358" on="0"/>
        <pt x="927" y="1267" on="0"/>
        <pt x="881" y="1194" on="0"/>
        <pt x="825" y="1138" on="0"/>
        <pt x="771" y="1100" on="0"/>
        <pt x="724" y="1081" on="0"/>
        <pt x="711" y="1081" on="1"/>
        <pt x="697" y="1081" on="0"/>
        <pt x="686" y="1087" on="0"/>
        <pt x="686" y="1104" on="1"/>
        <pt x="690" y="1134" on="0"/>
        <pt x="726" y="1204" on="0"/>
        <pt x="766" y="1279" on="0"/>
        <pt x="797" y="1359" on="0"/>
        <pt x="797" y="1399" on="1"/>
        <pt x="797" y="1413" on="0"/>
        <pt x="790" y="1446" on="0"/>
        <pt x="773" y="1474" on="0"/>
        <pt x="743" y="1493" on="0"/>
        <pt x="719" y="1493" on="1"/>
        <pt x="684" y="1493" on="0"/>
        <pt x="604" y="1464" on="0"/>
        <pt x="524" y="1412" on="0"/>
        <pt x="449" y="1339" on="0"/>
        <pt x="392" y="1253" on="0"/>
        <pt x="358" y="1155" on="0"/>
        <pt x="358" y="1104" on="1"/>
        <pt x="358" y="1035" on="0"/>
        <pt x="398" y="919" on="0"/>
        <pt x="457" y="813" on="0"/>
        <pt x="526" y="712" on="0"/>
        <pt x="585" y="604" on="0"/>
        <pt x="625" y="482" on="0"/>
        <pt x="625" y="410" on="1"/>
        <pt x="625" y="325" on="0"/>
        <pt x="589" y="167" on="0"/>
        <pt x="522" y="28" on="0"/>
        <pt x="429" y="-87" on="0"/>
        <pt x="314" y="-169" on="0"/>
        <pt x="181" y="-215" on="0"/>
        <pt x="109" y="-215" on="1"/>
        <pt x="96" y="-215" on="0"/>
        <pt x="72" y="-215" on="0"/>
        <pt x="61" y="-213" on="1"/>
        <pt x="53" y="-225" on="0"/>
        <pt x="33" y="-255" on="0"/>
        <pt x="13" y="-284" on="0"/>
        <pt x="-2" y="-309" on="0"/>
        <pt x="-4" y="-315" on="1"/>
        <pt x="4" y="-313" on="0"/>
        <pt x="34" y="-309" on="0"/>
        <pt x="45" y="-309" on="1"/>
        <pt x="132" y="-309" on="0"/>
        <pt x="231" y="-374" on="0"/>
        <pt x="231" y="-434" on="1"/>
        <pt x="231" y="-485" on="0"/>
        <pt x="180" y="-554" on="0"/>
        <pt x="102" y="-595" on="0"/>
        <pt x="11" y="-612" on="0"/>
      </contour>
    </TTGlyph>
    <TTGlyph name="Scircumflex" xMin="-199" yMin="-215" xMax="1081" yMax="1973">
      <component glyphName="S" x="0" y="0" flags="0x204"/>
      <component glyphName="circumflex" x="346" y="799" flags="0x4"/>
    </TTGlyph>
    <TTGlyph name="T" xMin="-207" yMin="-256" xMax="1481" yMax="1614">
      <contour>
        <pt x="1481" y="1542" on="1"/>
        <pt x="1481" y="1518" on="0"/>
        <pt x="1445" y="1452" on="0"/>
        <pt x="1377" y="1385" on="0"/>
        <pt x="1276" y="1328" on="0"/>
        <pt x="1212" y="1313" on="1"/>
        <pt x="1177" y="1248" on="0"/>
        <pt x="1092" y="1070" on="0"/>
        <pt x="1044" y="952" on="1"/>
        <pt x="1013" y="879" on="0"/>
        <pt x="948" y="697" on="0"/>
        <pt x="873" y="500" on="0"/>
        <pt x="786" y="296" on="0"/>
        <pt x="682" y="106" on="0"/>
        <pt x="558" y="-60" on="0"/>
        <pt x="410" y="-184" on="0"/>
        <pt x="235" y="-256" on="0"/>
        <pt x="131" y="-256" on="1"/>
        <pt x="83" y="-256" on="0"/>
        <pt x="-34" y="-241" on="0"/>
        <pt x="-137" y="-195" on="0"/>
        <pt x="-207" y="-108" on="0"/>
        <pt x="-207" y="-37" on="1"/>
        <pt x="-207" y="-29" on="0"/>
        <pt x="-200" y="20" on="0"/>
        <pt x="-182" y="72" on="0"/>
        <pt x="-153" y="113" on="0"/>
        <pt x="-131" y="113" on="1"/>
        <pt x="-120" y="113" on="0"/>
        <pt x="-108" y="96" on="0"/>
        <pt x="-106" y="94" on="1"/>
        <pt x="-72" y="27" on="0"/>
        <pt x="12" y="-66" on="0"/>
        <pt x="102" y="-125" on="0"/>
        <pt x="194" y="-152" on="0"/>
        <pt x="236" y="-152" on="1"/>
        <pt x="299" y="-152" on="0"/>
        <pt x="403" y="-75" on="0"/>
        <pt x="492" y="60" on="0"/>
        <pt x="570" y="243" on="0"/>
        <pt x="647" y="455" on="0"/>
        <pt x="725" y="686" on="0"/>
        <pt x="770" y="801" on="1"/>
        <pt x="832" y="962" on="0"/>
        <pt x="972" y="1213" on="0"/>
        <pt x="1044" y="1307" on="1"/>
        <pt x="980" y="1317" on="0"/>
        <pt x="849" y="1368" on="0"/>
        <pt x="714" y="1421" on="0"/>
        <pt x="575" y="1462" on="0"/>
        <pt x="504" y="1462" on="1"/>
        <pt x="470" y="1462" on="0"/>
        <pt x="403" y="1435" on="0"/>
        <pt x="349" y="1372" on="0"/>
        <pt x="315" y="1269" on="0"/>
        <pt x="315" y="1194" on="1"/>
        <pt x="315" y="1148" on="0"/>
        <pt x="332" y="1045" on="0"/>
        <pt x="370" y="936" on="0"/>
        <pt x="432" y="822" on="0"/>
        <pt x="477" y="764" on="1"/>
        <pt x="481" y="760" on="0"/>
        <pt x="481" y="750" on="1"/>
        <pt x="479" y="737" on="0"/>
        <pt x="463" y="719" on="0"/>
        <pt x="444" y="719" on="1"/>
        <pt x="366" y="719" on="0"/>
        <pt x="267" y="758" on="0"/>
        <pt x="211" y="832" on="0"/>
        <pt x="190" y="941" on="0"/>
        <pt x="190" y="1010" on="1"/>
        <pt x="190" y="1071" on="0"/>
        <pt x="201" y="1187" on="0"/>
        <pt x="232" y="1294" on="0"/>
        <pt x="289" y="1393" on="0"/>
        <pt x="334" y="1438" on="1"/>
        <pt x="385" y="1489" on="0"/>
        <pt x="480" y="1556" on="0"/>
        <pt x="568" y="1597" on="0"/>
        <pt x="649" y="1614" on="0"/>
        <pt x="686" y="1614" on="1"/>
        <pt x="753" y="1614" on="0"/>
        <pt x="875" y="1573" on="0"/>
        <pt x="992" y="1518" on="0"/>
        <pt x="1108" y="1461" on="0"/>
        <pt x="1171" y="1446" on="1"/>
        <pt x="1244" y="1514" on="0"/>
        <pt x="1381" y="1579" on="0"/>
        <pt x="1438" y="1579" on="1"/>
        <pt x="1458" y="1579" on="0"/>
        <pt x="1481" y="1559" on="0"/>
      </contour>
      <contour>
        <pt x="1395" y="1536" on="1"/>
        <pt x="1376" y="1536" on="0"/>
        <pt x="1320" y="1489" on="0"/>
        <pt x="1282" y="1434" on="1"/>
        <pt x="1320" y="1435" on="0"/>
        <pt x="1370" y="1461" on="0"/>
        <pt x="1399" y="1491" on="0"/>
        <pt x="1411" y="1519" on="0"/>
        <pt x="1411" y="1522" on="1"/>
        <pt x="1411" y="1536" on="0"/>
      </contour>
    </TTGlyph>
    <TTGlyph name="Tbar" xMin="-207" yMin="-256" xMax="1481" yMax="1614">
      <contour>
        <pt x="1481" y="1542" on="1"/>
        <pt x="1481" y="1518" on="0"/>
        <pt x="1445" y="1452" on="0"/>
        <pt x="1377" y="1385" on="0"/>
        <pt x="1276" y="1328" on="0"/>
        <pt x="1212" y="1313" on="1"/>
        <pt x="1188" y="1268" on="0"/>
        <pt x="1133" y="1157" on="0"/>
        <pt x="1102" y="1087" on="1"/>
        <pt x="1368" y="1114" on="1"/>
        <pt x="1391" y="1115" on="0"/>
        <pt x="1407" y="1099" on="0"/>
        <pt x="1403" y="1074" on="0"/>
        <pt x="1383" y="1044" on="0"/>
        <pt x="1357" y="1019" on="0"/>
        <pt x="1329" y="1003" on="0"/>
        <pt x="1319" y="1004" on="1"/>
        <pt x="1265" y="1000" on="0"/>
        <pt x="1131" y="994" on="0"/>
        <pt x="1059" y="991" on="1"/>
        <pt x="1056" y="982" on="0"/>
        <pt x="1048" y="962" on="0"/>
        <pt x="1044" y="952" on="1"/>
        <pt x="1013" y="879" on="0"/>
        <pt x="948" y="697" on="0"/>
        <pt x="873" y="500" on="0"/>
        <pt x="786" y="296" on="0"/>
        <pt x="682" y="106" on="0"/>
        <pt x="558" y="-60" on="0"/>
        <pt x="410" y="-184" on="0"/>
        <pt x="235" y="-256" on="0"/>
        <pt x="131" y="-256" on="1"/>
        <pt x="83" y="-256" on="0"/>
        <pt x="-34" y="-241" on="0"/>
        <pt x="-137" y="-195" on="0"/>
        <pt x="-207" y="-108" on="0"/>
        <pt x="-207" y="-37" on="1"/>
        <pt x="-207" y="-29" on="0"/>
        <pt x="-200" y="20" on="0"/>
        <pt x="-182" y="72" on="0"/>
        <pt x="-153" y="113" on="0"/>
        <pt x="-131" y="113" on="1"/>
        <pt x="-120" y="113" on="0"/>
        <pt x="-108" y="96" on="0"/>
        <pt x="-106" y="94" on="1"/>
        <pt x="-72" y="27" on="0"/>
        <pt x="12" y="-66" on="0"/>
        <pt x="102" y="-125" on="0"/>
        <pt x="194" y="-152" on="0"/>
        <pt x="236" y="-152" on="1"/>
        <pt x="299" y="-152" on="0"/>
        <pt x="403" y="-75" on="0"/>
        <pt x="492" y="60" on="0"/>
        <pt x="570" y="243" on="0"/>
        <pt x="647" y="455" on="0"/>
        <pt x="725" y="686" on="0"/>
        <pt x="770" y="801" on="1"/>
        <pt x="789" y="849" on="0"/>
        <pt x="826" y="937" on="0"/>
        <pt x="846" y="979" on="1"/>
        <pt x="783" y="976" on="0"/>
        <pt x="671" y="970" on="0"/>
        <pt x="629" y="968" on="1"/>
        <pt x="580" y="965" on="0"/>
        <pt x="539" y="963" on="1"/>
        <pt x="528" y="963" on="0"/>
        <pt x="528" y="971" on="1"/>
        <pt x="526" y="974" on="0"/>
        <pt x="534" y="984" on="0"/>
        <pt x="541" y="989" on="1"/>
        <pt x="553" y="1018" on="1"/>
        <pt x="573" y="1035" on="0"/>
        <pt x="605" y="1042" on="0"/>
        <pt x="627" y="1044" on="1"/>
        <pt x="893" y="1069" on="1"/>
        <pt x="966" y="1203" on="0"/>
        <pt x="1044" y="1307" on="1"/>
        <pt x="980" y="1317" on="0"/>
        <pt x="849" y="1368" on="0"/>
        <pt x="714" y="1421" on="0"/>
        <pt x="575" y="1462" on="0"/>
        <pt x="504" y="1462" on="1"/>
        <pt x="470" y="1462" on="0"/>
        <pt x="403" y="1435" on="0"/>
        <pt x="349" y="1372" on="0"/>
        <pt x="315" y="1269" on="0"/>
        <pt x="315" y="1194" on="1"/>
        <pt x="315" y="1148" on="0"/>
        <pt x="332" y="1045" on="0"/>
        <pt x="370" y="936" on="0"/>
        <pt x="432" y="822" on="0"/>
        <pt x="477" y="764" on="1"/>
        <pt x="481" y="760" on="0"/>
        <pt x="481" y="750" on="1"/>
        <pt x="479" y="737" on="0"/>
        <pt x="463" y="719" on="0"/>
        <pt x="444" y="719" on="1"/>
        <pt x="366" y="719" on="0"/>
        <pt x="267" y="758" on="0"/>
        <pt x="211" y="832" on="0"/>
        <pt x="190" y="941" on="0"/>
        <pt x="190" y="1010" on="1"/>
        <pt x="190" y="1071" on="0"/>
        <pt x="201" y="1187" on="0"/>
        <pt x="232" y="1294" on="0"/>
        <pt x="289" y="1393" on="0"/>
        <pt x="334" y="1438" on="1"/>
        <pt x="385" y="1489" on="0"/>
        <pt x="480" y="1556" on="0"/>
        <pt x="568" y="1597" on="0"/>
        <pt x="649" y="1614" on="0"/>
        <pt x="686" y="1614" on="1"/>
        <pt x="753" y="1614" on="0"/>
        <pt x="875" y="1573" on="0"/>
        <pt x="992" y="1518" on="0"/>
        <pt x="1108" y="1461" on="0"/>
        <pt x="1171" y="1446" on="1"/>
        <pt x="1244" y="1514" on="0"/>
        <pt x="1381" y="1579" on="0"/>
        <pt x="1438" y="1579" on="1"/>
        <pt x="1458" y="1579" on="0"/>
        <pt x="1481" y="1559" on="0"/>
      </contour>
      <contour>
        <pt x="1395" y="1536" on="1"/>
        <pt x="1376" y="1536" on="0"/>
        <pt x="1320" y="1489" on="0"/>
        <pt x="1282" y="1434" on="1"/>
        <pt x="1320" y="1435" on="0"/>
        <pt x="1370" y="1461" on="0"/>
        <pt x="1399" y="1491" on="0"/>
        <pt x="1411" y="1519" on="0"/>
        <pt x="1411" y="1522" on="1"/>
        <pt x="1411" y="1536" on="0"/>
      </contour>
    </TTGlyph>
    <TTGlyph name="Tcaron" xMin="-207" yMin="-256" xMax="1481" yMax="1972">
      <component glyphName="T" x="0" y="0" flags="0x204"/>
      <component glyphName="caron" x="420" y="801" flags="0x4"/>
    </TTGlyph>
    <TTGlyph name="Tcommaaccent" xMin="-207" yMin="-659" xMax="1481" yMax="1614">
      <component glyphName="T" x="0" y="0" flags="0x204"/>
      <component glyphName="commaaccent" x="0" y="-235" flags="0x4"/>
    </TTGlyph>
    <TTGlyph name="Thorn" xMin="-123" yMin="-178" xMax="1171" yMax="1557">
      <contour>
        <pt x="330" y="184" on="1"/>
        <pt x="304" y="115" on="0"/>
        <pt x="253" y="-15" on="0"/>
        <pt x="231" y="-74" on="1"/>
        <pt x="275" y="-71" on="0"/>
        <pt x="335" y="-66" on="0"/>
        <pt x="350" y="-66" on="1"/>
        <pt x="367" y="-66" on="0"/>
        <pt x="367" y="-72" on="1"/>
        <pt x="367" y="-74" on="1"/>
        <pt x="360" y="-91" on="0"/>
        <pt x="332" y="-131" on="0"/>
        <pt x="301" y="-145" on="1"/>
        <pt x="291" y="-150" on="0"/>
        <pt x="230" y="-158" on="0"/>
        <pt x="147" y="-165" on="0"/>
        <pt x="54" y="-171" on="0"/>
        <pt x="-28" y="-175" on="0"/>
        <pt x="-89" y="-177" on="0"/>
        <pt x="-98" y="-178" on="1"/>
        <pt x="-106" y="-178" on="1"/>
        <pt x="-123" y="-178" on="0"/>
        <pt x="-123" y="-170" on="1"/>
        <pt x="-123" y="-153" on="0"/>
        <pt x="-80" y="-123" on="1"/>
        <pt x="-74" y="-118" on="0"/>
        <pt x="-40" y="-97" on="0"/>
        <pt x="0" y="-88" on="1"/>
        <pt x="38" y="-4" on="0"/>
        <pt x="124" y="193" on="0"/>
        <pt x="216" y="407" on="0"/>
        <pt x="310" y="635" on="0"/>
        <pt x="404" y="865" on="0"/>
        <pt x="496" y="1091" on="0"/>
        <pt x="539" y="1198" on="1"/>
        <pt x="452" y="1172" on="0"/>
        <pt x="306" y="1071" on="0"/>
        <pt x="201" y="930" on="0"/>
        <pt x="143" y="752" on="0"/>
        <pt x="143" y="649" on="1"/>
        <pt x="143" y="632" on="0"/>
        <pt x="127" y="606" on="0"/>
        <pt x="109" y="606" on="1"/>
        <pt x="96" y="606" on="0"/>
        <pt x="54" y="627" on="0"/>
        <pt x="13" y="662" on="0"/>
        <pt x="-16" y="709" on="0"/>
        <pt x="-16" y="735" on="1"/>
        <pt x="-16" y="793" on="0"/>
        <pt x="29" y="906" on="0"/>
        <pt x="109" y="1011" on="0"/>
        <pt x="219" y="1106" on="0"/>
        <pt x="348" y="1185" on="0"/>
        <pt x="491" y="1245" on="0"/>
        <pt x="565" y="1264" on="1"/>
        <pt x="584" y="1312" on="0"/>
        <pt x="620" y="1403" on="0"/>
        <pt x="639" y="1446" on="1"/>
        <pt x="605" y="1443" on="0"/>
        <pt x="538" y="1442" on="0"/>
        <pt x="506" y="1442" on="1"/>
        <pt x="500" y="1442" on="0"/>
        <pt x="496" y="1450" on="1"/>
        <pt x="494" y="1453" on="0"/>
        <pt x="496" y="1461" on="0"/>
        <pt x="498" y="1464" on="1"/>
        <pt x="512" y="1479" on="1"/>
        <pt x="518" y="1491" on="0"/>
        <pt x="531" y="1508" on="0"/>
        <pt x="545" y="1511" on="1"/>
        <pt x="602" y="1520" on="0"/>
        <pt x="722" y="1537" on="0"/>
        <pt x="843" y="1550" on="0"/>
        <pt x="962" y="1557" on="0"/>
        <pt x="1018" y="1556" on="1"/>
        <pt x="1022" y="1556" on="0"/>
        <pt x="1030" y="1552" on="1"/>
        <pt x="1032" y="1549" on="0"/>
        <pt x="1030" y="1541" on="0"/>
        <pt x="1028" y="1538" on="1"/>
        <pt x="1008" y="1501" on="1"/>
        <pt x="1001" y="1489" on="0"/>
        <pt x="976" y="1475" on="0"/>
        <pt x="961" y="1473" on="1"/>
        <pt x="933" y="1469" on="0"/>
        <pt x="875" y="1465" on="0"/>
        <pt x="844" y="1462" on="1"/>
        <pt x="827" y="1420" on="0"/>
        <pt x="791" y="1335" on="0"/>
        <pt x="772" y="1290" on="1"/>
        <pt x="868" y="1288" on="0"/>
        <pt x="1017" y="1230" on="0"/>
        <pt x="1118" y="1128" on="0"/>
        <pt x="1171" y="988" on="0"/>
        <pt x="1171" y="905" on="1"/>
        <pt x="1171" y="812" on="0"/>
        <pt x="1108" y="632" on="0"/>
        <pt x="996" y="472" on="0"/>
        <pt x="843" y="337" on="0"/>
        <pt x="663" y="239" on="0"/>
        <pt x="464" y="184" on="0"/>
        <pt x="362" y="184" on="1"/>
      </contour>
      <contour>
        <pt x="963" y="975" on="1"/>
        <pt x="963" y="1028" on="0"/>
        <pt x="931" y="1115" on="0"/>
        <pt x="874" y="1180" on="0"/>
        <pt x="793" y="1219" on="0"/>
        <pt x="745" y="1223" on="1"/>
        <pt x="696" y="1104" on="0"/>
        <pt x="594" y="854" on="0"/>
        <pt x="493" y="601" on="0"/>
        <pt x="395" y="353" on="0"/>
        <pt x="350" y="236" on="1"/>
        <pt x="369" y="236" on="1"/>
        <pt x="476" y="236" on="0"/>
        <pt x="648" y="305" on="0"/>
        <pt x="780" y="420" on="0"/>
        <pt x="874" y="571" on="0"/>
        <pt x="935" y="735" on="0"/>
        <pt x="963" y="902" on="0"/>
      </contour>
    </TTGlyph>
    <TTGlyph name="U" xMin="-12" yMin="-193" xMax="1368" yMax="1577">
      <contour>
        <pt x="805" y="1458" on="1"/>
        <pt x="797" y="1440" on="0"/>
        <pt x="761" y="1416" on="0"/>
        <pt x="739" y="1413" on="1"/>
        <pt x="715" y="1410" on="0"/>
        <pt x="671" y="1405" on="0"/>
        <pt x="651" y="1403" on="1"/>
        <pt x="542" y="1146" on="0"/>
        <pt x="388" y="776" on="0"/>
        <pt x="284" y="514" on="0"/>
        <pt x="222" y="343" on="0"/>
        <pt x="189" y="227" on="0"/>
        <pt x="180" y="148" on="0"/>
        <pt x="180" y="109" on="1"/>
        <pt x="180" y="27" on="0"/>
        <pt x="237" y="-66" on="0"/>
        <pt x="285" y="-66" on="1"/>
        <pt x="331" y="-66" on="0"/>
        <pt x="429" y="12" on="0"/>
        <pt x="527" y="148" on="0"/>
        <pt x="625" y="330" on="0"/>
        <pt x="718" y="537" on="0"/>
        <pt x="804" y="759" on="0"/>
        <pt x="880" y="975" on="0"/>
        <pt x="944" y="1173" on="0"/>
        <pt x="993" y="1333" on="0"/>
        <pt x="1023" y="1444" on="0"/>
        <pt x="1028" y="1464" on="1"/>
        <pt x="1007" y="1464" on="0"/>
        <pt x="960" y="1465" on="0"/>
        <pt x="920" y="1469" on="0"/>
        <pt x="893" y="1477" on="0"/>
        <pt x="893" y="1485" on="1"/>
        <pt x="893" y="1490" on="0"/>
        <pt x="903" y="1501" on="0"/>
        <pt x="905" y="1507" on="1"/>
        <pt x="905" y="1511" on="1"/>
        <pt x="907" y="1521" on="0"/>
        <pt x="921" y="1532" on="0"/>
        <pt x="930" y="1534" on="1"/>
        <pt x="993" y="1544" on="0"/>
        <pt x="1097" y="1560" on="0"/>
        <pt x="1194" y="1571" on="0"/>
        <pt x="1292" y="1577" on="0"/>
        <pt x="1348" y="1577" on="1"/>
        <pt x="1354" y="1577" on="0"/>
        <pt x="1368" y="1566" on="0"/>
        <pt x="1368" y="1556" on="1"/>
        <pt x="1368" y="1553" on="0"/>
        <pt x="1366" y="1549" on="0"/>
        <pt x="1366" y="1546" on="1"/>
        <pt x="1358" y="1520" on="1"/>
        <pt x="1352" y="1500" on="0"/>
        <pt x="1313" y="1477" on="0"/>
        <pt x="1294" y="1475" on="1"/>
        <pt x="1263" y="1473" on="0"/>
        <pt x="1208" y="1468" on="0"/>
        <pt x="1180" y="1466" on="1"/>
        <pt x="1162" y="1428" on="0"/>
        <pt x="1115" y="1321" on="0"/>
        <pt x="1062" y="1198" on="0"/>
        <pt x="1007" y="1067" on="0"/>
        <pt x="981" y="1005" on="1"/>
        <pt x="919" y="858" on="0"/>
        <pt x="854" y="698" on="1"/>
        <pt x="753" y="452" on="0"/>
        <pt x="580" y="112" on="0"/>
        <pt x="421" y="-99" on="0"/>
        <pt x="270" y="-193" on="0"/>
        <pt x="193" y="-193" on="1"/>
        <pt x="93" y="-193" on="0"/>
        <pt x="-12" y="-60" on="0"/>
        <pt x="-12" y="61" on="1"/>
        <pt x="-12" y="139" on="0"/>
        <pt x="33" y="329" on="0"/>
        <pt x="80" y="440" on="1"/>
        <pt x="121" y="550" on="0"/>
        <pt x="180" y="694" on="1"/>
        <pt x="230" y="818" on="0"/>
        <pt x="379" y="1170" on="0"/>
        <pt x="479" y="1395" on="1"/>
        <pt x="444" y="1395" on="1"/>
        <pt x="436" y="1395" on="0"/>
        <pt x="411" y="1394" on="0"/>
        <pt x="389" y="1394" on="0"/>
        <pt x="373" y="1398" on="0"/>
        <pt x="373" y="1403" on="1"/>
        <pt x="373" y="1407" on="0"/>
        <pt x="377" y="1411" on="1"/>
        <pt x="385" y="1427" on="1"/>
        <pt x="397" y="1453" on="0"/>
        <pt x="424" y="1456" on="1"/>
        <pt x="472" y="1466" on="0"/>
        <pt x="561" y="1481" on="0"/>
        <pt x="650" y="1493" on="0"/>
        <pt x="742" y="1501" on="0"/>
        <pt x="793" y="1505" on="1"/>
        <pt x="801" y="1505" on="0"/>
        <pt x="817" y="1498" on="0"/>
        <pt x="817" y="1487" on="1"/>
        <pt x="817" y="1485" on="0"/>
        <pt x="815" y="1481" on="0"/>
        <pt x="815" y="1479" on="1"/>
      </contour>
    </TTGlyph>
    <TTGlyph name="Uacute" xMin="-12" yMin="-193" xMax="1368" yMax="1948">
      <component glyphName="U" x="0" y="0" flags="0x204"/>
      <component glyphName="acute" x="496" y="772" flags="0x4"/>
    </TTGlyph>
    <TTGlyph name="Ubreve" xMin="-12" yMin="-193" xMax="1368" yMax="1935">
      <component glyphName="U" x="0" y="0" flags="0x204"/>
      <component glyphName="breve" x="461" y="772" flags="0x4"/>
    </TTGlyph>
    <TTGlyph name="Ucircumflex" xMin="-12" yMin="-193" xMax="1368" yMax="1946">
      <component glyphName="U" x="0" y="0" flags="0x204"/>
      <component glyphName="circumflex" x="457" y="772" flags="0x4"/>
    </TTGlyph>
    <TTGlyph name="Udieresis" xMin="-12" yMin="-193" xMax="1368" yMax="1831">
      <component glyphName="U" x="0" y="0" flags="0x204"/>
      <component glyphName="dieresis" x="420" y="772" flags="0x4"/>
    </TTGlyph>
    <TTGlyph name="Ugrave" xMin="-12" yMin="-193" xMax="1368" yMax="1937">
      <component glyphName="U" x="0" y="0" flags="0x204"/>
      <component glyphName="grave" x="422" y="772" flags="0x4"/>
    </TTGlyph>
    <TTGlyph name="Uhungarumlaut" xMin="-12" yMin="-193" xMax="1383" yMax="1948">
      <component glyphName="U" x="0" y="0" flags="0x204"/>
      <component glyphName="hungarumlaut" x="498" y="772" flags="0x4"/>
    </TTGlyph>
    <TTGlyph name="Umacron" xMin="-12" yMin="-193" xMax="1368" yMax="1843">
      <component glyphName="U" x="0" y="0" flags="0x204"/>
      <component glyphName="macron" x="451" y="772" flags="0x4"/>
    </TTGlyph>
    <TTGlyph name="Uogonek" xMin="-12" yMin="-561" xMax="1368" yMax="1577">
      <contour>
        <pt x="805" y="1458" on="1"/>
        <pt x="797" y="1440" on="0"/>
        <pt x="761" y="1416" on="0"/>
        <pt x="739" y="1413" on="1"/>
        <pt x="715" y="1410" on="0"/>
        <pt x="671" y="1405" on="0"/>
        <pt x="651" y="1403" on="1"/>
        <pt x="542" y="1146" on="0"/>
        <pt x="388" y="776" on="0"/>
        <pt x="284" y="514" on="0"/>
        <pt x="222" y="343" on="0"/>
        <pt x="189" y="227" on="0"/>
        <pt x="180" y="148" on="0"/>
        <pt x="180" y="109" on="1"/>
        <pt x="180" y="27" on="0"/>
        <pt x="237" y="-66" on="0"/>
        <pt x="285" y="-66" on="1"/>
        <pt x="331" y="-66" on="0"/>
        <pt x="429" y="12" on="0"/>
        <pt x="527" y="148" on="0"/>
        <pt x="625" y="330" on="0"/>
        <pt x="718" y="537" on="0"/>
        <pt x="804" y="759" on="0"/>
        <pt x="880" y="975" on="0"/>
        <pt x="944" y="1173" on="0"/>
        <pt x="993" y="1333" on="0"/>
        <pt x="1023" y="1444" on="0"/>
        <pt x="1028" y="1464" on="1"/>
        <pt x="1007" y="1464" on="0"/>
        <pt x="960" y="1465" on="0"/>
        <pt x="920" y="1469" on="0"/>
        <pt x="893" y="1477" on="0"/>
        <pt x="893" y="1485" on="1"/>
        <pt x="893" y="1490" on="0"/>
        <pt x="903" y="1501" on="0"/>
        <pt x="905" y="1507" on="1"/>
        <pt x="905" y="1511" on="1"/>
        <pt x="907" y="1521" on="0"/>
        <pt x="921" y="1532" on="0"/>
        <pt x="930" y="1534" on="1"/>
        <pt x="993" y="1544" on="0"/>
        <pt x="1097" y="1560" on="0"/>
        <pt x="1194" y="1571" on="0"/>
        <pt x="1292" y="1577" on="0"/>
        <pt x="1348" y="1577" on="1"/>
        <pt x="1354" y="1577" on="0"/>
        <pt x="1368" y="1566" on="0"/>
        <pt x="1368" y="1556" on="1"/>
        <pt x="1368" y="1553" on="0"/>
        <pt x="1366" y="1549" on="0"/>
        <pt x="1366" y="1546" on="1"/>
        <pt x="1358" y="1520" on="1"/>
        <pt x="1352" y="1500" on="0"/>
        <pt x="1313" y="1477" on="0"/>
        <pt x="1294" y="1475" on="1"/>
        <pt x="1263" y="1473" on="0"/>
        <pt x="1208" y="1468" on="0"/>
        <pt x="1180" y="1466" on="1"/>
        <pt x="1162" y="1428" on="0"/>
        <pt x="1115" y="1321" on="0"/>
        <pt x="1062" y="1198" on="0"/>
        <pt x="1007" y="1067" on="0"/>
        <pt x="981" y="1005" on="1"/>
        <pt x="919" y="858" on="0"/>
        <pt x="854" y="698" on="1"/>
        <pt x="765" y="482" on="0"/>
        <pt x="610" y="168" on="0"/>
        <pt x="468" y="-43" on="0"/>
        <pt x="335" y="-160" on="0"/>
        <pt x="268" y="-180" on="1"/>
        <pt x="208" y="-236" on="0"/>
        <pt x="141" y="-351" on="0"/>
        <pt x="141" y="-403" on="1"/>
        <pt x="141" y="-441" on="0"/>
        <pt x="181" y="-492" on="0"/>
        <pt x="227" y="-492" on="1"/>
        <pt x="250" y="-492" on="0"/>
        <pt x="290" y="-483" on="0"/>
        <pt x="321" y="-471" on="0"/>
        <pt x="343" y="-459" on="0"/>
        <pt x="348" y="-455" on="1"/>
        <pt x="351" y="-452" on="0"/>
        <pt x="358" y="-446" on="0"/>
        <pt x="365" y="-446" on="1"/>
        <pt x="370" y="-446" on="0"/>
        <pt x="377" y="-456" on="0"/>
        <pt x="377" y="-461" on="1"/>
        <pt x="377" y="-471" on="0"/>
        <pt x="338" y="-504" on="0"/>
        <pt x="276" y="-537" on="0"/>
        <pt x="198" y="-561" on="0"/>
        <pt x="160" y="-561" on="1"/>
        <pt x="104" y="-561" on="0"/>
        <pt x="29" y="-507" on="0"/>
        <pt x="29" y="-451" on="1"/>
        <pt x="29" y="-392" on="0"/>
        <pt x="109" y="-265" on="0"/>
        <pt x="184" y="-193" on="1"/>
        <pt x="90" y="-189" on="0"/>
        <pt x="-12" y="-57" on="0"/>
        <pt x="-12" y="61" on="1"/>
        <pt x="-12" y="139" on="0"/>
        <pt x="33" y="329" on="0"/>
        <pt x="80" y="440" on="1"/>
        <pt x="121" y="550" on="0"/>
        <pt x="180" y="694" on="1"/>
        <pt x="230" y="818" on="0"/>
        <pt x="379" y="1170" on="0"/>
        <pt x="479" y="1395" on="1"/>
        <pt x="444" y="1395" on="1"/>
        <pt x="436" y="1395" on="0"/>
        <pt x="411" y="1394" on="0"/>
        <pt x="389" y="1394" on="0"/>
        <pt x="373" y="1398" on="0"/>
        <pt x="373" y="1403" on="1"/>
        <pt x="373" y="1407" on="0"/>
        <pt x="377" y="1411" on="1"/>
        <pt x="385" y="1427" on="1"/>
        <pt x="397" y="1453" on="0"/>
        <pt x="424" y="1456" on="1"/>
        <pt x="472" y="1466" on="0"/>
        <pt x="561" y="1481" on="0"/>
        <pt x="650" y="1493" on="0"/>
        <pt x="742" y="1501" on="0"/>
        <pt x="793" y="1505" on="1"/>
        <pt x="801" y="1505" on="0"/>
        <pt x="817" y="1498" on="0"/>
        <pt x="817" y="1487" on="1"/>
        <pt x="817" y="1485" on="0"/>
        <pt x="815" y="1481" on="0"/>
        <pt x="815" y="1479" on="1"/>
      </contour>
    </TTGlyph>
    <TTGlyph name="Uring" xMin="-12" yMin="-193" xMax="1368" yMax="2005">
      <component glyphName="U" x="0" y="0" flags="0x204"/>
      <component glyphName="ring" x="471" y="772" flags="0x4"/>
    </TTGlyph>
    <TTGlyph name="Utilde" xMin="-12" yMin="-193" xMax="1368" yMax="1894">
      <component glyphName="U" x="0" y="0" flags="0x204"/>
      <component glyphName="tilde" x="420" y="772" flags="0x4"/>
    </TTGlyph>
    <TTGlyph name="V" xMin="82" yMin="-250" xMax="1307" yMax="1588">
      <contour>
        <pt x="911" y="1483" on="1"/>
        <pt x="918" y="1500" on="0"/>
        <pt x="945" y="1538" on="0"/>
        <pt x="971" y="1552" on="1"/>
        <pt x="980" y="1557" on="0"/>
        <pt x="1028" y="1565" on="0"/>
        <pt x="1092" y="1572" on="0"/>
        <pt x="1163" y="1578" on="0"/>
        <pt x="1226" y="1582" on="0"/>
        <pt x="1274" y="1585" on="0"/>
        <pt x="1282" y="1585" on="1"/>
        <pt x="1307" y="1588" on="0"/>
        <pt x="1297" y="1557" on="0"/>
        <pt x="1266" y="1532" on="1"/>
        <pt x="1261" y="1528" on="0"/>
        <pt x="1246" y="1518" on="0"/>
        <pt x="1212" y="1507" on="0"/>
        <pt x="1154" y="1494" on="0"/>
        <pt x="1106" y="1487" on="1"/>
        <pt x="215" y="-231" on="1"/>
        <pt x="212" y="-236" on="0"/>
        <pt x="205" y="-244" on="0"/>
        <pt x="199" y="-246" on="1"/>
        <pt x="188" y="-250" on="0"/>
        <pt x="178" y="-246" on="1"/>
        <pt x="82" y="-219" on="1"/>
        <pt x="110" y="-43" on="0"/>
        <pt x="143" y="188" on="1"/>
        <pt x="172" y="386" on="0"/>
        <pt x="249" y="944" on="0"/>
        <pt x="295" y="1296" on="1"/>
        <pt x="253" y="1291" on="0"/>
        <pt x="182" y="1288" on="0"/>
        <pt x="164" y="1288" on="1"/>
        <pt x="134" y="1288" on="0"/>
        <pt x="105" y="1295" on="0"/>
        <pt x="97" y="1308" on="0"/>
        <pt x="106" y="1325" on="0"/>
        <pt x="115" y="1335" on="1"/>
        <pt x="123" y="1345" on="0"/>
        <pt x="132" y="1361" on="0"/>
        <pt x="148" y="1375" on="0"/>
        <pt x="178" y="1385" on="0"/>
        <pt x="207" y="1389" on="1"/>
        <pt x="226" y="1391" on="0"/>
        <pt x="305" y="1397" on="0"/>
        <pt x="402" y="1403" on="0"/>
        <pt x="508" y="1409" on="0"/>
        <pt x="601" y="1414" on="0"/>
        <pt x="671" y="1418" on="0"/>
        <pt x="684" y="1419" on="1"/>
        <pt x="726" y="1422" on="0"/>
        <pt x="733" y="1399" on="0"/>
        <pt x="709" y="1368" on="1"/>
        <pt x="696" y="1354" on="0"/>
        <pt x="649" y="1337" on="0"/>
        <pt x="610" y="1331" on="1"/>
        <pt x="601" y="1329" on="0"/>
        <pt x="555" y="1324" on="0"/>
        <pt x="526" y="1321" on="1"/>
        <pt x="508" y="1221" on="0"/>
        <pt x="466" y="988" on="0"/>
        <pt x="424" y="746" on="0"/>
        <pt x="383" y="508" on="0"/>
        <pt x="347" y="298" on="0"/>
        <pt x="318" y="129" on="0"/>
        <pt x="309" y="78" on="1"/>
        <pt x="1026" y="1477" on="1"/>
        <pt x="963" y="1469" on="0"/>
        <pt x="906" y="1470" on="0"/>
      </contour>
    </TTGlyph>
    <TTGlyph name="W" xMin="67" yMin="-239" xMax="1629" yMax="1621">
      <contour>
        <pt x="721" y="1444" on="1"/>
        <pt x="710" y="1430" on="0"/>
        <pt x="664" y="1413" on="0"/>
        <pt x="627" y="1407" on="1"/>
        <pt x="617" y="1405" on="0"/>
        <pt x="579" y="1400" on="0"/>
        <pt x="557" y="1397" on="1"/>
        <pt x="539" y="1304" on="0"/>
        <pt x="502" y="1102" on="0"/>
        <pt x="463" y="899" on="0"/>
        <pt x="426" y="703" on="0"/>
        <pt x="393" y="528" on="0"/>
        <pt x="364" y="382" on="0"/>
        <pt x="354" y="330" on="1"/>
        <pt x="445" y="533" on="0"/>
        <pt x="584" y="846" on="0"/>
        <pt x="689" y="1081" on="0"/>
        <pt x="763" y="1246" on="0"/>
        <pt x="788" y="1301" on="1"/>
        <pt x="846" y="1430" on="0"/>
        <pt x="860" y="1460" on="1"/>
        <pt x="869" y="1478" on="0"/>
        <pt x="885" y="1510" on="0"/>
        <pt x="903" y="1535" on="0"/>
        <pt x="925" y="1550" on="0"/>
        <pt x="940" y="1550" on="1"/>
        <pt x="1000" y="1550" on="0"/>
        <pt x="991" y="1493" on="1"/>
        <pt x="987" y="1466" on="0"/>
        <pt x="969" y="1338" on="1"/>
        <pt x="961" y="1284" on="0"/>
        <pt x="938" y="1121" on="0"/>
        <pt x="904" y="889" on="0"/>
        <pt x="860" y="580" on="0"/>
        <pt x="831" y="379" on="1"/>
        <pt x="1317" y="1497" on="1"/>
        <pt x="1252" y="1489" on="0"/>
        <pt x="1195" y="1490" on="0"/>
        <pt x="1200" y="1505" on="1"/>
        <pt x="1205" y="1522" on="0"/>
        <pt x="1232" y="1567" on="0"/>
        <pt x="1260" y="1581" on="1"/>
        <pt x="1269" y="1586" on="0"/>
        <pt x="1322" y="1596" on="0"/>
        <pt x="1391" y="1603" on="0"/>
        <pt x="1470" y="1610" on="0"/>
        <pt x="1540" y="1615" on="0"/>
        <pt x="1593" y="1617" on="0"/>
        <pt x="1602" y="1618" on="1"/>
        <pt x="1629" y="1621" on="0"/>
        <pt x="1621" y="1586" on="0"/>
        <pt x="1587" y="1559" on="1"/>
        <pt x="1582" y="1555" on="0"/>
        <pt x="1566" y="1543" on="0"/>
        <pt x="1528" y="1530" on="0"/>
        <pt x="1461" y="1515" on="0"/>
        <pt x="1405" y="1507" on="1"/>
        <pt x="1364" y="1414" on="0"/>
        <pt x="1282" y="1231" on="0"/>
        <pt x="1204" y="1058" on="0"/>
        <pt x="1132" y="898" on="0"/>
        <pt x="1100" y="828" on="1"/>
        <pt x="1025" y="664" on="0"/>
        <pt x="958" y="518" on="1"/>
        <pt x="890" y="367" on="0"/>
        <pt x="792" y="161" on="0"/>
        <pt x="727" y="30" on="0"/>
        <pt x="691" y="-38" on="0"/>
        <pt x="684" y="-51" on="1"/>
        <pt x="676" y="-63" on="0"/>
        <pt x="661" y="-70" on="0"/>
        <pt x="646" y="-65" on="0"/>
        <pt x="630" y="-53" on="0"/>
        <pt x="623" y="-47" on="1"/>
        <pt x="607" y="-35" on="0"/>
        <pt x="600" y="10" on="0"/>
        <pt x="606" y="53" on="1"/>
        <pt x="610" y="83" on="0"/>
        <pt x="624" y="191" on="1"/>
        <pt x="630" y="237" on="0"/>
        <pt x="647" y="373" on="0"/>
        <pt x="671" y="564" on="0"/>
        <pt x="703" y="817" on="0"/>
        <pt x="723" y="979" on="1"/>
        <pt x="694" y="915" on="0"/>
        <pt x="619" y="747" on="0"/>
        <pt x="534" y="559" on="0"/>
        <pt x="446" y="362" on="0"/>
        <pt x="361" y="174" on="0"/>
        <pt x="285" y="5" on="0"/>
        <pt x="227" y="-124" on="0"/>
        <pt x="191" y="-204" on="0"/>
        <pt x="188" y="-209" on="1"/>
        <pt x="173" y="-237" on="0"/>
        <pt x="149" y="-239" on="0"/>
        <pt x="133" y="-231" on="1"/>
        <pt x="126" y="-227" on="0"/>
        <pt x="103" y="-214" on="0"/>
        <pt x="81" y="-195" on="0"/>
        <pt x="67" y="-170" on="0"/>
        <pt x="70" y="-154" on="1"/>
        <pt x="110" y="61" on="0"/>
        <pt x="154" y="308" on="1"/>
        <pt x="173" y="413" on="0"/>
        <pt x="215" y="659" on="0"/>
        <pt x="261" y="930" on="0"/>
        <pt x="310" y="1220" on="0"/>
        <pt x="334" y="1370" on="1"/>
        <pt x="300" y="1367" on="0"/>
        <pt x="242" y="1364" on="0"/>
        <pt x="225" y="1364" on="1"/>
        <pt x="194" y="1364" on="0"/>
        <pt x="164" y="1371" on="0"/>
        <pt x="156" y="1384" on="0"/>
        <pt x="164" y="1401" on="0"/>
        <pt x="172" y="1411" on="1"/>
        <pt x="179" y="1421" on="0"/>
        <pt x="185" y="1437" on="0"/>
        <pt x="200" y="1450" on="0"/>
        <pt x="229" y="1460" on="0"/>
        <pt x="258" y="1464" on="1"/>
        <pt x="277" y="1467" on="0"/>
        <pt x="350" y="1473" on="0"/>
        <pt x="437" y="1479" on="0"/>
        <pt x="532" y="1485" on="0"/>
        <pt x="616" y="1490" on="0"/>
        <pt x="680" y="1494" on="0"/>
        <pt x="694" y="1495" on="1"/>
        <pt x="735" y="1498" on="0"/>
        <pt x="743" y="1475" on="0"/>
      </contour>
    </TTGlyph>
    <TTGlyph name="Wacute" xMin="67" yMin="-239" xMax="1629" yMax="1952">
      <component glyphName="W" x="0" y="0" flags="0x204"/>
      <component glyphName="acute" x="551" y="776" flags="0x4"/>
    </TTGlyph>
    <TTGlyph name="Wcircumflex" xMin="67" yMin="-239" xMax="1629" yMax="1950">
      <component glyphName="W" x="0" y="0" flags="0x204"/>
      <component glyphName="circumflex" x="512" y="776" flags="0x4"/>
    </TTGlyph>
    <TTGlyph name="Wdieresis" xMin="67" yMin="-239" xMax="1629" yMax="1835">
      <component glyphName="W" x="0" y="0" flags="0x204"/>
      <component glyphName="dieresis" x="475" y="776" flags="0x4"/>
    </TTGlyph>
    <TTGlyph name="Wgrave" xMin="67" yMin="-239" xMax="1629" yMax="1941">
      <component glyphName="W" x="0" y="0" flags="0x204"/>
      <component glyphName="grave" x="477" y="776" flags="0x4"/>
    </TTGlyph>
    <TTGlyph name="X" xMin="-287" yMin="-242" xMax="1280" yMax="1540">
      <contour>
        <pt x="637" y="1444" on="1"/>
        <pt x="657" y="1444" on="0"/>
        <pt x="657" y="1434" on="1"/>
        <pt x="657" y="1426" on="0"/>
        <pt x="634" y="1403" on="0"/>
        <pt x="614" y="1389" on="1"/>
        <pt x="610" y="1386" on="0"/>
        <pt x="599" y="1379" on="0"/>
        <pt x="578" y="1371" on="0"/>
        <pt x="543" y="1362" on="0"/>
        <pt x="516" y="1358" on="1"/>
        <pt x="522" y="1215" on="0"/>
        <pt x="537" y="959" on="0"/>
        <pt x="543" y="844" on="1"/>
        <pt x="582" y="901" on="0"/>
        <pt x="666" y="1027" on="0"/>
        <pt x="762" y="1169" on="0"/>
        <pt x="871" y="1332" on="0"/>
        <pt x="936" y="1427" on="1"/>
        <pt x="886" y="1424" on="0"/>
        <pt x="817" y="1421" on="0"/>
        <pt x="815" y="1421" on="1"/>
        <pt x="793" y="1421" on="0"/>
        <pt x="793" y="1432" on="1"/>
        <pt x="793" y="1449" on="0"/>
        <pt x="836" y="1477" on="1"/>
        <pt x="841" y="1481" on="0"/>
        <pt x="859" y="1491" on="0"/>
        <pt x="903" y="1503" on="0"/>
        <pt x="981" y="1517" on="0"/>
        <pt x="1047" y="1524" on="1"/>
        <pt x="1118" y="1532" on="0"/>
        <pt x="1213" y="1540" on="0"/>
        <pt x="1241" y="1540" on="1"/>
        <pt x="1280" y="1540" on="0"/>
        <pt x="1280" y="1528" on="1"/>
        <pt x="1280" y="1526" on="1"/>
        <pt x="1275" y="1510" on="0"/>
        <pt x="1243" y="1470" on="0"/>
        <pt x="1212" y="1456" on="1"/>
        <pt x="1201" y="1451" on="0"/>
        <pt x="1136" y="1443" on="0"/>
        <pt x="1094" y="1438" on="1"/>
        <pt x="951" y="1255" on="0"/>
        <pt x="678" y="921" on="0"/>
        <pt x="549" y="752" on="1"/>
        <pt x="571" y="401" on="0"/>
        <pt x="604" y="-34" on="0"/>
        <pt x="612" y="-119" on="1"/>
        <pt x="653" y="-114" on="0"/>
        <pt x="719" y="-111" on="0"/>
        <pt x="739" y="-111" on="1"/>
        <pt x="776" y="-111" on="0"/>
        <pt x="805" y="-122" on="0"/>
        <pt x="805" y="-131" on="1"/>
        <pt x="805" y="-142" on="0"/>
        <pt x="793" y="-158" on="1"/>
        <pt x="785" y="-168" on="0"/>
        <pt x="777" y="-185" on="0"/>
        <pt x="763" y="-198" on="0"/>
        <pt x="734" y="-208" on="0"/>
        <pt x="705" y="-211" on="1"/>
        <pt x="686" y="-214" on="0"/>
        <pt x="614" y="-220" on="0"/>
        <pt x="527" y="-227" on="0"/>
        <pt x="432" y="-234" on="0"/>
        <pt x="348" y="-239" on="0"/>
        <pt x="283" y="-242" on="0"/>
        <pt x="270" y="-242" on="1"/>
        <pt x="254" y="-242" on="1"/>
        <pt x="223" y="-242" on="0"/>
        <pt x="223" y="-229" on="1"/>
        <pt x="223" y="-223" on="0"/>
        <pt x="231" y="-202" on="0"/>
        <pt x="256" y="-180" on="0"/>
        <pt x="300" y="-161" on="0"/>
        <pt x="336" y="-156" on="1"/>
        <pt x="342" y="-154" on="0"/>
        <pt x="367" y="-152" on="0"/>
        <pt x="383" y="-150" on="1"/>
        <pt x="378" y="37" on="0"/>
        <pt x="367" y="359" on="0"/>
        <pt x="362" y="500" on="1"/>
        <pt x="276" y="378" on="0"/>
        <pt x="113" y="123" on="0"/>
        <pt x="33" y="-20" on="1"/>
        <pt x="79" y="-15" on="0"/>
        <pt x="144" y="-12" on="0"/>
        <pt x="166" y="-12" on="1"/>
        <pt x="203" y="-12" on="0"/>
        <pt x="203" y="-23" on="1"/>
        <pt x="203" y="-25" on="1"/>
        <pt x="197" y="-42" on="0"/>
        <pt x="164" y="-82" on="0"/>
        <pt x="133" y="-96" on="1"/>
        <pt x="121" y="-101" on="0"/>
        <pt x="50" y="-110" on="0"/>
        <pt x="-41" y="-118" on="0"/>
        <pt x="-139" y="-123" on="0"/>
        <pt x="-220" y="-127" on="0"/>
        <pt x="-271" y="-129" on="0"/>
        <pt x="-268" y="-129" on="1"/>
        <pt x="-287" y="-129" on="0"/>
        <pt x="-287" y="-121" on="1"/>
        <pt x="-287" y="-105" on="0"/>
        <pt x="-244" y="-74" on="1"/>
        <pt x="-239" y="-71" on="0"/>
        <pt x="-226" y="-63" on="0"/>
        <pt x="-202" y="-55" on="0"/>
        <pt x="-163" y="-46" on="0"/>
        <pt x="-131" y="-41" on="1"/>
        <pt x="-47" y="62" on="0"/>
        <pt x="94" y="235" on="0"/>
        <pt x="212" y="387" on="0"/>
        <pt x="313" y="520" on="0"/>
        <pt x="358" y="582" on="1"/>
        <pt x="346" y="898" on="0"/>
        <pt x="324" y="1266" on="0"/>
        <pt x="319" y="1335" on="1"/>
        <pt x="279" y="1330" on="0"/>
        <pt x="221" y="1327" on="0"/>
        <pt x="203" y="1327" on="1"/>
        <pt x="168" y="1327" on="0"/>
        <pt x="168" y="1335" on="1"/>
        <pt x="168" y="1351" on="0"/>
        <pt x="207" y="1397" on="0"/>
        <pt x="238" y="1411" on="1"/>
        <pt x="249" y="1416" on="0"/>
        <pt x="309" y="1424" on="0"/>
        <pt x="389" y="1431" on="0"/>
        <pt x="479" y="1437" on="0"/>
        <pt x="559" y="1441" on="0"/>
        <pt x="619" y="1443" on="0"/>
        <pt x="629" y="1444" on="1"/>
      </contour>
    </TTGlyph>
</ttFont>
